<mxfile host="65bd71144e">
    <diagram id="jVL9KLdtrLW8NkbS1ek7" name="ページ1">
        <mxGraphModel dx="1301" dy="423" grid="1" gridSize="10" guides="1" tooltips="1" connect="1" arrows="1" fold="1" page="1" pageScale="1" pageWidth="827" pageHeight="1169" math="0" shadow="0">
            <root>
                <mxCell id="0"/>
                <mxCell id="1" parent="0"/>
                <mxCell id="32" value="" style="whiteSpace=wrap;html=1;" parent="1" vertex="1">
                    <mxGeometry x="160" y="480" width="470" height="180" as="geometry"/>
                </mxCell>
                <mxCell id="2" value="zoomは30分で切れます" style="text;html=1;align=center;verticalAlign=middle;resizable=0;points=[];autosize=1;strokeColor=none;fillColor=none;" parent="1" vertex="1">
                    <mxGeometry x="20" y="10" width="150" height="30" as="geometry"/>
                </mxCell>
                <mxCell id="3" value="作業の概要" style="text;html=1;align=center;verticalAlign=middle;resizable=0;points=[];autosize=1;strokeColor=none;fillColor=none;" parent="1" vertex="1">
                    <mxGeometry x="90" y="85" width="80" height="30" as="geometry"/>
                </mxCell>
                <mxCell id="7" value="" style="edgeStyle=none;html=1;" parent="1" source="5" target="6" edge="1">
                    <mxGeometry relative="1" as="geometry"/>
                </mxCell>
                <mxCell id="5" value="音声テキスト入力" style="text;html=1;align=center;verticalAlign=middle;resizable=0;points=[];autosize=1;strokeColor=none;fillColor=none;" parent="1" vertex="1">
                    <mxGeometry x="115" y="140" width="120" height="30" as="geometry"/>
                </mxCell>
                <mxCell id="9" value="" style="edgeStyle=none;html=1;" parent="1" source="6" target="8" edge="1">
                    <mxGeometry relative="1" as="geometry"/>
                </mxCell>
                <mxCell id="6" value="テキスト解析" style="whiteSpace=wrap;html=1;" parent="1" vertex="1">
                    <mxGeometry x="115" y="235" width="120" height="60" as="geometry"/>
                </mxCell>
                <mxCell id="11" value="" style="edgeStyle=none;html=1;" parent="1" source="8" target="10" edge="1">
                    <mxGeometry relative="1" as="geometry"/>
                </mxCell>
                <mxCell id="8" value="Unity&lt;br&gt;か&lt;br&gt;Blender&lt;br&gt;において3Dモデルを表示" style="whiteSpace=wrap;html=1;" parent="1" vertex="1">
                    <mxGeometry x="310" y="227.5" width="125" height="75" as="geometry"/>
                </mxCell>
                <mxCell id="10" value="VRとの連携" style="whiteSpace=wrap;html=1;" parent="1" vertex="1">
                    <mxGeometry x="515" y="235" width="120" height="60" as="geometry"/>
                </mxCell>
                <mxCell id="14" value="できたこと" style="text;html=1;align=center;verticalAlign=middle;resizable=0;points=[];autosize=1;strokeColor=none;fillColor=none;" parent="1" vertex="1">
                    <mxGeometry x="90" y="305" width="80" height="30" as="geometry"/>
                </mxCell>
                <mxCell id="16" value="Blender script" style="swimlane;whiteSpace=wrap;html=1;" parent="1" vertex="1">
                    <mxGeometry x="130" y="340" width="320" height="110" as="geometry"/>
                </mxCell>
                <mxCell id="18" value="shap-E apiを使ってglbファイル出力" style="text;html=1;align=center;verticalAlign=middle;resizable=0;points=[];autosize=1;strokeColor=none;fillColor=none;" parent="16" vertex="1">
                    <mxGeometry x="10" y="30" width="220" height="30" as="geometry"/>
                </mxCell>
                <mxCell id="19" value="vscodeからinput関数を使って実行可能に(テキスト入力)" style="text;html=1;align=center;verticalAlign=middle;resizable=0;points=[];autosize=1;strokeColor=none;fillColor=none;" parent="16" vertex="1">
                    <mxGeometry y="60" width="320" height="30" as="geometry"/>
                </mxCell>
                <mxCell id="21" value="課題" style="text;html=1;align=center;verticalAlign=middle;resizable=0;points=[];autosize=1;strokeColor=none;fillColor=none;" parent="1" vertex="1">
                    <mxGeometry x="130" y="450" width="50" height="30" as="geometry"/>
                </mxCell>
                <mxCell id="22" value="・音声認識apiの取得&lt;br&gt;" style="text;html=1;align=center;verticalAlign=middle;resizable=0;points=[];autosize=1;strokeColor=none;fillColor=none;" parent="1" vertex="1">
                    <mxGeometry x="150" y="500" width="140" height="30" as="geometry"/>
                </mxCell>
                <mxCell id="23" value="・shap-Eのglbファイルを読み込むと着色なし、形不明瞭な3Dモデルが生成される" style="text;html=1;align=center;verticalAlign=middle;resizable=0;points=[];autosize=1;strokeColor=none;fillColor=none;" parent="1" vertex="1">
                    <mxGeometry x="150" y="530" width="460" height="30" as="geometry"/>
                </mxCell>
                <mxCell id="26" value="" style="edgeStyle=none;html=1;exitX=0.137;exitY=1.001;exitDx=0;exitDy=0;exitPerimeter=0;" parent="1" source="32" target="25" edge="1">
                    <mxGeometry relative="1" as="geometry"/>
                </mxCell>
                <mxCell id="24" value="・フロント(Reactなど)部分の構築" style="text;html=1;align=center;verticalAlign=middle;resizable=0;points=[];autosize=1;strokeColor=none;fillColor=none;" parent="1" vertex="1">
                    <mxGeometry x="150" y="580" width="210" height="30" as="geometry"/>
                </mxCell>
                <mxCell id="25" value="・特定の単語が入力されたらデータベースからリアルなglbファイルを入出力" style="whiteSpace=wrap;html=1;" parent="1" vertex="1">
                    <mxGeometry x="230" y="730" width="390" height="135" as="geometry"/>
                </mxCell>
                <mxCell id="31" value="・Unityのglbファイルの入出力自動化はC#じゃないとだめ" style="text;html=1;align=center;verticalAlign=middle;resizable=0;points=[];autosize=1;strokeColor=none;fillColor=none;" parent="1" vertex="1">
                    <mxGeometry x="150" y="554.5" width="330" height="30" as="geometry"/>
                </mxCell>
                <mxCell id="34" value="・Reactとblender scriptで動くflaskが通信可能なのか分からない" style="text;html=1;align=center;verticalAlign=middle;resizable=0;points=[];autosize=1;strokeColor=none;fillColor=none;" parent="1" vertex="1">
                    <mxGeometry x="155" y="600" width="370" height="30" as="geometry"/>
                </mxCell>
                <mxCell id="35" value="・発表資料はPowerPoint or Marp?(Figmaなど参考資料にあったものも使いたい)" style="text;html=1;align=center;verticalAlign=middle;resizable=0;points=[];autosize=1;strokeColor=none;fillColor=none;" parent="1" vertex="1">
                    <mxGeometry x="155" y="630" width="450" height="30" as="geometry"/>
                </mxCell>
                <mxCell id="36" value="解決策・今後の方針" style="text;html=1;align=center;verticalAlign=middle;resizable=0;points=[];autosize=1;strokeColor=none;fillColor=none;" parent="1" vertex="1">
                    <mxGeometry x="135" y="665" width="130" height="30" as="geometry"/>
                </mxCell>
                <mxCell id="37" value="・そもそもblender scriptはwebサーバーから値を取得できるのか" style="text;html=1;align=center;verticalAlign=middle;resizable=0;points=[];autosize=1;strokeColor=none;fillColor=none;" parent="1" vertex="1">
                    <mxGeometry x="220" y="750" width="370" height="30" as="geometry"/>
                </mxCell>
            </root>
        </mxGraphModel>
    </diagram>
    <diagram id="BEK4UmDQZu6UmOKyQwOl" name="ページ2">
        <mxGraphModel dx="2205" dy="1874" grid="1" gridSize="10" guides="1" tooltips="1" connect="1" arrows="1" fold="1" page="1" pageScale="1" pageWidth="827" pageHeight="1169" math="0" shadow="0">
            <root>
                <mxCell id="0"/>
                <mxCell id="1" parent="0"/>
                <mxCell id="eYw1XoZOmiX6JKDAJUh6-97" value="" style="whiteSpace=wrap;html=1;" parent="1" vertex="1">
                    <mxGeometry x="690" y="-150" width="230" height="120" as="geometry"/>
                </mxCell>
                <mxCell id="eYw1XoZOmiX6JKDAJUh6-95" value="" style="whiteSpace=wrap;html=1;" parent="1" vertex="1">
                    <mxGeometry x="414" width="736" height="700" as="geometry"/>
                </mxCell>
                <mxCell id="eYw1XoZOmiX6JKDAJUh6-94" value="" style="whiteSpace=wrap;html=1;" parent="1" vertex="1">
                    <mxGeometry x="20" y="30" width="380" height="620" as="geometry"/>
                </mxCell>
                <mxCell id="eYw1XoZOmiX6JKDAJUh6-64" value="" style="whiteSpace=wrap;html=1;" parent="1" vertex="1">
                    <mxGeometry x="60" y="270" width="180" height="200" as="geometry"/>
                </mxCell>
                <mxCell id="eYw1XoZOmiX6JKDAJUh6-78" value="submmit" style="whiteSpace=wrap;html=1;" parent="1" vertex="1">
                    <mxGeometry x="185" y="300" width="50" height="20" as="geometry"/>
                </mxCell>
                <mxCell id="eYw1XoZOmiX6JKDAJUh6-5" value="" style="shape=image;verticalLabelPosition=bottom;labelBackgroundColor=default;verticalAlign=top;aspect=fixed;imageAspect=0;image=data:image/svg+xml,PHN2ZyB4bWxucz0iaHR0cDovL3d3dy53My5vcmcvMjAwMC9zdmciIHZpZXdCb3g9IjAgMCAxMjggMTI4Ij48ZGVmcz48bGluZWFyR3JhZGllbnQgZ3JhZGllbnRVbml0cz0idXNlclNwYWNlT25Vc2UiIGdyYWRpZW50VHJhbnNmb3JtPSJtYXRyaXgoMCA0LjA4NjggLTQuMDYzMiAwIC0xNC40NDggMTAzLjgxKSIgeTI9Ii05LjEwOCIgeTE9Ii05LjEwOCIgeDI9Ii02Ljc0MSIgeDE9Ii0xNS42MTUiIGlkPSJzcWxpdGUtb3JpZ2luYWwtd29yZG1hcmstYSI+PHN0b3Agb2Zmc2V0PSIwIiBzdG9wLWNvbG9yPSIjOTVkN2Y0Ii8+PHN0b3Agb2Zmc2V0PSIuOTIiIHN0b3AtY29sb3I9IiMwZjdmY2MiLz48c3RvcCBvZmZzZXQ9IjEiIHN0b3AtY29sb3I9IiMwZjdmY2MiLz48L2xpbmVhckdyYWRpZW50PjwvZGVmcz48cGF0aCBmaWxsPSIjMDAzOTU2IiBkPSJNNDguNjQ4IDYzLjYxM2MtMS43MDMgMC0zLjA5LjUxMi00LjE1NiAxLjUyNy0xLjA2MyAxLjAxNi0xLjU5OCAyLjM0OC0xLjU5OCAzLjk4IDAgLjg0NS4xMjkgMS42MTguMzk1IDIuMzI1YTUuODk0IDUuODk0IDAgMDAxLjIzIDEuOTU3Yy41NS41OTQgMS42NTYgMS4zOTUgMy4zIDIuNDIyIDIuMDI0IDEuMjQyIDMuMzQ1IDIuMjUgMy45ODEgMy4wMzVzLjk1NCAxLjYxLjk1NCAyLjQ2OWMwIDEuMTQ4LS4zNzUgMi4wNy0xLjE1MyAyLjc1OC0uNzczLjY4Ny0xLjgwOCAxLjAzNS0zLjA5NyAxLjAzNS0xLjM1MiAwLTIuNTMyLS40ODQtMy41NDMtMS40MzgtMS4wMTYtLjk1My0xLjUyOC0yLjIxNC0xLjU0LTMuOGgtLjYyOHY1Ljc1aC42MjhjLjE5Mi0uNTQ3LjQ2MS0uODI1LjgwOS0uODI1LjE2OCAwIC41NTkuMTE0IDEuMTcyLjMzMiAxLjQ4OC41MzIgMi43MDcuNzkzIDMuNjY4Ljc5MyAxLjY1MiAwIDMuMDctLjU4NiA0LjI0Mi0xLjc3IDEuMTc2LTEuMTgzIDEuNzctMi42MTIgMS43Ny00LjI4IDAtMS4yOTMtLjM5MS0yLjQ0Ni0xLjE1Ny0zLjQ0Ni0uNzczLTEuMDA0LTIuMjY1LTIuMTc1LTQuNS0zLjUxNS0xLjkyMS0xLjE2NC0zLjE3MS0yLjEwNi0zLjc1LTIuODQ0cy0uODc1LTEuNTUtLjg3NS0yLjQ0NWMwLS45NzMuMzU2LTEuNzQ2IDEuMDU1LTIuMzI4LjY5NS0uNTc5IDEuNjA2LS44NjggMi43NTQtLjg2OCAxLjI4MSAwIDIuMzU2LjM4NyAzLjIwMyAxLjE1Ny44NDguNzc3IDEuMzM2IDEuODQ3IDEuNDggMy4yMjZoLjYzM3YtNC45ODRoLS41ODVjLS4wNzUuMjU4LS4xNDEuNDE4LS4yLjQ5Mi0uMDYyLjA3NC0uMTcyLjExLS4zNDcuMTEtLjIgMC0uNTYzLS4wODctMS4wNzgtLjI1NS0xLjEwNi0uMzc1LTIuMTI1LS41Ny0zLjA2Ny0uNTd6bTIwLjU5OCAwYy0yLjA3OCAwLTMuOTY1LjQ5Ni01LjY3MiAxLjQ4LTEuNzA3Ljk4OS0zLjA1OCAyLjM1Mi00LjA1OCA0LjA5NC0uOTkzIDEuNzM5LTEuNDkzIDMuNTktMS40OTMgNS41NTkgMCAyLjY0NC44NjQgNS4wMDQgMi41OTggNy4wNyAxLjc0MiAyLjA2NyAzLjgyIDMuMzU2IDYuMjM0IDMuODQ4LjU1NS4yODkgMS4zNDggMS4wMzUgMi4zODMgMi4yNSAxLjE2IDEuMzYgMi4xNDkgMi4zNDQgMi45NjEgMi45M2E4Ljc0NiA4Ljc0NiAwIDAwMi42MSAxLjMwNGMuOTIxLjI4MiAxLjkyMS40MTggMy4wMDMuNDE4IDEuMzA5IDAgMi40ODUtLjIyNiAzLjUxNi0uNjk5bC0uMjMtLjU3OGE1LjU2NiA1LjU2NiAwIDAxLTEuOTE1LjMyNGMtLjkxIDAtMS44MzUtLjMwNS0yLjc2MS0uOTE0cy0yLjA4Ni0xLjc3My0zLjQ2MS0zLjQ4OGMtLjY0OS0uODI0LTEuMDk4LTEuMzQ0LTEuMzQ4LTEuNTQ3IDIuNjQtLjUyIDQuODE3LTEuODA1IDYuNTEyLTMuODY3czIuNTM5LTQuNDE0IDIuNTM5LTcuMDUxYzAtMy4xMzMtMS4xMDYtNS43NjItMy4zMDUtNy45MDYtMi4xOTktMi4xNDUtNC45MDYtMy4yMjctOC4xMTMtMy4yMjd6bTEyLjg1NSAwbC4wMzUuNjg0YzEuMzgzIDAgMi4xNTYuNDA2IDIuMzI4IDEuMjMuMDY3LjI5Ny4wOTguODQ0LjEwNiAxLjYyNWwtLjAxMiAxNWMtLjAxNiAxLjEyMS0uMTcyIDEuODM2LS40NzcgMi4xNDUtLjMwNC4zMDgtLjgyNC41MDMtMS41Ny41NzhsLS4wMzEuNjhoMTMuNzkzbC4zNTUtMy40MDNoLS42MzJjLS4xNzYuOTI2LS41OSAxLjU5LTEuMjUgMS45NjUtLjY1Ny4zNzktMS44Mi41Ny0zLjUuNTdoLTEuMzA5Yy0xLjUxMiAwLTIuMzg3LS41NS0yLjYxNy0xLjY1NmEzLjY3NyAzLjY3NyAwIDAxLS4wNjctLjcxNWwuMDU1LTE1LjE2NGMwLTEuMTE3LjE0LTEuODY3LjQzNC0yLjIzNC4yODktLjM2Ny44MjQtLjU3IDEuNTktLjYyMWwtLjAzMi0uNjg0em0tMTIuNjMzLjgyNGMyLjM0IDAgNC4yNTguOTMgNS43MzQgMi44MDEgMS40OCAxLjg3OSAyLjIxMSA0LjQ0NSAyLjIxMSA3LjY5NSAwIDMuMDgyLS43NDIgNS41NTEtMi4yMyA3LjQwNy0xLjQ4OSAxLjg1NS0zLjQ3MyAyLjc4LTUuOTM4IDIuNzgtMi4zNjcgMC00LjI4NS0uOTUyLTUuNzU4LTIuODctMS40NzItMS45MTQtMi4yMDMtNC4zOTktMi4yMDMtNy40NjEgMC0zLjE0LjczOS01LjY1NiAyLjIyMy03LjU0IDEuNDg1LTEuODc0IDMuNDczLTIuODEyIDUuOTYxLTIuODEyem0zMS43MjMgMy4yMjdjLS4zMzIgMC0uNTk0LjExNy0uNzgxLjM0NC0uMi4yMy0uMjU4LjUwNy0uMTkyLjg0My4wNjcuMzMyLjI1NC42MTQuNTQ3Ljg2LjI4NS4yMzguNjAyLjM2Ny45MzguMzY3YS44ODQuODg0IDAgMDAuNzUtLjM2N2MuMTgtLjI0Ni4yMzQtLjUyOC4xNjgtLjg2YTEuNDk3IDEuNDk3IDAgMDAtLjUyLS44NDMgMS40MTUgMS40MTUgMCAwMC0uOTEtLjM0NHptOS4wOTggMi4zYy0uNTY3IDIuMjEyLTEuODA5IDMuNDEtMy43MTEgMy42MDJsLjAyLjYzM2gyLjIyMmwtLjA0MyA3LjQ5NmMuMDA0IDEuMjgxLjA0IDIuMTMzLjEzMyAyLjU2Ny4yMTkgMS4wMzkuODk0IDEuNTcgMi4wMjMgMS41NyAxLjYzMyAwIDMuMzQ4LTEgNS4xMzctMy4wMDRsLS41NC0uNDY1Yy0xLjI5MiAxLjMxNi0yLjQzNyAxLjk3Ny0zLjQzNyAxLjk3Ny0uNjE3IDAtLjk5Ni0uMzUyLTEuMTQtMS4wNTVhMy4wMDcgMy4wMDcgMCAwMS0uMDUxLS42MDJsLjAyLTguNDg0aDMuMzk0bC0uMDM1LTEuMDA4aC0zLjM0OHYtMy4yMjZ6bTEzLjEyNSAyLjgyNWMtMS44OTkgMC0zLjQ0Mi45My00LjY0NSAyLjc3LTEuMTkxIDEuODQzLTEuNTYyIDMuODg2LTEuMDk0IDYuMTM2LjI3OCAxLjMxNi44MjkgMi4zMzYgMS42NzIgMy4wNTkuODQuNzE4IDEuOTEgMS4wNzQgMy4xODQgMS4wNzQgMS4xODcgMCAyLjg0LS4zMDEgMy41MzktLjkxLjY5NS0uNjA2IDEuMzQtMS41OTQgMS45MzQtMi45NDZsLS40NzctLjVjLS45NSAxLjc1LTIuODYgMi42MzMtNC4zIDIuNjMzLTEuOTg1IDAtMy4xOTYtMS4wOTQtMy42NS0zLjI2NWE3LjYxMiA3LjYxMiAwIDAxLS4xMzItLjg5MWMyLjM2LS4zNzUgNC4xNDUtMS4wNCA1LjM0OC0yIDEuMjEtLjk2MSAyLjQxOC0xLjk4NCAyLjE5MS0zLjA1OWEyLjQ2OSAyLjQ2OSAwIDAwLS45NzMtMS41MjNjLS41MTUtLjM3OS0xLjg1MS0uNTc4LTIuNTk3LS41Nzh6bS0yMC43NS4wNzhsLTQuMDkuOTQ1di43MzVsMS40MTQtLjE3NmMuNjg4IDAgMS4wOS4zMDggMS4yMTkuOTMuMDM5LjIxLjA3LjUuMDc4Ljg2N2wtLjA0NyA2LjczYy0uMDEyLjkyNi0uMTEzIDEuNDY5LS4zMiAxLjYzMy0uMjA3LjE2LS43NTQuMjQyLTEuNjQ1LjI0MmwtLjAyNy42MzdoNi40OTJsLS4wMTItLjYzN2MtLjg5OCAwLTEuNDg0LS4wNy0xLjc0Ni0uMjEtLjI1NC0uMTQxLS40MzMtLjM5MS0uNTExLS43NzgtLjA1NS0uMjc3LS4wODItLjc1OC0uMDg2LTEuNDIybC4wMi05LjQ5NnptMTkuNzEgMS4yNDZjLjM5NSAwIC43NzguMTUyIDEuMTYuNDUzLjM4NC4zLjYxNC42NC42ODggMS4wMDQuMzcxIDEuNzg1LTEuMjA3IDMuMDIzLTQuNzU3IDMuNzExLS4wOTgtMS4zMDUuMTI1LTIuNDg4LjY5OS0zLjU1NS41Ny0xLjA3IDEuMzEyLTEuNjEzIDIuMjEtMS42MTN6Ii8+PHBhdGggZmlsbD0iIzBiN2ZjYyIgZD0iTTM5LjQ5MiAzNy45MzhINC4yODljLTIuMzYgMC00LjI5IDEuOTQxLTQuMjkgNC4zMTN2MzkuMDQzYzAgMi4zNyAxLjkzIDQuMzEyIDQuMjkgNC4zMTJoMjMuMTg0Yy0uMjYyLTExLjYwMiAzLjY3Ni0zNC4xMTcgMTIuMDItNDcuNjcyeiIvPjxwYXRoIGZpbGw9InVybCgjc3FsaXRlLW9yaWdpbmFsLXdvcmRtYXJrLWEpIiBkPSJNMzguMjA3IDM5LjE5NUg0LjI4OWEzLjA0OCAzLjA0OCAwIDAwLTMuMDQgMy4wNTV2MzYuMTk1YzcuNjg1LTIuOTY1IDE5LjIxMi01LjUyOCAyNy4xODUtNS40MDYgMS42MDUtOC40MyA2LjMxMi0yNC45NDIgOS43NzMtMzMuODQ5eiIvPjxwYXRoIGZpbGw9IiMwMDM5NTYiIGQ9Ik00Ny42OTkgMzYuNjU2Yy0yLjQxLTIuMTYtNS4zMzItMS4yOTMtOC4yMDcgMS4yNzctLjQzLjM4My0uODYuODA1LTEuMjg1IDEuMjU4LTQuOTI2IDUuMjYyLTkuNSAxNS0xMC45MTggMjIuNDQxLjU1IDEuMTI1Ljk4NCAyLjU2NiAxLjI3IDMuNjY4YTQwLjYzMyA0MC42MzMgMCAwMS4zODIgMS42NTZzLS4wNDctLjE3Mi0uMjI2LS42OTlsLS4xMjItLjM0OGExLjgxIDEuODEgMCAwMC0uMDc0LS4xODNjLS4zMi0uNzU0LTEuMjEtMi4zNC0xLjYwMS0zLjAzMWE3MC40NjUgNzAuNDY1IDAgMDAtLjg3NSAyLjc2MWMxLjEyNSAyLjA3OCAxLjgxMiA1LjY0NSAxLjgxMiA1LjY0NXMtLjA1NS0uMjM0LS4zNC0xLjAzNWMtLjI1NC0uNzE1LTEuNTA3LTIuOTI2LTEuODA4LTMuNDQ2LS41MDggMS44OTEtLjcwNyAzLjE2NC0uNTI4IDMuNDc3LjM1Ni42MDIuNjk2IDEuNjM3Ljk5MyAyLjc5LjY2OCAyLjU4NSAxLjEyOCA1LjczIDEuMTI4IDUuNzNsLjA0LjUzYTUzLjQ3NyA1My40NzcgMCAwMC4xMzIgNi40NjJjLjIyIDIuNjkxLjY0IDUuMDA0IDEuMTY4IDYuMjQ2bC4zNjQtLjJjLS43ODItMi40NC0xLjA5OC01LjY0LS45NjEtOS4zMjcuMjEtNS42MzcgMS41LTEyLjQzOCAzLjg4Mi0xOS41MiA0LjAzMi0xMC43IDkuNjE0LTE5LjI4MSAxNC43MjctMjMuMzgtNC42NiA0LjIzNS0xMC45NjUgMTcuOTM1LTEyLjg1NSAyMy4wMTMtMi4xMTMgNS42NzUtMy42MDkgMTEuMDA4LTQuNTE1IDE2LjEyIDEuNTYyLTQuNzg5IDYuNTk4LTYuODQ3IDYuNTk4LTYuODQ3czIuNDY4LTMuMDYzIDUuMzU1LTcuNDQ1Yy0xLjcyNy4zOTgtNC41NyAxLjA3OC01LjUyIDEuNDc2LTEuNDA2LjU5NC0xLjc4Ljc5Ny0xLjc4Ljc5N3M0LjU0Ni0yLjc4MSA4LjQ0LTQuMDQ3YzUuMzY0LTguNDkyIDExLjIwOC0yMC41NTkgNS4zMjUtMjUuODQiLz48L3N2Zz4=;" parent="1" vertex="1">
                    <mxGeometry x="950" y="80" width="128" height="128" as="geometry"/>
                </mxCell>
                <mxCell id="eYw1XoZOmiX6JKDAJUh6-6" value="" style="shape=image;verticalLabelPosition=bottom;labelBackgroundColor=default;verticalAlign=top;aspect=fixed;imageAspect=0;image=data:image/svg+xml,PHN2ZyB4bWxucz0iaHR0cDovL3d3dy53My5vcmcvMjAwMC9zdmciIHZpZXdCb3g9IjAgMCAxMjggMTI4Ij48cGF0aCBkPSJNMTguNzY3IDgyLjY4NWMtMi4wNDMtMS42MDYtNC4yMjQtMy4xNDYtNS43MTMtNS4zMTctMy4xMzUtMy44MjgtNS41NDgtOC4yNTgtNy4xOTgtMTIuOTE0LS45OTgtMy4wMjgtMS4zMzktNi4yNzUtMi42MjUtOS4xODUtMS4zNDQtMi4xMTQuMjMxLTQuNDI1IDIuNTQ3LTUuMDk3IDEuMDMtLjE5OCAyLjg0My0xLjE3MS42NTUtLjQ3Ni0xLjk2MiAxLjQ0LTIuMTUxLTEuMzA2LS4xMzktMS40ODEgMS4zNzItLjE4MSAxLjg3OC0xLjMwNSAxLjQwOC0yLjMxNi0xLjQ3NC0uOTYyIDMuNTc0LTIuMDE3IDEuMDM0LTMuNDUyLTIuNjQ1LTIuODU1IDMuNy0zLjQwNCAyLjEzNS0uMTYyLS4zNzUgMi40OTIgNC40MzUtLjQ1OCAzLjMxOCAyLjQyMSAxLjEzNSAxLjM4MyA0LjI0OC4zMTUgNC4xNyAyLjI1NCAxLjY1Mi4xMTQgMi4yMiAxLjUwMyAzLjc3IDEuNjEgMS42MDguNzI3IDQuNTIxIDEuMjk4IDUuMDY4IDMuMTEtMS41OTQgMS4yNjEtNS4yODYtMi42MDgtNS40NjQuODg2LjQ4MiA1LjE2My4zNTggMTAuNDggMi4yNDggMTUuMzk2Ljg5MyAyLjk3OCAzLjA1OSA1LjMyIDUuMDE1IDcuNjQgMS44NzIgMi4yNzEgNC40MDcgMy44NjkgNi45OTEgNS4yMTQgMi4yNjYgMS4wNjkgNC43MDkgMS43NzcgNy4xOCAyLjIyMyAxLjAwMS0uNzY2IDIuNzcxLTMuNjE0IDQuMzMzLTIuNDEzLjA3NSAxLjM1LTMuMTAxIDIuODIyLS4xNDkgMi42NzQgMS43MzQtLjUyNSAyLjkzNiAxLjM0IDQuMzY0LS4zNDMgMS4zMTUgMS41NTggNS40NjctLjk5NCA0LjUzMSAyLjE5LTEuMjY3LjgxNi0zLjExMi4zMjEtNC4zNzkgMS40NDctMi4wOS0xLjA0NS0zLjc1My45MzMtNi4wNjguNjg1LTIuNTY5LjQ1OC01LjE4NC42NDUtNy43ODkuNjQ4LTQuMjc0LS4zMzctOC42MzgtLjQ4LTEyLjcwMy0xLjk2Ny0yLjI5My0uNjY2LTQuNTI3LTEuOTcyLTYuNTQtMy4yNzV6bTMuNjA4IDEuNTY1YzIuMjM2Ljk2NiA0LjQyMyAxLjk4NSA2Ljg3NCAyLjI5MyAzLjg4OS41NCA3LjkwNSAxLjM3MyAxMS44MDguNjE1LTEuNzY3LS43OTgtMy41OTMuMzA4LTUuMzUzLS41NzEtMi4xMS40NTUtNC4zNzUtLjExNS02LjUyMS0uMzk2LTIuNDM5LTEuMDg2LTUuMDcyLTEuODM0LTcuMzU3LTMuMjQ1LTIuODU1LTEuMDQzIDEuNDc2IDEuMzM4IDIuMjQ4IDEuNTMxIDEuNzg0IDEuMDEzLTEuOTYyLS41Mi0yLjQ5MS0uOTQtMS40OTUtLjgzOS0xLjY4Ni0uNjY0LS4xNDguMTg4LjMxLjE3OS42MTYuMzcxLjk0LjUyNXptLTQuMjU2LTMuMDA4YzIuMTY4LjgwNC0uMDA5LTEuNTI0LTEuMDAxLTEuMzg5LS40NC0uNzY0LTEuNjgyLTEuMjQ2LS44MDYtMS42NTUtMS41NzQuNTQ3LTEuNjUtMi4wNzktMi4zODktMS43MDQtMS42NjctLjUyNi0uNjQ4LTIuMzktMi42MzQtMy41MzQtLjE4MS0xLjIwNi0xLjk3MS0yLjI1MS0yLjU0Mi00LjA3LS4yNTItLjkzMi0yLjAyNC0zLjYwNS0uOTM2LTEuMTE4LjkyNiAyLjM5NiAyLjU1NSA0LjQ0OSAzLjkxMyA2LjQ5OCAxLjA1MiAxLjk1IDIuMjk2IDMuOTkxIDQuMjEzIDUuMjA4LjY0Ni42MiAxLjI3IDEuNTcgMi4xODIgMS43NjR6bS02LjI0Mi02Ljg1NWMuMDc0LS4zMjcuMzk2LjcwOCAwIDB6bTguODM5IDcuODE4Yy40NzktLjIxNy0uNjkxLS4yNzIgMCAwem0xLjE3Ni40MjhjLS4xMjEtLjU5My0uNTM4LjMzMiAwIDB6bTEuNDczLjYxM2MuNy0uNjY3LTEuMDgxLS40MjEgMCAwem0yLjUyNCAxLjQwN2MuNDI2LS42MjgtMS4zNjQtLjIzNiAwIDB6bS00Ljg0Ny0zLjM3OGMxLjA4OC0uNzA1LTEuNDA3LS4wMDkgMCAwem0xLjEwNC41NTFjLS4wMzEtLjM3Mi0uMzkzLjE2NiAwIDB6bTUuNTIxIDMuNDQ2Yy44ODguNTYxIDUuMTg0IDEuMjI3IDIuNDk0LjIyOS0uNDUxLjA5Ni00Ljk4OC0xLjI4Mi0yLjQ5NC0uMjI5em0tOC43NjMtNi44MjdjLS4wODctLjM3Mi0xLjM4LS40MTIgMCAwem0yLjU2OCAxLjQ5OWMuNjctLjQ2Ni0xLjM4OC0uMzYgMCAwem0yLjE2MyAxLjMyNmMuOTYtLjM2My0xLjU1Ny0uMzY0IDAgMHptLTUuNzc5LTMuOTY0YzEuMDQyLjggNC4yMDIuMTA0IDEuNTk1LS40NzYtMS4xODYtLjYzMi0zLjg1OC0xLjA2NC0yLjAzNi4zODFsLjQ0MS4wOTV6bTcuMjQzIDQuNDIxYy40MzUtLjczOS0xLjgyLS40MjIgMCAwem0tMi4yMDEtMS43NDljMi41NDYuNzIxLTIuMTQxLTEuNjExLS42MjgtLjI2NWwuMzM1LjE1MS4yOTMuMTE0em00LjQxNCAyLjU1YzIuNDExLjAyNC0yLjE3OS0uMzMyIDAgMHptLTEwLjM4NC02LjYxN2MtLjA5NC0uNDQ5LS41OTQuMDM3IDAgMHptMTQuNDYyIDguOTA2Yy4wNjQtLjgxLS43ODYuNjA0IDAgMHptLTEwLjM0NS02LjM4NWMtLjE0Ny0uNDI4LS43NTQtLjAxOSAwIDB6bS0zLjg4Ny0yLjgwMmMxLjM4NC0uMDg1LTEuODk3LS42MDkgMCAwem0tNC42MDYtMi45NzdjLS4xNzMtLjY2NS0xLjUwNi0xLjE5MyAwIDB6bTEyLjA5IDcuNjczYy0uMjUzLS4yOS0uMTIuMDYzIDAgMHptNy41MjQgNC42MTdjLS4wMjMtLjQ0Mi0uNDEuMTY3IDAgMHptLTguMTktNS4zMDVjLjEzNi0uNTcxLTEuMTgxLS4xNzQgMCAwem0tNS42MDYtMy41NTNjMS4wMy0uMTEtMS42NTEtLjY5NyAwIDB6bTkuNDgzIDUuODkxYzEuNjA1LS42MzUtMS41NjUtLjMwOSAwIDB6bS00LjkzMy0zLjM0N2MxLjg1LjIzOC0yLjIwMS0xLjI1OS0uNDA3LS4xMzVsLjQwNy4xMzV6bTYuNDMgMy45NTRjMS43MjgtMS4wMzIgMS4xNTggMi40MTggMi45MzEuMjkxIDEuNzQ4LTEuMjc3LTEuNTEgMS41NzguNjQ0LjIyOCAxLjU1OS0xLjA0MiAzLjg2MS40OTQgNS4zMTUuOTk1IDEuMDQ1LS4wNTEgMi4wNjIuOTA0IDMuMTM1LjMyMiAyLjA2NC0uNTU2LTQuMDM3LS44MjQtMi40MzgtMS44MDktMS44ODguNTQ5LTMuMjgyLS42NTUtNC4yMTItMS44NjUtMi4xMTktLjQ4OS00LjU2Ni0xLjU3My01LjYyNS0zLjQ0OC0uNDMyLS43MDMuNjIyLjEwMS0uMzczLTEuMDUtMS4yNzYtMS4xMzYtMS45MTMtMi40MjYtMi43Ny0zLjgwNS0xLjAyMy0uNTQ1LTEuMTQ0LTIuMTUyLTEuMjQ3LS4wNTQuMDA4LTEuMzI0LTEuMjM2LTIuMjE2LTEuNTQxLTEuODQ3LS4wMDUtMS4yNzYgMS4zMzMtLjYzNi4zOTYtMS41OC0uMjAxLTEuMzIzLS44NjUtMi43LTEuMDY0LTQuMTkzLS4zMDktLjcyMS0uMDQzLTIuMjYyLTEuMDU4LS42MzMtLjM2OSAxLjcyMi0uMTIyLTIuMTE1LjQ1My0uODUxLjc1My0xLjI5Mi0uMjcxLTEuMTM5LS4zMTMtLjk2MS40OTEtMS4wODkuMzExLTIuNjM0LS4xMjktMi4wNDUuMjYxLTEuMTU1LjQxMy00LjI1MS0uMzkxLTMuNzAxLjQ4OC0xLjIwOC45MjYtNS41MjgtMS4xOTMtMy44ODEtLjg1OC4wMTMtMi4zNDUuMzEtMy4wNDYuNjYgMi4yMDEgMS4yMTQtLjIyMi40MzktMS4xMi4yNDUtLjExNiAxLjEyNS0xLjAwNC42NC0yLjExNC42NSAxLjc3Mi4yMTgtLjg2MyAxLjgxMy0xLjg3OCAxLjE5My0xLjMyMS42MyAxLjEzOSAyLjIwNy4wMjYgMi42OTQuMTM3LjczMy0yLjAyMy0uMjY2LTEuODU0IDEuNDMtMS4yODItLjU0MS0uMTc1IDIuMDEyLjQ2NiAxLjE0OCAyLjE4LjU5MSAxLjUzNCAxLjkzNSAxLjU4OSAzLjIxMi0uMzU1Ljc0NS0xLjc1NC0xLjc1LS4zMTItMS42MzQtMS4xMzgtMS44NDktMS4yNTgtLjY2OC0yLjIwNS4xOTEtLjIxOS4wNjEgMi40MTIgMS4yMjIuNzYxIDEuNzk1IDEuNDUyLjIyNSAxLjQ5NSAxLjQ5NSAxLjc5MiAyLjMuODcyLjkxLjY5My0xLjAwNCAxLjczOC4wOS0uNjYyLS45NzYtMy41MDMtMi43NDYtMS4yMTYtMi4xNzgtLjAxMi0uOTgtLjQxNC0xLjc3MS4yODgtMS43NTIuNjk1LTEuMjU2LS43MjggMy4xLjgzNyAxLjUwMy40MzQtLjE5LjU0MS0xLjI1OCAxLjMyLjEwMSAxLjEzIDEuMTEzLjQwOSAxLjkxOS0xLjE4Ny44OTcuMjg1Ljk3MSAyLjEzNCAxLjMxNSAxLjc4NiAyLjgyOS4zNjggMS4zMzMuODg0Ljg0MiAxLjMzMy43NjUuMzUyIDEuMjk0LjU1My4zNDMuNTY5LS4yNzIgMS42MTIuMzQ1IDEuMjM0IDEuMjk4IDEuNzQgMS45NjUgMS4xMTIuNS0xLjU5MS0zLjQuMzE3LTEuMTczIDIuMDA3IDEuODEyLjc1MyAyLjU2Ny0xLjA0OCAyLjI3OCAxLjE0LS4wOTMgMS41MDcgMS41NDEgMi45MzQgMS40ODQgMS4zMDEuNjE4IDIuMTgyIDIuOTk0LS4wNjEgMi4wMDUtLjc3Ny0uNzAyLTMuNTMtMS41NjYtMS4yOC0uMjMyIDIuMDc1Ljk2MSAzLjcyNCAxLjUzNSA1LjcyNiAyLjc0MyAxLjQzMiAxLjAyMSAyLjA1MSAyLjE5MiAyLjU5NCAyLjQyNy0xLjIwNC41NzItMy42MjgtLjQ2MS0xLjgyOC0uNzc3LTEuMTI0LS4yMDMtMi4zODctLjc3My0xLjMxMi42MjcuOTE2Ljc2NCAzLjI0MS42ODUgMy42NTkuNzctLjM1NC43NzctLjk2Ljg0LjAxMy45LTEuMDgzLjU4MS4zNTMuNjcyLjQ1MyAxLjAwM3ptLTIuMjIzLTYuMjc3Yy0uNjYyLS42OTItLjgzNC0xLjk4Ni0uMTE4LS44NjEuMzY3LjE0OCAxLjE3NSAyLjExNi4xMTguODYxem03LjIzOSA0LjU5N2MuNDEzLS4wMjcuMDEzLjMxNCAwIDB6bS04LjI4My02LjI5NWMtLjAyNi0xLjA0NS4yMzkuODA3IDAgMHptLS43MTktLjk2NmMtLjgzMy0xLjYwNyAxLjA0OS40NTQgMCAwem0tOC43Mi02LjAxOGMuNDg5LS4xMzEuMjQxLjgzNCAwIDB6bTYuOTQgMy43NmMuMy0xLjEyNy4zNTMuOTQ1IDAgMHptLTQuOTAzLTMuNDA5Yy0uMzQ1LS42MjEuNzIzLjU4NCAwIDB6bTQuMjA3IDEuMzQ5Yy0uNzg4LTEuNzY2LjU2LS45NjUuMTc1LjI4OWwtLjE3NS0uMjg5em0tNy4yNTYtNC44MzljLS4zNTItLjU3OS0uOTM1LTIuMjc4LS43NDYtMi43OTguMTY4Ljg0NiAxLjc5NiAzLjYzNy43OTcgMS4xNTYtMS4xMDMtMi4wNzkgMS4zMTkuNjczIDEuNTY4IDEuMTk0LjExNy41MTYtLjY4MS0uMTQxLS4xNDEgMS4wNjktLjk4NC0xLjM3Ny0uNTguNzYxLTEuNDc4LS42MjF6bS0yLjI0MS0xLjU0NmMuMDkyLTEuMzQ3LjUxMi45MjMgMCAwem0xLjAwOC4zNDljLjQ4MS0xLjAxNy44MTUgMS40MTcgMCAwem0tMi40MjctMS44NzhjLS44MzQtLjgzMS0xLjQzOC0xLjU5NC4wNDEtLjUxNC41NjguMDIxLTEuMjY3LTEuNzQxLjEzNi0uNTYxIDEuNDc1LjI3LjcyOCAyLjQxOS0uMTc3IDEuMDc1em0xLjI3NS0uMDMzYy40ODUtLjQ4MS4yNTcuNDczIDAgMHptLjc4NS4yNTFjLS43MzYtMS4zNzcuODkyLjU3OSAwIDB6bS0xLjU1OS0xLjQ4OWMtMi40MjYtMi4xNjEgMy4wNDkgMS4xMjguMzk2LjRsLS4zOTYtLjR6bTYuOTU0IDQuMDM5Yy0xLjA1MS0uNjI5LS4yOC00LjQzMi4wOC0xLjgzMiAxLjAyLS4zMy0uMDU3IDEuMzQ0LjcwNCAxLjMyOC0uMTIgMS4wNTctLjQ2MSAxLjQzNS0uNzg0LjUwNHptMi41NzIgMS41MjJjLjEwMy0xLjE0Ny4yMTYuNzgyIDAgMHptLS40NDctLjQ0NGMuMTE1LS40ODcuMDExLjU3OCAwIDB6bS04LjYwNC01LjgyN2MtMS41Ni0yLjE1IDQuNTMxIDIuMTc3Ljk5OS41NDYtLjM2OS0uMDk3LS44MTQtLjEzMy0uOTk5LS41NDZ6bTQuOTU0IDIuNjI1Yy0uMTQ4LTEuODExLjMyOC4zIDAgMHptMy43NTkgMi40MTNjLjI5MS0xLjAzMS4wMjMuNjgyIDAgMHptLTguNDczLTUuODU5Yy45MjctLjE5OCAzLjgzOSAxLjYyNiAxLjE2NS41MjEtLjI5Ny0uMzI5LS45MzItLjE4LTEuMTY1LS41MjF6bTcuOTU3IDMuOTY2Yy4wOTktMS44NTMuNTU0LTEuMTA1LjAwNC4yNjVsLS4wMDQtLjI2NXptLTcuMjY4LTQuNjExYy4zNzctLjU1NC0xLjAwMy0yLjUwMy4xOTktLjY5OC41MTkuNDEyIDEuNTAyLjY5LjYzNC44NjMgMS4zNjYgMS4yMDYtLjMzMi4zMjYtLjgzMy0uMTY1em02Ljg3NCA0LjAzM2MuMjYxLTIuMTEuMjMxIDEuMjM1IDAgMHptLTcuNjY0LTUuOTgyYy4yOS0uMTIzLjE1NC4zODUgMCAwem0xLjc5NSAxLjA2N2MuNDYxLS45NjkuODUgMS4wOCAwIDB6bTUuMDU2IDIuODE0Yy0uMDAzLS4zNzMuMDk3LjU0MSAwIDB6bS0uMjkyLS42NDljLS43MDEtMS43MzEuNjUzLjkxNyAwIDB6bS0uNDMxLTEuMTM2Yy0uMTE3LS43MTQuNDAxLjg5OSAwIDB6bS43MDMtMS4xNGMtLjQ4My0uODQ5LjYwNy0zLjc0LjczLTEuOTQ2LS41MDkgMS4zOTYtLjE0NiAyLjE3OS4yMDcuMzA1LjY1NS0xLjQ3Ni0uMTQyIDIuOTEtLjkzNyAxLjY0MXptLjcyLTQuMzAxYy4yMS0uMjU3LjA0Ny4zMTEgMCAwem0tMS4yMDQgMjMuNzI1Yy0uMjg2LS4yNS4wMzYuMTU3IDAgMHptMi40OCAxLjI1M2MxLjM4LjM1NCAxLjM3My0uMjE1LjEyNi0uMzg0LS42Ny0uNjI0LTIuNzg3LTEuMjg2LS44OTItLjA3OC4xMjQuMzE5LjUyLjMxMS43NjYuNDYyem0tNC44OTctMy4yNTNjLjc1OS41NjggMi44NjIgMS42MDUgMS4wODMuMjE2LjYtLjY5Ni0xLjE0OC0xLjA2OC0uNTY5LTEuNTM1LTEuNDc2LS45MDItMS4xNjUtLjgyMS0uMTMtLjc5My0xLjc3My0uNzk0LjI1Ni0uNzMzLjE2MS0xLjE0MS0uNjg0LS4xMzUtMy4zOTctMS4yMDYtMS44MDEuMDg4LTEuNjIyLS44MjYtLjM4Ny4zMDgtLjg3Ny4xODgtMS42Ni0uNDUxIDEuNDc3IDEuMjY0LS4yNjMuODM4Ljk1MS43NTMgMi41NjEgMS45MzMuNDAxLjc5Ny0uMjg0LjQxIDEuNTQ1IDEuMDMgMS45OTUgMS4zNDJ6bTIuNTkzIDEuNDljMy4xNTMgMS4wMTQtMS41NDctMS4yNDIgMCAwem0xMy4yNzggOC4wNDVjLjA0MS0uNjI2LS40My41MzMgMCAwem0xLjM2NS41NzNjLjcyOC0uNzAzLjAzIDEuMTI0IDEuMjA1LS4xNzIuMDEzLS45MjgtLjAzNS0xLjQ3Ny0xLjM1LS4zNS0uMzY0LjIwMy0uNTI1IDEuMDU1LjE0NS41MjJ6TTEyLjU4OSA3MC44OTZjLS4yMjMtLjg3Ni0xLjU2Ny0uODc0IDAgMHptMS40NTYuOTU2Yy0uNTQxLS44OTctMS45My0uODEzIDAgMHptOC4yOTIgNWMuODEuNzIgMy43MTguNTI4Ljk4My4wODktLjQwNC0uNTk5LTIuNTcxLS40NTctLjk4My0uMDg5em0xMS4zOTYgNy4wMzljMS4yNDYtMS4wNDYtMS4yMDcuNDY1IDAgMHptMi41OTIgMS43OGMuMDA4LS4zMzYtLjUzNy4xNDYgMCAwem0uMDA0LS40N2MxLjM3OS0xLjQ2Mi0xLjMzNi4wODYgMCAwek05LjAwNCA2Ny44OTZjLTEuMTc2LTEuNjc3LS43MzEtMi40MzEtMS44NjQtMy44MDEtLjIxNi0xLjA0OC0xLjk0Ni0zLjQyNS0uODk1LS45MDcuOTYyIDEuNDczIDEuMjQ3IDMuNzUzIDIuNzU5IDQuNzA4em0yNi44OTIgMTYuODQxYzIuNTM5LTEuNjQtMS4wNDItLjcxNiAwIDB6bTEuOTM3Ljc1OGMxLjI3Mi0xLjA5Mi0uODA0LS4yMjcgMCAwek0xMi4xNTggNjkuMDQyYy4zNjMtLjU0LS45NC0uMDcgMCAwem0yNS4yNzEgMTUuOTM1YzEuMjMxLS43OTItLjI4NC0uNjcxLS4yMjMuMDcybC4yMjMtLjA3MnpNMjAuNzI4IDc0LjQ1MWMtLjA0Mi0uNTM2LS42NS4wNDUgMCAwem0xLjAzMi41OTNjLS4zMjktLjY2My0uNTA0LjEwNSAwIDB6bTE3LjY0MyAxMC40NjljMS41NzctMS4xMzgtLjk1NS0uMjE3LS4zMy4yMTZsLjMzLS4yMTZ6bS0uNjA0LS4yOTFjMS4yODUtMS4wNzctMS4zNTUuNDc2IDAgMHptMy4wODYgMi4wNTRjLjg2My0uNTc4LTEuMDQ5LS4xODcgMCAwek0xMi45NDggNjguNjUyYzEuMTU1LjI1OSA0LjYxOSAyLjg0NyAyLjU3Ni4xOC0xLjA0Ny0uMzEtLjQxOS0yLjg2OC0xLjQ4Ny0yLjQxNi43MTcgMS4xOTguNTg5IDEuNzA2LS45MTUuOTUyLTEuODktLjkyNC0xLjA2My40NTctLjY5Mi44MzctLjUwNC4xMTQuNjY2LjQzOS41MTguNDQ3em0tNS4yNjUtNC4xNThjLjIwNy0uODU3LTEuOTA2LTQuNzA4LS45OTgtMS45MzEuMzI3LjU4Mi4yOTQgMS42ODQuOTk4IDEuOTMxem05LjY2NSA1Ljk1OWMtLjU5Ny0uNDk4LS4wMjktLjA3MiAwIDB6bTEuNDY1LjM0MWMwLS45MDYtMS42Mi0uMzY5IDAgMHpNMzEuNTE1IDc4LjhjLS4yNDMtLjYxOC0uOTU3LS4wMTQgMCAwem0uNjEuNDQ1Yy0uMDkxLS4zNDctLjM1Mi4wNjggMCAwem01LjAzNCAzLjE3MmMuNDg0LS4zNTYtLjYwNC0uMDQ2IDAgMHpNMTAuMzEyIDY1LjE2NWMxLjM4NS0uNTM2LTEuNDg1LS4zODIgMCAwem0yMC4wODQgMTIuNjUyYy0uMDE1LS44OTUtLjg4My4yMjQgMCAwek05Ljc2NSA2My44OWMuODg5LS4zMDEtLjgyNC0uMTk4IDAgMHptMi41ODEgMS4yNWMtLjAxNC0uMjk0LS4yNzIuMTEzIDAgMHptMzEuNDk2IDE5LjMxM2MxLjE0NC0uMjI5IDMuNzUxLjU4MiA0LjE3Mi0uMzAzLTEuMzktLjAzNC00LjgwNi0uOTc5LTQuOTY3LjIyNWwuMzA0LjA0OC40OTEuMDN6TTEzLjE2NyA2NS4zNDhjLjAyMS0uOTEtLjcwOC0uMDM1IDAgMHptLTYuNzg4LTQuNzFjLS4zMDgtMS43MzEtMS4xNzMtLjI2MyAwIDB6bTEuNjE4LjQwNmMuMDIxLS41NTYtMS40ODEtLjUgMCAwem0uOTI2LjQ1NWMtLjI2OC0uMjE2LS4yMDkuMjczIDAgMHptNS44MjEgMy43MzRjLjI3NS0uMjUzLS42NDktLjE4NiAwIDB6bS02LjQzNi00Ljc1OWMtLjE1OC0xLjMwNy0xLjg3Ny0uMTk1IDAgMHptLTMuMzIyLTIuMTUzYy0uMDQ2LS42MDQtLjMyMi4yMjcgMCAwem0uNDk1LS4zNzNjLS4wOC0uNzE3LS40MjQuMDkgMCAwem0yLjcyNyAxLjYyN2MxLjE1NC0uNDUyLTIuMS0uOTM3LS4yMzYtLjA4NWwuMjM2LjA4NXptMzYuNTA5IDIyLjU1MmMuNzM5LS42NzctLjkzNy0uMjA5IDAgMHptNC40MTEgMi4yODVjLjI5Ni0uODcyLS43NDYuMTE2IDAgMHpNOC40ODggNTguMTQ3Yy4xMjEtLjg0OC0uOTE2LjE2NyAwIDB6bS0zLjg4Mi0yLjYwMWMtLjIwOC0xLjE5NS0uMTc5LTMuMjkyIDEuODE0LTIuNTg0LTIuNjYxLjUyOSAxLjg0MyAzLjMwOSAxLjI3NSAxLjExMyAxLjExOS4wNTYgMi4xODgtLjY2MSAxLjYwMi40MjUgMi4yMDUtLjI0MiAzLjczMy0yLjE1NSA1Ljg2NC0xLjg4NyAxLjY1OS0uMjIgMy40NzQtLjM4NyA1LjI2MS0xLjA1NSAxLjQ3MS0uMTA1IDIuODg3LTEuNjg4IDIuMDgxLTIuNjI2LTIuMDA1LS4xNy00LjEwNC4wODItNi4zMi41MjItMi40NTUuNTEtNC42ODYgMS40NzktNy4xNjQgMS44OTYtMi40MTYuMzI1LjQ4NS44OTUtLjIwOCAxLjAyMS0xLjI1OS40MzggMS41MDQuNzMyLS4xNjMgMS4xOTMtMS4wMjktLjE5Ni0yLjEwMS0uNTQ5LTEuNjYxLTEuNjM0LTIuMzEzLjMwMS00LjM0NyAxLjI2LTIuNTE5IDMuNjE0bC4xMzguMDAyem01LjU3Ni0yLjgzOWMuNTQyLTEuOTk4IDIuOTA1IDEuNjQ0Ljg4OC4yNjUtLjI0LS4xODEtLjYzNy0uMzI4LS44ODgtLjI2NXptLjEwNS0uOTdjLjc4My0uNTgyLjQxNS4zMjggMCAwem0uOTkzLjAxN2MuMDcyLS45MTkgMi4yNzcuNDg3LjM2NC4zMzFsLS4zNjQtLjMzMXptMS4zNi0uNTQ2Yy40OTctLjU4Mi4xNDQuNTE0IDAgMHptLjM0OC0uMjMzYy44MjctLjk5NCA0LjY4MS0uNjM2IDEuODYtLjA5OC0uNzU2LS41NjktMS4zMzUuMzM2LTEuODYuMDk4em01LjAzMi0uNzc2Yy0uMTI1LTIuNzE1IDIuNS45NjMgMCAwem0xLjQyOC0uMDFjLjUyMS0xLjM2NSAyLjAyNi0uNTQ4LjI0Mi0uMjc0LjAzOC4xNDctLjA1My43MDgtLjI0Mi4yNzR6TTcuOTI1IDU3LjQ0NWMxLjU1OS0uOTU1LTEuNjU1LS44MyAwIDB6bTEuMTUzLjMxOWMuNTQ3LS41ODEtMS4xODktLjIzNSAwIDB6bS0zLjM5OC0yLjQxYy44OTEtLjY4Ni0xLjA1NS0uMjYxIDAgMHptNDYuMDUxIDI4LjgwOWMuMDI3LS43OTUtLjY4MS4zNTcgMCAwem0tNC42NzktMy4xOTNjLjEzNC0uOTE0LS42MDIuMDc5IDAgMHptNS45NjYgMy41MDFjMS4yNDYuMDA2IDMuNzc1LS4zODcgMS4wNjQtLjM4Ni0uNDI2LjA2NS0yLjQ3OC4wNTMtMS4wNjQuMzg2ek0xMC4wOTIgNTcuMjA0YzEuMDA5LS4wNjggMS41NzgtMS4xMTItLjE5Ni0xLjA1My0yLjc0Ny0uMjgyIDIuNDI0Ljk0Mi0uMzUzLjU5Mi0uMzcxLjI0Ni41MjguNTI5LjU0OS40NjF6bS44ODguNDQ5Yy0uMTA1LS42NDYtLjMxMi4zNDQgMCAwem0xLjA1NC0yLjgwOWMuNDM3LS41NDItLjYwNi0uMTQ1IDAgMHpNOC42OCA0OS4yMzljMS44LS42MTEgNC4yNjItMS4zIDUuMTExLjMwMS0uODY1LTEuMDQtLjM1LTIuMDY1LjQ2OC0uNTQzIDEuMTU1IDEuNTM5IDEuNzMyLS43Ljk4Mi0xLjIxNy44NTYgMS4wNjMgMS44MjkgMS41NjcuNTczLjA2NyAxLjM2Ni0xLjY0Mi0yLjczNC4yMTYtMy42NjUuMTk3LS40NDkuMi00LjYyOSAxLjA2NS0zLjQ2OSAxLjE5NXptMS4wNTUtMi4wMmMxLjAyNS0uNzc1IDMuNTUuNDYxIDEuOTMtLjc3MS0uMTU5LS4xMzktMy41NDUuOTM1LTEuOTMuNzcxem0zLjc0My4xNTVjMS4yLjAzLS41MTktMS42MTUuOTEyLS44Ny0uMjM0LS43NjctMS42NjYtLjkxLTIuMzY2LTEuMjE4LS4zOTcuNzAzLjgwNSAyLjA5NyAxLjQ1NCAyLjA4OHptLTMuMDg3LTMuMzk3Yy40MTYtLjU2NC0uNzI4LjI4NiAwIDB6bTEuNTMuMzY1YzEuOTM2LS4yNTYtLjQ5NC0uODMzLS4zOTEtLjAybC4zOTEuMDJ6bS0yLjg1Ni0yLjIzM2MtMS4zNjQtMS43ODEgMi41NjQuMjk5IDEuMTc4LTEuNTY1LTEuMTY2LS45MjgtMi4yODUgMS4wNDctMS4xNzggMS41NjV6bTE3LjQ5MSA5LjQyMWMuNjI1LTEuMTA4LTIuNTgtMS40OTQtLjQyLS4zOTIuMTk3LjA2NS4xNTMuNDY3LjQyLjM5MnptMCAwIi8+PHBhdGggZD0iTTU2LjA2MyA0My44ODZjLS4yMjMuODgzLS4zNjIgMi4zNjItLjQxNCA0LjQ0IDAgLjQwOS0uMTg0LjYxMy0uNTUzLjYxMy0uMzY4IDAtLjYyNS0uMTc4LS43NjktLjUzMy0uMzk1LS45NjEtLjc3LTEuNjMtMS4xMjUtMi4wMTMtLjQyLS40NDctLjk4LS43MTctMS42NzctLjgwOS0uNzUtLjExOC0yLjYxNy0uMTc4LTUuNjA0LS4xNzgtLjY4MyAwLTEuMTMyLjA3My0xLjM0MS4yMTctLjEzMi4wOTItLjE5Ny4yOS0uMTk3LjU5NHY4LjkzOGMwIC4zMDQuMTkuNDQ3LjU3MS40MzUgMS4xNzEtLjAxNCAyLjg2OC0uMDk0IDUuMDktLjIzOC40MzQtLjA1Mi43MjctLjE5NS44NzgtLjQyNC4xNTItLjIyOS4zLS44MjUuNDQ0LTEuNzg2LjA5Mi0uNTI2LjQwMS0uNzMuOTI3LS42MTEuNDQ4LjA5Mi42NC4yOTYuNTczLjYxMS0uMzY5IDEuNzktLjQ4OCA0LjExOC0uMzU2IDYuOTg2LjAxNC4zNDItLjIwMy41MjYtLjY1LjU1Mi0uMzY5LjA0LS41OTktLjE1OC0uNjkxLS41OTItLjM0MS0xLjY0NC0uOTc3LTIuNTIxLTEuOTAzLTIuNjM1LS45MjgtLjExLTIuNDM3LS4xNjYtNC41MjgtLjE2Ni0uMjM3IDAtLjM1NC4wODMtLjM1NC4yNTV2OC44ODJjMCAuNjU2LjI0MiAxLjEwNC43MjkgMS4zNDEuMzgzLjE5NiAxLjIwNC4zNzQgMi40NjcuNTMyLjY0Ni4wNjQuOTI3LjM1Ljg0OS44NDgtLjA4LjQzNS0uNjU4LjYwNS0xLjczNy41MTMtMy4xMTgtLjI0OS01LjY4OS0uMjM1LTcuNzE0LjA0MS0uNTY2LjA3Ny0uODQ4LS4xNTEtLjg0OC0uNjkgMC0uMzQyLjI4Mi0uNTM5Ljg0OC0uNTkyIDEuMjg5LS4xNDYgMS45MzMtMS4yNzcgMS45MzMtMy4zOTVWNDguMTI3YzAtLjg2Ni0uMTU0LTEuNTM0LS40NjMtMi0uMzEtLjQ2OC0uODg1LS44OTQtMS43MjctMS4yNzQtLjUyNi0uMjM3LS43MjItLjU2LS41OTEtLjk2OC4wNjUtLjI1LjE3MS0uMzg4LjMxNS0uNDE0LjEzMS0uMDQuNDgxLS4wMTMgMS4wNDUuMDc5LjgyOS4xMzIgMi43ODMuMTk4IDUuODYuMTk4IDMuNjMyIDAgNi43NjgtLjA4IDkuNDEzLS4yMzcuODgxLS4wNTMgMS4zMjIuMDE5IDEuMzIyLjIxNmEuNjkzLjY5MyAwIDAxLS4wMjIuMTU5em0wIDBNNjguODg5IDY4Ljk2N2MwIC41MjUtLjI5Ny43NTctLjg4OS42ODgtMS44MTMtLjE2OS00LjA2NC0uMTQ1LTYuNzQ3LjA3OS0uNTQuMDU0LS44NzEuMDM5LS45OTgtLjAzOC0uMTI1LS4wNzktLjE4Ny0uMjk2LS4xODctLjY1MyAwLS4zMTQuMzU4LS41OCAxLjA3NS0uNzk3LjcxOC0uMjE3IDEuMDc2LS44NjYgMS4wNzYtMS45NDRWNDguNDQ1YzAtMS4wNjctLjE1NS0xLjg0OS0uNDYzLTIuMzQ5LS4zMS0uNS0uODUyLS44ODgtMS42MjgtMS4xNjMtLjQwOC0uMTQ1LS42MTItLjM0OS0uNjEyLS42MTMgMC0uMzk0LjI5Ni0uNjkuODg3LS44ODcuODk2LS4yOSAxLjgyMy0uNzM1IDIuNzg0LTEuMzQyLjc4OS0uNDc0IDEuMjg5LS43MDggMS40OTktLjcwOC40ODcgMCAuNzMuMzM0LjczIDEuMDA2IDAtLjA1My0uMDI3LjYwNS0uMDc5IDEuOTcyLS4wMzggMS4zMDItLjA1MiAyLjU4NC0uMDM4IDMuODQ4bC4wNzcgMTcuNjE5YzAgLjgwNC4xOTggMS4zODcuNTkzIDEuNzQ4LjM5NS4zNjIgMS4wNzIuNjAyIDIuMDMxLjcyLjU5Mi4wNjMuODg5LjI4OC44ODkuNjcxem0wIDBNODYuODgzIDY3LjY0M2MwIC4yNzgtLjUwMy42OTUtMS41MDggMS4yNTMtMS4wMDcuNTYtMS44MTMuODM5LTIuNDE4LjgzOS0uNTE0IDAtLjk2Ni0uMjQ4LTEuMzYxLS43NS0uMzk1LS40OTktLjY3MS0uNzQ5LS44My0uNzQ5LS4xMTcgMC0uNzQxLjI3MS0xLjg3My44MDgtMS4xMy41NDEtMi4yNy44MTItMy40MTMuODEyLTEuMDc4IDAtMS45OC0uMzE3LTIuNzA0LS45NDctLjc4OC0uNjk3LTEuMTg0LTEuNjQ2LTEuMTg0LTIuODQzIDAtMi4yNzUgMi42MDQtMy45MDYgNy44MTQtNC44OTMuODk0LS4xNzEgMS4zNDgtLjUzMyAxLjM1OS0xLjA4NmwuMDQyLTEuMjYzYy4wNzctMi4xNTctLjg3Ni0zLjIzNS0yLjg2Mi0zLjIzNS0uNTY1IDAtMS4xMDMuNTA0LTEuNjA5IDEuNTE4LS41MDUgMS4wMTMtMS4yMzIgMS41NTktMi4xNzkgMS42MzktMS4wNzguMTA0LTEuNjE5LS4zNS0xLjYxOS0xLjM2MiAwLS42MzIuODA0LTEuMzY4IDIuNDA4LTIuMjExIDEuNjgzLS44OCAzLjMwMy0xLjMyMSA0Ljg1NC0xLjMyMSAyLjY3IDAgMy45OTMgMS4yNyAzLjk2NiAzLjgwOWwtLjA4IDguMTI4Yy0uMDExLjg1NS4zNTEgMS4yODMgMS4wODcgMS4yODMuMTQ1IDAgLjQyMS0uMDMzLjgyOC0uMDk5YTguMjUgOC4yNSAwIDAxLjcxMS0uMDk5Yy4zODEgMCAuNTcxLjI1OC41NzEuNzY5em0tNi4wNzUtNC40OThjLjAxMi0uMzI5LS4wNjQtLjU0Ny0uMjI5LS42NTEtLjE2My0uMTA1LS40MjMtLjEyNS0uNzc4LS4wNi0zLjE3MS41NjYtNC43NTUgMS41OTktNC43NTUgMy4wOTcgMCAxLjUxMy44MjIgMi4yNyAyLjQ2NiAyLjI3LjY1OCAwIDEuMzM2LS4xMjQgMi4wMzItLjM3My44MTYtLjI5MSAxLjIyMy0uNjQgMS4yMjMtMS4wNDdsLjA0MS0zLjIzNnptMCAwTTEwMS42MDQgNjUuMjk0YzAgMS4zOTYtLjUzNyAyLjUwNC0xLjYwOCAzLjMyNi0xLjA3MS44MjMtMi41MzUgMS4yMzQtNC4zOTIgMS4yMzQtMS4yMzQgMC0yLjQ3My0uMTMxLTMuNzA5LS4zOTYtMS4wNjUtLjIzNy0xLjY4NC0uNDUzLTEuODU0LS42NS0uMTA2LS4xODYtLjE1OC0xLjA4NS0uMTU4LTIuNzAzIDAtLjY5OS4xNTgtMS4wNi40NzYtMS4wODYuMzEzLS4wNC41ODMuMTMxLjgwOC41MTIuOTg2IDEuNzI0IDIuNTc4IDIuNTg3IDQuNzc0IDIuNTg3IDEuODU0IDAgMi43ODEtLjY0NiAyLjc4MS0xLjkzNSAwLS41NjQtLjIwOC0xLjAzOS0uNjMxLTEuNDItLjQ2MS0uNDM1LTEuMzU0LS45NDItMi42ODMtMS41Mi0xLjkyMS0uODU1LTMuMjA0LTEuNjA1LTMuODQ4LTIuMjUtLjY5Ny0uNjg0LTEuMDQ3LTEuNjA0LTEuMDQ3LTIuNzYzIDAtMS40Mi41NDYtMi41MjUgMS42MzktMy4zMTQgMS4wMTQtLjc2MiAyLjM2Ny0xLjE0NCA0LjA2My0xLjE0NCAxLjA2NiAwIDIuMDQuMDg1IDIuOTIxLjI1Ni45NDguMTcyIDEuNDQxLjM4MiAxLjQ4MS42MzIuMTA0LjczNi4zMjIgMS44MDIuNjQ5IDMuMTk4LjA0MS4xNy0uMTQ1LjMwOC0uNTUyLjQxMy0uNDM1LjA5Mi0uNzIzLjAxOS0uODY3LS4yMTYtMS4wNDEtMS42OTgtMi4zNTQtMi41NDctMy45NDctMi41NDctMS44MDIgMC0yLjcwNC41NzktMi43MDQgMS43MzcgMCAuNjQ2LjI0NSAxLjE1Ny43MyAxLjUzOC40MzUuMzI5IDEuNDU0Ljg0MiAzLjA1OSAxLjU0IDEuNjg0LjcyMyAyLjgyOCAxLjM3NSAzLjQzMyAxLjk1My43OTMuNzUgMS4xODYgMS43NTcgMS4xODYgMy4wMTh6bTAgME0xMjQuNDkzIDY4Ljg0N2MwIC40NjEtLjMxLjcwNS0uOTI4LjczLS45MjIuMDE0LTIuMTI1LjA3OC0zLjYxMS4xOTYtLjczNi4xNDYtMS4yNjMuMDU1LTEuNTc5LS4yNzQtMi4wNzgtMi4yMzctMy44NDEtNC41NzgtNS4yODgtNy4wMjUtLjExNy0uMjEtLjI3LS4zMTUtLjQ1My0uMzE1LS4yMjUgMC0uNjEyLjE5OC0xLjE2My41OTItLjYyLjM0MS0uOTI5LjgyOC0uOTI5IDEuNDU4IDAgLjQ0OS4wMTMgMS4wOTMuMDM5IDEuOTM2LjAyNi44NDEuMjM2IDEuMzk0LjYzMiAxLjY1Ni4yNzYuMTg2LjkxNC4zMyAxLjkxMy40MzUuNjE4LjA3OS45MjguMzEuOTI4LjY5IDAgLjMwNC0uMDUuNDkxLS4xNDcuNTYzLS4wOTguMDczLS4zNTkuMDg5LS43OC4wNDktMS4zMTUtLjExNy0zLjUzNy0uMDUxLTYuNjcuMTk3LS43ODguMDY1LTEuMjE2LS4wMzItMS4yOC0uMjk2YTEuNDcgMS40NyAwIDAxLS4wNDEtLjM5NmMwLS40MDYuNDAxLS43MTYgMS4yMDQtLjkyNS43MjUtLjE4NiAxLjA4NS0xLjAzMyAxLjA4NS0yLjU0NlY0OC4zMjZjMC0xLjA3OC0uMTA0LTEuODI4LS4zMTQtMi4yNDgtLjI4OS0uNTQxLS44OTYtLjk2Mi0xLjgxNi0xLjI2NS0uNDM0LS4xNDQtLjY1LS4zNDctLjY1LS42MTEgMC0uMzgyLjMxLS42NzguOTI3LS44ODdhMTIuMzYgMTIuMzYgMCAwMDIuODItMS4zNjJjLjcyNS0uNDc0IDEuMTcyLS43MTEgMS4zNDMtLjcxMS41MzkgMCAuODEuMzQyLjgxIDEuMDI3IDAtLjA5My0uMDA2LjU1OS0uMDIxIDEuOTUyLS4wMTMuOTYxLS4wMiAyLjI1LS4wMiAzLjg2OWwuMDQgMTIuMzVjMCAuMzQ0LjA5My41MTQuMjc1LjUxNC4xOTYgMCAuNS0uMTcuOTA4LS41MTRhMTAzLjU5IDEwMy41OSAwIDAwNC4wMjQtMy4zNTRjLjMxNy0uMzI5LjQ3NC0uNTkxLjQ3NC0uNzg5IDAtLjM1NS0uNTMyLS42MDUtMS41OTctLjc1LS40Ni0uMDU0LS42OC0uMzEtLjY1My0uNzcxLjA0MS0uNDU5LjI3MS0uNjU3LjY5Mi0uNTkxLjk0Ny4xMzIgMi4zMjkuMjA0IDQuMTQzLjIxNyAxLjI2NC4wMTIgMi41Mi4wMiAzLjc3LjAyLjQwNy4wMTQuNjExLjI1Ni42MTEuNzMgMCAuNDQ3LS4zMjIuNjktLjk2Ni43M2E3LjI1NSA3LjI1NSAwIDAwLTIuODYxLjY5Yy0xLjI1MS41NjYtMi41ODYgMS41NTktNC4wMDcgMi45NzlhLjM1OC4zNTggMCAwMC0uMTU3LjI5NWMwIC4xODUuMjIzLjYyNS42NzEgMS4zMjMgMS42NDUgMi41IDMuMTk3IDQuMzg3IDQuNjU2IDUuNjYzLjkzNS44MDIgMS44MDkgMS4yMDMgMi42MjUgMS4yMDMuNjA0IDAgLjk4LjA0MyAxLjEyNC4xMjkuMTQ0LjA4OC4yMTcuMzE1LjIxNy42ODN6bTAgMCIvPjwvc3ZnPg==;" parent="1" vertex="1">
                    <mxGeometry x="440" y="60" width="128" height="128" as="geometry"/>
                </mxCell>
                <mxCell id="eYw1XoZOmiX6JKDAJUh6-7" value="" style="shape=image;verticalLabelPosition=bottom;labelBackgroundColor=default;verticalAlign=top;aspect=fixed;imageAspect=0;image=data:image/svg+xml,PHN2ZyB4bWxucz0iaHR0cDovL3d3dy53My5vcmcvMjAwMC9zdmciIHZpZXdCb3g9IjAgMCAxMjggMTI4Ij48ZyBmaWxsPSIjNjFEQUZCIj48Y2lyY2xlIHI9IjkuMyIgY3k9IjQ3LjUiIGN4PSI2NCIvPjxwYXRoIGQ9Ik02NCA4MS43QzcxLjMgODguOCA3OC41IDkzIDg0LjMgOTNjMS45IDAgMy43LS40IDUuMi0xLjMgNS4yLTMgNy4xLTEwLjUgNS4zLTIxLjItLjMtMS45LS43LTMuOC0xLjItNS44IDItLjYgMy44LTEuMiA1LjYtMS44IDEwLjEtMy45IDE1LjctOS4zIDE1LjctMTUuMiAwLTYtNS42LTExLjQtMTUuNy0xNS4yLTEuOC0uNy0zLjYtMS4zLTUuNi0xLjguNS0yIC45LTMuOSAxLjItNS44IDEuNy0xMC45LS4yLTE4LjUtNS40LTIxLjUtMS41LS45LTMuMy0xLjMtNS4yLTEuMy01LjcgMC0xMyA0LjItMjAuMyAxMS4zQzU2LjcgNi4zIDQ5LjUgMi4xIDQzLjcgMi4xYy0xLjkgMC0zLjcuNC01LjIgMS4zLTUuMiAzLTcuMSAxMC41LTUuMyAyMS4yLjMgMS45LjcgMy44IDEuMiA1LjgtMiAuNi0zLjggMS4yLTUuNiAxLjgtMTAuMSAzLjktMTUuNyA5LjMtMTUuNyAxNS4yIDAgNiA1LjYgMTEuNCAxNS43IDE1LjIgMS44LjcgMy42IDEuMyA1LjYgMS44LS41IDItLjkgMy45LTEuMiA1LjgtMS43IDEwLjcuMiAxOC4zIDUuMyAyMS4yIDEuNS45IDMuMyAxLjMgNS4yIDEuMyA1LjguMiAxMy00IDIwLjMtMTF6bS01LjYtMTMuNWMxLjguMSAzLjcuMSA1LjYuMSAxLjkgMCAzLjggMCA1LjYtLjEtMS44IDIuNC0zLjcgNC42LTUuNiA2LjctMS45LTIuMS0zLjgtNC4zLTUuNi02Ljd6TTQ2IDU3LjljMSAxLjcgMS45IDMuMyAzIDQuOS0zLjEtLjQtNi0uOS04LjgtMS41LjktMi43IDEuOS01LjUgMy4xLTguMy44IDEuNiAxLjcgMy4zIDIuNyA0Ljl6bS01LjgtMjQuMWMyLjgtLjYgNS43LTEuMSA4LjgtMS41LTEgMS42LTIgMy4yLTMgNC45LTEgMS43LTEuOSAzLjMtMi43IDUtMS4zLTIuOS0yLjMtNS43LTMuMS04LjR6bTUuNSAxMy43YzEuMy0yLjcgMi43LTUuNCA0LjMtOC4xIDEuNS0yLjYgMy4yLTUuMiA0LjktNy44IDMtLjIgNi0uMyA5LjEtLjMgMy4yIDAgNi4yLjEgOS4xLjMgMS44IDIuNiAzLjQgNS4yIDQuOSA3LjggMS42IDIuNyAzIDUuNCA0LjMgOC4xLTEuMyAyLjctMi43IDUuNC00LjMgOC4xLTEuNSAyLjYtMy4yIDUuMi00LjkgNy44LTMgLjItNiAuMy05LjEuMy0zLjIgMC02LjItLjEtOS4xLS4zLTEuOC0yLjYtMy40LTUuMi00LjktNy44LTEuNi0yLjctMy01LjQtNC4zLTguMXptMzkuMS01LjRsLTIuNy01Yy0xLTEuNy0xLjktMy4zLTMtNC45IDMuMS40IDYgLjkgOC44IDEuNS0uOSAyLjgtMS45IDUuNi0zLjEgOC40em0wIDEwLjhjMS4yIDIuOCAyLjIgNS42IDMuMSA4LjMtMi44LjYtNS43IDEuMS04LjggMS41IDEtMS42IDItMy4yIDMtNC45LjktMS41IDEuOC0zLjIgMi43LTQuOXptMi4zIDM0LjdjLS44LjUtMS44LjctMi45LjctNC45IDAtMTEtNC0xNy0xMCAyLjktMy4xIDUuNy02LjYgOC41LTEwLjUgNC43LS40IDkuMi0xLjEgMTMuNC0yLjEuNSAxLjguOCAzLjYgMS4xIDUuNCAxLjQgOC41LjMgMTQuNi0zLjEgMTYuNXptNS4yLTUyLjdjMTEuMiAzLjIgMTcuOSA4LjEgMTcuOSAxMi42IDAgMy45LTQuNiA3LjgtMTIuNyAxMC45LTEuNi42LTMuNCAxLjItNS4yIDEuNy0xLjMtNC4xLTIuOS04LjMtNC45LTEyLjYgMi00LjMgMy43LTguNSA0LjktMTIuNnptLTgtMjguMmMxLjEgMCAyIC4yIDIuOS43IDMuMyAxLjkgNC41IDcuOSAzLjEgMTYuNS0uMyAxLjctLjcgMy41LTEuMSA1LjQtNC4yLS45LTguNy0xLjYtMTMuNC0yLjEtMi43LTMuOS01LjYtNy40LTguNS0xMC41IDYtNS45IDEyLjEtMTAgMTctMTB6TTY5LjYgMjYuOGMtMS44LS4xLTMuNy0uMS01LjYtLjFzLTMuOCAwLTUuNi4xYzEuOC0yLjQgMy43LTQuNiA1LjYtNi43IDEuOSAyLjEgMy44IDQuNCA1LjYgNi43ek00MC45IDcuNGMuOC0uNSAxLjgtLjcgMi45LS43IDQuOSAwIDExIDQgMTcgMTAtMi45IDMuMS01LjcgNi42LTguNSAxMC41LTQuNy40LTkuMiAxLjEtMTMuNCAyLjEtLjUtMS44LS44LTMuNi0xLjEtNS40LTEuNC04LjUtLjMtMTQuNSAzLjEtMTYuNXptLTUuMiA1Mi43QzI0LjUgNTYuOSAxNy44IDUyIDE3LjggNDcuNWMwLTMuOSA0LjYtNy44IDEyLjctMTAuOSAxLjYtLjYgMy40LTEuMiA1LjItMS43IDEuMyA0LjEgMi45IDguMyA0LjkgMTIuNi0yIDQuMy0zLjcgOC42LTQuOSAxMi42em0yLjEgMTFjLjMtMS43LjctMy41IDEuMS01LjQgNC4yLjkgOC43IDEuNiAxMy40IDIuMSAyLjcgMy45IDUuNiA3LjQgOC41IDEwLjUtNiA1LjktMTIuMSAxMC0xNyAxMC0xLjEgMC0yLS4yLTIuOS0uNy0zLjQtMS45LTQuNS04LTMuMS0xNi41em0tNC4yIDQxLjJjMi4yLTIuNyAyLjMtNS43IDEuMS04LjctMS4yLTMtMy43LTQuNC02LjgtNC41LTMuNy0uMS03LjUgMC0xMS4yIDBIMTZWMTI1aDN2LTkuOGg0LjdjLjYgMCAxLjEuMiAxLjQuN2w2IDkuM2MuMS4yLjQuNS42LjVoMy45Yy0yLjQtMy43LTQuNy03LjItNy4xLTEwLjggMi4xLS4zIDMuOS0xIDUuMS0yLjZ6bS0xNC42LS4ydi05LjloMS4xYzIuMyAwIDQuNy0uMSA3IC4xIDIuNy4xIDQuNiAyLjIgNC42IDQuOXMtMi4yIDQuOC00LjkgNC45Yy0yLjQuMS00LjggMC03LjggMHptMzguNyAxLjNjLTEuNi03LTgtOC44LTEyLjktNi42LTMuOCAxLjctNS41IDUtNS42IDkuMS0uMSAzLjEuOCA1LjkgMy4yIDggMi43IDIuNCA2IDIuNyA5LjQgMi4xIDEuOS0uNCAzLjYtMS4zIDQuOS0yLjctLjUtLjctMS0xLjQtMS41LTItMi44IDIuNC01LjkgMy4yLTkuMyAxLjYtMi4yLTEuMS0zLjMtMy44LTMuNS01LjhoMTUuNXYtMS4zYy4xLS45IDAtMS43LS4yLTIuNHpNNDIuNiAxMTVjLS4zLTMgMi43LTYuMiA2LTYuMiAzLjgtLjEgNi4yIDIuMiA2LjMgNi4ySDQyLjZ6bTMwLjctOC43Yy0xLjUtLjMtMy4xLS40LTQuNi0uMy0yLjQuMi00LjUgMS4zLTYuMiAzLjEuNS43LjkgMS40IDEuNSAyLjIuMi0uMi40LS40LjYtLjUgMS42LTEuNSAzLjUtMi4zIDUuOC0yLjEgMS44LjEgMy41LjcgNCAyLjUuNCAxLjQuMyAyLjkuNCA0LjQtLjMgMC0uNC0uMS0uNS0uMi0yLjQtMi01LjEtMi40LTgtMS43LTIuNy43LTQuNCAyLjgtNC42IDUuNS0uMiAzLjEgMS4yIDUuNCAzLjkgNi41IDEuNy43IDMuNi43IDUuNC4zIDEuNC0uMyAyLTEuMSA0LTIuMnYxLjNoMi44YzAtNCAuMS04LjkgMC0xMy41IDAtMi45LTEuNy00LjctNC41LTUuM3ptMS40IDEyLjZjLS4xLjMgMCAuNiAwIC45IDAgMi4xLS41IDIuOC0yLjUgMy42LTEuNC41LTIuOS43LTQuNC4yLTEuNy0uNS0yLjktMi0yLjktMy43LS4xLTEuNyAxLTMuNCAyLjctMy45IDIuMy0uOCA0LjQtLjMgNi4zIDEuMS42LjUgMSAxIC44IDEuOHptMTUuNi05LjljMi42LS44IDUtLjMgNi44IDEuOWwuMy4yYy43LS42IDEuMy0xLjIgMi4xLTEuOS0uMy0uMy0uNC0uNS0uNi0uOC0yLjktMy4xLTguNi0zLjUtMTIuMS0xLTQuOSAzLjYtNC44IDEwLjYtMi40IDE0LjMgMi4zIDMuNSA1LjYgNC43IDkuNSA0LjIgMi4zLS4zIDQuMi0xLjQgNS43LTMuMy0uNy0uNi0xLjQtMS4yLTIuMS0xLjktLjIuMi0uMy4zLS40LjUtMi43IDMtNy4yIDIuNy05LjYtLjUtMS40LTEuOS0xLjctNC4xLTEuMy02LjMuMi0yLjUgMS41LTQuNSA0LjEtNS40em0yMC44IDEzLjZjLS4yLjEtLjMuMi0uMy4yLS44LjYtMS42LjctMi41LjQtLjktLjQtMS0xLjItMS4xLTJ2LTExLjRjMC0uMiAwIC4yLjEtLjhoMy44di0zaC00di01aC0zdjUuNGgtMi42Yy0uMiAwLS41LjItLjUuNC0uMS43IDAgMS4yIDAgMi4yaDMuMnYxMi44YzAgMS42LjQgMyAxLjggMy44IDEuNS45IDQuNC43IDUuNy0uNC4yLS4xLjMtLjUuMy0uNi0uMy0uNi0uNi0xLjMtLjktMnoiLz48L2c+PC9zdmc+;" parent="1" vertex="1">
                    <mxGeometry x="20" y="85" width="128" height="128" as="geometry"/>
                </mxCell>
                <mxCell id="eYw1XoZOmiX6JKDAJUh6-8" value="input" style="shape=table;startSize=30;container=1;collapsible=1;childLayout=tableLayout;fixedRows=1;rowLines=0;fontStyle=1;align=center;resizeLast=1;" parent="1" vertex="1">
                    <mxGeometry x="937" y="198" width="180" height="140" as="geometry">
                        <mxRectangle x="920" y="208" width="70" height="30" as="alternateBounds"/>
                    </mxGeometry>
                </mxCell>
                <mxCell id="eYw1XoZOmiX6JKDAJUh6-9" value="" style="shape=tableRow;horizontal=0;startSize=0;swimlaneHead=0;swimlaneBody=0;fillColor=none;collapsible=0;dropTarget=0;points=[[0,0.5],[1,0.5]];portConstraint=eastwest;top=0;left=0;right=0;bottom=1;" parent="eYw1XoZOmiX6JKDAJUh6-8" vertex="1">
                    <mxGeometry y="30" width="180" height="30" as="geometry"/>
                </mxCell>
                <mxCell id="eYw1XoZOmiX6JKDAJUh6-10" value="PK" style="shape=partialRectangle;connectable=0;fillColor=none;top=0;left=0;bottom=0;right=0;fontStyle=1;overflow=hidden;" parent="eYw1XoZOmiX6JKDAJUh6-9" vertex="1">
                    <mxGeometry width="30" height="30" as="geometry">
                        <mxRectangle width="30" height="30" as="alternateBounds"/>
                    </mxGeometry>
                </mxCell>
                <mxCell id="eYw1XoZOmiX6JKDAJUh6-11" value="UniqueID" style="shape=partialRectangle;connectable=0;fillColor=none;top=0;left=0;bottom=0;right=0;align=left;spacingLeft=6;fontStyle=5;overflow=hidden;" parent="eYw1XoZOmiX6JKDAJUh6-9" vertex="1">
                    <mxGeometry x="30" width="150" height="30" as="geometry">
                        <mxRectangle width="150" height="30" as="alternateBounds"/>
                    </mxGeometry>
                </mxCell>
                <mxCell id="eYw1XoZOmiX6JKDAJUh6-12" value="" style="shape=tableRow;horizontal=0;startSize=0;swimlaneHead=0;swimlaneBody=0;fillColor=none;collapsible=0;dropTarget=0;points=[[0,0.5],[1,0.5]];portConstraint=eastwest;top=0;left=0;right=0;bottom=0;" parent="eYw1XoZOmiX6JKDAJUh6-8" vertex="1">
                    <mxGeometry y="60" width="180" height="20" as="geometry"/>
                </mxCell>
                <mxCell id="eYw1XoZOmiX6JKDAJUh6-13" value="1" style="shape=partialRectangle;connectable=0;fillColor=none;top=0;left=0;bottom=0;right=0;editable=1;overflow=hidden;" parent="eYw1XoZOmiX6JKDAJUh6-12" vertex="1">
                    <mxGeometry width="30" height="20" as="geometry">
                        <mxRectangle width="30" height="20" as="alternateBounds"/>
                    </mxGeometry>
                </mxCell>
                <mxCell id="eYw1XoZOmiX6JKDAJUh6-14" value="ミノカサゴ" style="shape=partialRectangle;connectable=0;fillColor=none;top=0;left=0;bottom=0;right=0;align=left;spacingLeft=6;overflow=hidden;" parent="eYw1XoZOmiX6JKDAJUh6-12" vertex="1">
                    <mxGeometry x="30" width="150" height="20" as="geometry">
                        <mxRectangle width="150" height="20" as="alternateBounds"/>
                    </mxGeometry>
                </mxCell>
                <mxCell id="eYw1XoZOmiX6JKDAJUh6-15" value="" style="shape=tableRow;horizontal=0;startSize=0;swimlaneHead=0;swimlaneBody=0;fillColor=none;collapsible=0;dropTarget=0;points=[[0,0.5],[1,0.5]];portConstraint=eastwest;top=0;left=0;right=0;bottom=0;" parent="eYw1XoZOmiX6JKDAJUh6-8" vertex="1">
                    <mxGeometry y="80" width="180" height="30" as="geometry"/>
                </mxCell>
                <mxCell id="eYw1XoZOmiX6JKDAJUh6-16" value="2" style="shape=partialRectangle;connectable=0;fillColor=none;top=0;left=0;bottom=0;right=0;editable=1;overflow=hidden;" parent="eYw1XoZOmiX6JKDAJUh6-15" vertex="1">
                    <mxGeometry width="30" height="30" as="geometry">
                        <mxRectangle width="30" height="30" as="alternateBounds"/>
                    </mxGeometry>
                </mxCell>
                <mxCell id="eYw1XoZOmiX6JKDAJUh6-17" value="カエル" style="shape=partialRectangle;connectable=0;fillColor=none;top=0;left=0;bottom=0;right=0;align=left;spacingLeft=6;overflow=hidden;" parent="eYw1XoZOmiX6JKDAJUh6-15" vertex="1">
                    <mxGeometry x="30" width="150" height="30" as="geometry">
                        <mxRectangle width="150" height="30" as="alternateBounds"/>
                    </mxGeometry>
                </mxCell>
                <mxCell id="eYw1XoZOmiX6JKDAJUh6-18" value="" style="shape=tableRow;horizontal=0;startSize=0;swimlaneHead=0;swimlaneBody=0;fillColor=none;collapsible=0;dropTarget=0;points=[[0,0.5],[1,0.5]];portConstraint=eastwest;top=0;left=0;right=0;bottom=0;" parent="eYw1XoZOmiX6JKDAJUh6-8" vertex="1">
                    <mxGeometry y="110" width="180" height="30" as="geometry"/>
                </mxCell>
                <mxCell id="eYw1XoZOmiX6JKDAJUh6-19" value="3" style="shape=partialRectangle;connectable=0;fillColor=none;top=0;left=0;bottom=0;right=0;editable=1;overflow=hidden;" parent="eYw1XoZOmiX6JKDAJUh6-18" vertex="1">
                    <mxGeometry width="30" height="30" as="geometry">
                        <mxRectangle width="30" height="30" as="alternateBounds"/>
                    </mxGeometry>
                </mxCell>
                <mxCell id="eYw1XoZOmiX6JKDAJUh6-20" value="トカゲ" style="shape=partialRectangle;connectable=0;fillColor=none;top=0;left=0;bottom=0;right=0;align=left;spacingLeft=6;overflow=hidden;" parent="eYw1XoZOmiX6JKDAJUh6-18" vertex="1">
                    <mxGeometry x="30" width="150" height="30" as="geometry">
                        <mxRectangle width="150" height="30" as="alternateBounds"/>
                    </mxGeometry>
                </mxCell>
                <mxCell id="eYw1XoZOmiX6JKDAJUh6-34" value="file_path" style="shape=table;startSize=30;container=1;collapsible=1;childLayout=tableLayout;fixedRows=1;rowLines=0;fontStyle=1;align=center;resizeLast=1;" parent="1" vertex="1">
                    <mxGeometry x="920" y="460" width="214" height="150" as="geometry"/>
                </mxCell>
                <mxCell id="eYw1XoZOmiX6JKDAJUh6-35" value="" style="shape=tableRow;horizontal=0;startSize=0;swimlaneHead=0;swimlaneBody=0;fillColor=none;collapsible=0;dropTarget=0;points=[[0,0.5],[1,0.5]];portConstraint=eastwest;top=0;left=0;right=0;bottom=1;" parent="eYw1XoZOmiX6JKDAJUh6-34" vertex="1">
                    <mxGeometry y="30" width="214" height="30" as="geometry"/>
                </mxCell>
                <mxCell id="eYw1XoZOmiX6JKDAJUh6-36" value="FK" style="shape=partialRectangle;connectable=0;fillColor=none;top=0;left=0;bottom=0;right=0;fontStyle=1;overflow=hidden;" parent="eYw1XoZOmiX6JKDAJUh6-35" vertex="1">
                    <mxGeometry width="90" height="30" as="geometry">
                        <mxRectangle width="90" height="30" as="alternateBounds"/>
                    </mxGeometry>
                </mxCell>
                <mxCell id="eYw1XoZOmiX6JKDAJUh6-37" value="glb_file_path" style="shape=partialRectangle;connectable=0;fillColor=none;top=0;left=0;bottom=0;right=0;align=left;spacingLeft=6;fontStyle=5;overflow=hidden;" parent="eYw1XoZOmiX6JKDAJUh6-35" vertex="1">
                    <mxGeometry x="90" width="124" height="30" as="geometry">
                        <mxRectangle width="124" height="30" as="alternateBounds"/>
                    </mxGeometry>
                </mxCell>
                <mxCell id="eYw1XoZOmiX6JKDAJUh6-38" value="" style="shape=tableRow;horizontal=0;startSize=0;swimlaneHead=0;swimlaneBody=0;fillColor=none;collapsible=0;dropTarget=0;points=[[0,0.5],[1,0.5]];portConstraint=eastwest;top=0;left=0;right=0;bottom=0;" parent="eYw1XoZOmiX6JKDAJUh6-34" vertex="1">
                    <mxGeometry y="60" width="214" height="30" as="geometry"/>
                </mxCell>
                <mxCell id="eYw1XoZOmiX6JKDAJUh6-39" value="ミノカサゴ" style="shape=partialRectangle;connectable=0;fillColor=none;top=0;left=0;bottom=0;right=0;editable=1;overflow=hidden;" parent="eYw1XoZOmiX6JKDAJUh6-38" vertex="1">
                    <mxGeometry width="90" height="30" as="geometry">
                        <mxRectangle width="90" height="30" as="alternateBounds"/>
                    </mxGeometry>
                </mxCell>
                <mxCell id="eYw1XoZOmiX6JKDAJUh6-40" value="glbファイルパス" style="shape=partialRectangle;connectable=0;fillColor=none;top=0;left=0;bottom=0;right=0;align=left;spacingLeft=6;overflow=hidden;" parent="eYw1XoZOmiX6JKDAJUh6-38" vertex="1">
                    <mxGeometry x="90" width="124" height="30" as="geometry">
                        <mxRectangle width="124" height="30" as="alternateBounds"/>
                    </mxGeometry>
                </mxCell>
                <mxCell id="eYw1XoZOmiX6JKDAJUh6-41" value="" style="shape=tableRow;horizontal=0;startSize=0;swimlaneHead=0;swimlaneBody=0;fillColor=none;collapsible=0;dropTarget=0;points=[[0,0.5],[1,0.5]];portConstraint=eastwest;top=0;left=0;right=0;bottom=0;" parent="eYw1XoZOmiX6JKDAJUh6-34" vertex="1">
                    <mxGeometry y="90" width="214" height="30" as="geometry"/>
                </mxCell>
                <mxCell id="eYw1XoZOmiX6JKDAJUh6-42" value="カエル" style="shape=partialRectangle;connectable=0;fillColor=none;top=0;left=0;bottom=0;right=0;editable=1;overflow=hidden;" parent="eYw1XoZOmiX6JKDAJUh6-41" vertex="1">
                    <mxGeometry width="90" height="30" as="geometry">
                        <mxRectangle width="90" height="30" as="alternateBounds"/>
                    </mxGeometry>
                </mxCell>
                <mxCell id="eYw1XoZOmiX6JKDAJUh6-43" value="Row 2" style="shape=partialRectangle;connectable=0;fillColor=none;top=0;left=0;bottom=0;right=0;align=left;spacingLeft=6;overflow=hidden;" parent="eYw1XoZOmiX6JKDAJUh6-41" vertex="1">
                    <mxGeometry x="90" width="124" height="30" as="geometry">
                        <mxRectangle width="124" height="30" as="alternateBounds"/>
                    </mxGeometry>
                </mxCell>
                <mxCell id="eYw1XoZOmiX6JKDAJUh6-44" value="" style="shape=tableRow;horizontal=0;startSize=0;swimlaneHead=0;swimlaneBody=0;fillColor=none;collapsible=0;dropTarget=0;points=[[0,0.5],[1,0.5]];portConstraint=eastwest;top=0;left=0;right=0;bottom=0;" parent="eYw1XoZOmiX6JKDAJUh6-34" vertex="1">
                    <mxGeometry y="120" width="214" height="30" as="geometry"/>
                </mxCell>
                <mxCell id="eYw1XoZOmiX6JKDAJUh6-45" value="トカゲ" style="shape=partialRectangle;connectable=0;fillColor=none;top=0;left=0;bottom=0;right=0;editable=1;overflow=hidden;" parent="eYw1XoZOmiX6JKDAJUh6-44" vertex="1">
                    <mxGeometry width="90" height="30" as="geometry">
                        <mxRectangle width="90" height="30" as="alternateBounds"/>
                    </mxGeometry>
                </mxCell>
                <mxCell id="eYw1XoZOmiX6JKDAJUh6-46" value="Row 3" style="shape=partialRectangle;connectable=0;fillColor=none;top=0;left=0;bottom=0;right=0;align=left;spacingLeft=6;overflow=hidden;" parent="eYw1XoZOmiX6JKDAJUh6-44" vertex="1">
                    <mxGeometry x="90" width="124" height="30" as="geometry">
                        <mxRectangle width="124" height="30" as="alternateBounds"/>
                    </mxGeometry>
                </mxCell>
                <mxCell id="eYw1XoZOmiX6JKDAJUh6-60" value="" style="edgeStyle=entityRelationEdgeStyle;fontSize=12;html=1;endArrow=ERzeroToMany;endFill=1;exitX=1;exitY=0.5;exitDx=0;exitDy=0;entryX=0;entryY=0.5;entryDx=0;entryDy=0;" parent="1" source="eYw1XoZOmiX6JKDAJUh6-9" target="eYw1XoZOmiX6JKDAJUh6-35" edge="1">
                    <mxGeometry width="100" height="100" relative="1" as="geometry">
                        <mxPoint x="360" y="430" as="sourcePoint"/>
                        <mxPoint x="460" y="330" as="targetPoint"/>
                    </mxGeometry>
                </mxCell>
                <mxCell id="eYw1XoZOmiX6JKDAJUh6-61" value="フロントエンド" style="text;html=1;align=center;verticalAlign=middle;resizable=0;points=[];autosize=1;strokeColor=none;fillColor=none;" parent="1" vertex="1">
                    <mxGeometry x="100" y="50" width="110" height="30" as="geometry"/>
                </mxCell>
                <mxCell id="eYw1XoZOmiX6JKDAJUh6-62" value="バックエンド" style="text;html=1;align=center;verticalAlign=middle;resizable=0;points=[];autosize=1;strokeColor=none;fillColor=none;" parent="1" vertex="1">
                    <mxGeometry x="504" y="50" width="100" height="30" as="geometry"/>
                </mxCell>
                <mxCell id="eYw1XoZOmiX6JKDAJUh6-63" value="DB" style="text;html=1;align=center;verticalAlign=middle;resizable=0;points=[];autosize=1;strokeColor=none;fillColor=none;" parent="1" vertex="1">
                    <mxGeometry x="960" y="55" width="40" height="30" as="geometry"/>
                </mxCell>
                <mxCell id="eYw1XoZOmiX6JKDAJUh6-66" value="" style="whiteSpace=wrap;html=1;" parent="1" vertex="1">
                    <mxGeometry x="80" y="300" width="90" height="30" as="geometry"/>
                </mxCell>
                <mxCell id="eYw1XoZOmiX6JKDAJUh6-69" value="" style="endArrow=classic;html=1;" parent="1" source="eYw1XoZOmiX6JKDAJUh6-66" target="eYw1XoZOmiX6JKDAJUh6-70" edge="1">
                    <mxGeometry width="50" height="50" relative="1" as="geometry">
                        <mxPoint x="390" y="410" as="sourcePoint"/>
                        <mxPoint x="270" y="300" as="targetPoint"/>
                    </mxGeometry>
                </mxCell>
                <mxCell id="eYw1XoZOmiX6JKDAJUh6-70" value="テキストを入力&lt;br&gt;音声認識apiを使う(最低手動になるかも)" style="text;html=1;align=center;verticalAlign=middle;resizable=0;points=[];autosize=1;strokeColor=none;fillColor=none;" parent="1" vertex="1">
                    <mxGeometry x="174" y="218" width="240" height="40" as="geometry"/>
                </mxCell>
                <mxCell id="eYw1XoZOmiX6JKDAJUh6-71" value="" style="whiteSpace=wrap;html=1;" parent="1" vertex="1">
                    <mxGeometry x="95" y="368" width="120" height="60" as="geometry"/>
                </mxCell>
                <mxCell id="eYw1XoZOmiX6JKDAJUh6-73" value="" style="shape=image;verticalLabelPosition=bottom;labelBackgroundColor=default;verticalAlign=top;aspect=fixed;imageAspect=0;image=data:image/svg+xml,PHN2ZyB4bWxucz0iaHR0cDovL3d3dy53My5vcmcvMjAwMC9zdmciIHZpZXdCb3g9IjAgMCAxMjggMTI4Ij48cGF0aCBkPSJNNDUuNSAxMjljMTEuOSAwIDIxLjUtOS42IDIxLjUtMjEuNVY4Nkg0NS41QzMzLjYgODYgMjQgOTUuNiAyNCAxMDcuNVMzMy42IDEyOSA0NS41IDEyOXptMCAwIiBmaWxsPSIjMGFjZjgzIi8+PHBhdGggZD0iTTI0IDY0LjVDMjQgNTIuNiAzMy42IDQzIDQ1LjUgNDNINjd2NDNINDUuNUMzMy42IDg2IDI0IDc2LjQgMjQgNjQuNXptMCAwIiBmaWxsPSIjYTI1OWZmIi8+PHBhdGggZD0iTTI0IDIxLjVDMjQgOS42IDMzLjYgMCA0NS41IDBINjd2NDNINDUuNUMzMy42IDQzIDI0IDMzLjQgMjQgMjEuNXptMCAwIiBmaWxsPSIjZjI0ZTFlIi8+PHBhdGggZD0iTTY3IDBoMjEuNUMxMDAuNCAwIDExMCA5LjYgMTEwIDIxLjVTMTAwLjQgNDMgODguNSA0M0g2N3ptMCAwIiBmaWxsPSIjZmY3MjYyIi8+PHBhdGggZD0iTTExMCA2NC41YzAgMTEuOS05LjYgMjEuNS0yMS41IDIxLjVTNjcgNzYuNCA2NyA2NC41IDc2LjYgNDMgODguNSA0MyAxMTAgNTIuNiAxMTAgNjQuNXptMCAwIiBmaWxsPSIjMWFiY2ZlIi8+PC9zdmc+;" parent="1" vertex="1">
                    <mxGeometry x="170" y="80" width="128" height="128" as="geometry"/>
                </mxCell>
                <mxCell id="eYw1XoZOmiX6JKDAJUh6-74" value="" style="endArrow=classic;html=1;exitX=1;exitY=0.75;exitDx=0;exitDy=0;entryX=0.087;entryY=0.023;entryDx=0;entryDy=0;entryPerimeter=0;" parent="1" source="eYw1XoZOmiX6JKDAJUh6-71" target="eYw1XoZOmiX6JKDAJUh6-75" edge="1">
                    <mxGeometry width="50" height="50" relative="1" as="geometry">
                        <mxPoint x="450" y="400" as="sourcePoint"/>
                        <mxPoint x="290" y="470" as="targetPoint"/>
                    </mxGeometry>
                </mxCell>
                <mxCell id="eYw1XoZOmiX6JKDAJUh6-75" value="glbファイルを反映した3D画像の出力(無理かも知れない)" style="text;html=1;align=center;verticalAlign=middle;resizable=0;points=[];autosize=1;strokeColor=none;fillColor=none;" parent="1" vertex="1">
                    <mxGeometry x="60" y="530" width="330" height="30" as="geometry"/>
                </mxCell>
                <mxCell id="eYw1XoZOmiX6JKDAJUh6-76" value="FigmaでUIを整える" style="text;html=1;align=center;verticalAlign=middle;resizable=0;points=[];autosize=1;strokeColor=none;fillColor=none;" parent="1" vertex="1">
                    <mxGeometry x="75" y="585" width="130" height="30" as="geometry"/>
                </mxCell>
                <mxCell id="eYw1XoZOmiX6JKDAJUh6-81" value="" style="endArrow=classic;html=1;exitX=0.75;exitY=1;exitDx=0;exitDy=0;entryX=0.328;entryY=0.057;entryDx=0;entryDy=0;entryPerimeter=0;" parent="1" source="eYw1XoZOmiX6JKDAJUh6-78" target="eYw1XoZOmiX6JKDAJUh6-82" edge="1">
                    <mxGeometry width="50" height="50" relative="1" as="geometry">
                        <mxPoint x="450" y="400" as="sourcePoint"/>
                        <mxPoint x="280" y="350" as="targetPoint"/>
                    </mxGeometry>
                </mxCell>
                <mxCell id="eYw1XoZOmiX6JKDAJUh6-82" value="ボタンで送信" style="text;html=1;align=center;verticalAlign=middle;resizable=0;points=[];autosize=1;strokeColor=none;fillColor=none;" parent="1" vertex="1">
                    <mxGeometry x="244" y="338" width="100" height="30" as="geometry"/>
                </mxCell>
                <mxCell id="eYw1XoZOmiX6JKDAJUh6-83" value="" style="shape=image;verticalLabelPosition=bottom;labelBackgroundColor=default;verticalAlign=top;aspect=fixed;imageAspect=0;image=data:image/svg+xml,PHN2ZyB4bWxucz0iaHR0cDovL3d3dy53My5vcmcvMjAwMC9zdmciIHhtbG5zOnhsaW5rPSJodHRwOi8vd3d3LnczLm9yZy8xOTk5L3hsaW5rIiB2aWV3Qm94PSIwIDAgMTI4IDEyOCI+PGRlZnM+PHN5bWJvbCBpZD0iYmxlbmRlci1vcmlnaW5hbC13b3JkbWFyay1hIiBvdmVyZmxvdz0idmlzaWJsZSI+PHBhdGggZD0iTTEuMjk3LTEuMzEzaC4xMjVjLjA4MiAwIC4xNDQtLjAxOS4xODctLjA2MmEuMjM3LjIzNyAwIDAwLjA2My0uMTcyYzAtLjA4Mi0uMDI0LS4xNC0uMDYzLS4xNzItLjA0My0uMDMxLS4xMDktLjA0Ny0uMjAzLS4wNDdoLS4xMXpNMi0xLjU0NmMwIC4xODgtLjA5LjMyLS4yNjYuMzlsLjQyMi42NzNoLS4zNzVsLS4zMjgtLjU3OWgtLjE1NnYuNTc5SC45Njl2LTEuNTMyaC40NTNjLjE5NSAwIC4zNDQuMDQzLjQzNy4xMjUuMDk0LjA3NS4xNDEuMTg4LjE0MS4zNDR6TS4xNzItMS4yNWExLjI4NCAxLjI4NCAwIDAxLjY0LTEuMTEgMS4zNSAxLjM1IDAgMDEuNjU3LS4xNzFjLjIzOCAwIC40NTcuMDU4LjY1Ni4xNzIuMTk1LjExNy4zNTIuMjczLjQ2OS40NjguMTI1LjIuMTg3LjQxNC4xODcuNjQxIDAgLjIzLS4wNTguNDQ1LS4xNzIuNjRhMS40MyAxLjQzIDAgMDEtLjQ4NC40N2MtLjIuMTE3LS40MTguMTcxLS42NTYuMTcxLS4yNDIgMC0uNDYxLS4wNTQtLjY1Ny0uMTcyQy42MTMtLjI1NC40NTgtLjQxLjM0NC0uNjA5YTEuMjIyIDEuMjIyIDAgMDEtLjE3Mi0uNjQxem0uMjE5IDBjMCAuMi4wNDYuMzgzLjE0LjU0Ny4wOTQuMTU2LjIyMy4yODkuMzkuMzkuMTc3LjA5NC4zNi4xNDEuNTQ4LjE0MWExLjEwNyAxLjEwNyAwIDAwLjk1My0uNTMxYy4wOTQtLjE2NC4xNC0uMzQ4LjE0LS41NDcgMC0uMTg4LS4wNTQtLjM2My0uMTU2LS41MzFhMS4wNDIgMS4wNDIgMCAwMC0uMzktLjM5IDEuMDQ1IDEuMDQ1IDAgMDAtMS4wNzktLjAxNyAxLjExMyAxLjExMyAwIDAwLS40MDYuMzkxYy0uMDk0LjE2OC0uMTQuMzUyLS4xNC41NDd6bTAgMCIvPjwvc3ltYm9sPjwvZGVmcz48cGF0aCBmaWxsPSIjMjM1Nzg1IiBkPSJNMjAuNzQgNjUuOTYyYy4wNzUtMS4yOTYuNzI3LTIuNDQxIDEuNzA3LTMuMjUuOTYtLjc5NiAyLjI1Ni0xLjI4NSAzLjY2Ny0xLjI4NSAxLjQxIDAgMi43MDYuNDg5IDMuNjY3IDEuMjg1Ljk4LjgwOSAxLjYzMSAxLjk1NCAxLjcwNyAzLjI1LjA3IDEuMzMyLS40NzUgMi41Ny0xLjQzOSAzLjQ4OS0uOTguOTMzLTIuMzc0IDEuNTItMy45MzUgMS41Mi0xLjU2IDAtMi45Ni0uNTg3LTMuOTQtMS41Mi0uOTYtLjkxOC0xLjUwOS0yLjE1Ny0xLjQzNC0zLjQ4OXptMCAwIi8+PHBhdGggZmlsbD0iI2U4NzUwMCIgZD0iTTEyLjE4NiA2OC41OTFjLjAxMi41MDguMTc4IDEuNDkyLjQyMyAyLjI2NmExMS45MzUgMTEuOTM1IDAgMDAyLjY0MyA0LjQ2OWMxLjI2NCAxLjM2NyAyLjgyMSAyLjQ2NSA0LjYxOSAzLjI0NmExNS4xNzMgMTUuMTczIDAgMDA2LjA2NSAxLjIzIDE1LjE3OCAxNS4xNzggMCAwMDYuMDY1LTEuMjU0IDEzLjc0NCAxMy43NDQgMCAwMDQuNjItMy4yNTdjMS4yMjgtMS4zMzYgMi4xMTMtMi44NDggMi42MzktNC40NzcuMjYtLjgyNC40MjYtMS42Ni40OTMtMi41YTExLjMxMyAxMS4zMTMgMCAwMC0xLjc2Ni02Ljk4OCAxMi42NTUgMTIuNjU1IDAgMDAtMy4wNy0zLjMxM2guMDA0bC0xMi40My05LjMzMmMtLjAxMi0uMDA4LS4wMi0uMDItLjAzMi0uMDIzLS44MTgtLjYxNC0yLjE4OS0uNjE0LTMuMDg2IDAtLjkwNS42Mi0xLjAwNyAxLjY0OC0uMjAxIDIuMjk3aC0uMDA0bDUuMTg0IDQuMTI1LTE1LjgwMS4wMTVoLS4wMmMtMS4zMDggMC0yLjU2NC44NC0yLjgxIDEuODk5LS4yNTYgMS4wNzguNjI5IDEuOTcyIDEuOTg4IDEuOTc2di4wMDhsOC4wMS0uMDE2TDEuNDI2IDY5LjY5YS4yOC4yOCAwIDAwLS4wNTYuMDM5Yy0xLjM0NyAxLjAwOC0xLjc4NiAyLjY4Ny0uOTM2IDMuNzUuODYxIDEuMDc4IDIuNjk1IDEuMDgyIDQuMDU4LjAwNGw3LjgtNi4yMzhzLS4xMTUuODQtLjEwNyAxLjM0N3ptMjAuMDQ0IDIuODJjLTEuNjA4IDEuNjAyLTMuODU2IDIuNTA4LTYuMjk0IDIuNTE2LTIuNDM4LjAwNC00LjY4Ni0uODk4LTYuMjk0LTIuNDk2YTcuMzg4IDcuMzg4IDAgMDEtMS43MTktMi42MjkgNi42ODMgNi42ODMgMCAwMS0uMzkxLTIuOTM3IDYuNzcgNi43NyAwIDAxLjg2MS0yLjc2NiA3LjYyNSA3LjYyNSAwIDAxMS45MDktMi4yMjNjMS41NjQtMS4yNDYgMy41NTItMS45MjEgNS42MzQtMS45MjEgMi4wODItLjAwNCA0LjA3LjY2NCA1LjYzIDEuOTA2YTcuNjEyIDcuNjEyIDAgMDExLjkxMyAyLjIxNWMuNDc4Ljg0Ny43NzQgMS43OC44NjEgMi43NjVhNi42MiA2LjYyIDAgMDEtLjM5NSAyLjkzNCA3LjMgNy4zIDAgMDEtMS43MTUgMi42Mzd6bTAgMCIvPjxwYXRoIGZpbGw9IiMyMzU3ODUiIGQ9Ik0xMDUuODk3IDY1Ljk0M2MuMTIyLTEuMzEzIDEuMTU4LTIuMTQgMi43MzgtMi4xNHMyLjYxNi44MjcgMi43MzggMi4xNHptNS4zMTQgMy4yM2MtLjQwNy45NzMtMS4zNTkgMS41NDctMi42NTkgMS41NDctMS42MiAwLTIuNzE0LS45OTItMi43NTgtMi41NThoOS4zMzNWNjcuN2MwLTMuOTE4LTIuMzU1LTYuMTI1LTYuNTc1LTYuMTI1LTQuMDkzIDAtNi41NyAyLjIyNi02LjU3IDUuNzE1IDAgMy41MDcgMi41MTYgNS43MyA2LjU3IDUuNzMgMi40MzggMCA0LjMyMy0uODE2IDUuNDg4LTIuMjV6bTAgME02NC40OTIgNjUuOTQ3Yy4xMjMtMS4zMDkgMS4xNTgtMi4xMzcgMi43NDItMi4xMzcgMS41OCAwIDIuNjEyLjgyOCAyLjczNCAyLjEzN3ptNS4zMTQgMy4yMzRjLS40MDMuOTczLTEuMzU5IDEuNTQ3LTIuNjU5IDEuNTQ3LTEuNjIgMC0yLjcxNC0uOTkyLTIuNzU4LTIuNTU5aDkuMzN2LS40NTdjMC0zLjkyNS0yLjM1Mi02LjEyOS02LjU3Mi02LjEyOS00LjA5NyAwLTYuNTY3IDIuMjI3LTYuNTY3IDUuNzE1IDAgMy41MDggMi41MTMgNS43MjcgNi41NjcgNS43MjcgMi40MzQgMCA0LjMyMy0uODEzIDUuNDkyLTIuMjQ2em0wIDBNNTYuMzggNTkuMjA4aDMuMzYzVjcyLjY3SDU2LjM4em0wIDBNNzQuNTU2IDYyLjc4N2gzLjM4MnYuOGMxLjIwMS0xLjI1IDIuNjQtMS44ODIgNC4yNi0xLjg4MiAxLjg2OCAwIDMuMjgzLjYzMiA0LjAxNCAxLjcwNy42MTIuODkuNjUyIDEuOTYuNjUyIDMuMzd2NS44ODdoLTMuMzl2LTUuMTcxYzAtMi4xNDktLjQ0My0zLjEzNy0yLjM2Ny0zLjEzNy0xLjk0OCAwLTMuMTY5IDEuMTMzLTMuMTY5IDMuMDM5djUuMjdoLTMuMzgyem0wIDBNOTcuNzY1IDY3LjQ1OGMwIDEuODQ0LTEuMjYgMy4wNTEtMy4yMDggMy4wNTEtMS45NDggMC0zLjIwOS0xLjE2OC0zLjIwOS0zLjAzMSAwLTEuODkgMS4yNDEtMy4wNTUgMy4yMDktMy4wNTUgMS45NDggMCAzLjIwOCAxLjE4OCAzLjIwOCAzLjAzNXptMC00LjIyNmMtLjg1Ny0uODk1LTIuMDk0LTEuMzg3LTMuODE3LTEuMzg3LTMuNzEgMC02LjI0NiAyLjIzOC02LjI0NiA1LjU5NCAwIDMuMjg5IDIuNTE2IDUuNTkgNi4xODcgNS41OSAxLjY4MyAwIDIuOTE2LS40MTggMy44NzYtMS4zNTJ2Ljk5MmgzLjM4NlY1OC4zNTNsLTMuMzg2Ljg1NXptMCAwTTQ4LjY4NyA2NC40MjNjMS45NjggMCAzLjIwNSAxLjE2OCAzLjIwNSAzLjA1OSAwIDEuODYzLTEuMjU3IDMuMDI3LTMuMjA1IDMuMDI3LTEuOTQ4IDAtMy4yMDQtMS4yMDctMy4yMDQtMy4wNSAwLTEuODQ4IDEuMjU2LTMuMDM2IDMuMjA0LTMuMDM2em0tMy4yMDQtNS4yMTVsLTMuMzg2LS44NTF2MTQuMzE2aDMuMzg2di0uOTkyYy45NTIuOTM0IDIuMTg5IDEuMzQ4IDMuODc2IDEuMzQ4IDMuNjcgMCA2LjE4NC0yLjMwMSA2LjE4NC01LjU5IDAtMy4zNTYtMi41MzctNS41OTQtNi4yNDctNS41OTQtMS43MjMgMC0yLjk2LjQ5Mi0zLjgxMyAxLjM5em0wIDBNMTE1Ljk2IDcyLjY3M3YtOS44ODZoMy4zODd2LjYxM2MxLjAxNS0xLjE5NSAyLjA4Ni0xLjc5IDMuMzA3LTEuNzkuMjQ1IDAgLjU1LjA0Ljk1Mi4wNzl2Mi44MTZjLS4zMjQtLjAzOS0uNjg3LS4wMzktMS4wNzQtLjAzOS0xLjk2OCAwLTMuMTg1IDEuMjctMy4xODUgMy40MjZ2NC43ODF6bTAgMCIvPjx1c2UgdHJhbnNmb3JtPSJtYXRyaXgoMS4wMTE1MSAwIDAgMSAtLjc0MyA0Ny4xMzgpIiBmaWxsPSIjMjE2MTkxIiBoZWlnaHQ9IjEwMCUiIHdpZHRoPSIxMDAlIiB5PSIxNS4wMDIiIHg9IjEyNC40OTYiIHhsaW5rOmhyZWY9IiNibGVuZGVyLW9yaWdpbmFsLXdvcmRtYXJrLWEiLz48L3N2Zz4=;" parent="1" vertex="1">
                    <mxGeometry x="580" y="55" width="128" height="128" as="geometry"/>
                </mxCell>
                <mxCell id="eYw1XoZOmiX6JKDAJUh6-84" value="・if 特定の文字が送信されたら" style="text;html=1;align=center;verticalAlign=middle;resizable=0;points=[];autosize=1;strokeColor=none;fillColor=none;" parent="1" vertex="1">
                    <mxGeometry x="420" y="208" width="190" height="30" as="geometry"/>
                </mxCell>
                <mxCell id="eYw1XoZOmiX6JKDAJUh6-85" value="" style="endArrow=classic;html=1;entryX=0.152;entryY=1.089;entryDx=0;entryDy=0;entryPerimeter=0;" parent="1" source="eYw1XoZOmiX6JKDAJUh6-83" target="eYw1XoZOmiX6JKDAJUh6-86" edge="1">
                    <mxGeometry width="50" height="50" relative="1" as="geometry">
                        <mxPoint x="450" y="-180" as="sourcePoint"/>
                        <mxPoint x="790" y="-70" as="targetPoint"/>
                    </mxGeometry>
                </mxCell>
                <mxCell id="eYw1XoZOmiX6JKDAJUh6-86" value="VRとの連携&lt;br&gt;多分簡単" style="text;html=1;align=center;verticalAlign=middle;resizable=0;points=[];autosize=1;strokeColor=none;fillColor=none;" parent="1" vertex="1">
                    <mxGeometry x="790" y="-110" width="90" height="40" as="geometry"/>
                </mxCell>
                <mxCell id="eYw1XoZOmiX6JKDAJUh6-87" value="" style="endArrow=classic;html=1;exitX=1;exitY=1.027;exitDx=0;exitDy=0;exitPerimeter=0;entryX=0;entryY=0.5;entryDx=0;entryDy=0;" parent="1" source="eYw1XoZOmiX6JKDAJUh6-84" target="eYw1XoZOmiX6JKDAJUh6-12" edge="1">
                    <mxGeometry width="50" height="50" relative="1" as="geometry">
                        <mxPoint x="430" y="320" as="sourcePoint"/>
                        <mxPoint x="480" y="270" as="targetPoint"/>
                    </mxGeometry>
                </mxCell>
                <mxCell id="eYw1XoZOmiX6JKDAJUh6-88" value="" style="endArrow=classic;html=1;entryX=0.5;entryY=0;entryDx=0;entryDy=0;exitX=0.418;exitY=1.06;exitDx=0;exitDy=0;exitPerimeter=0;" parent="1" source="eYw1XoZOmiX6JKDAJUh6-18" target="eYw1XoZOmiX6JKDAJUh6-34" edge="1">
                    <mxGeometry width="50" height="50" relative="1" as="geometry">
                        <mxPoint x="960" y="370" as="sourcePoint"/>
                        <mxPoint x="480" y="420" as="targetPoint"/>
                    </mxGeometry>
                </mxCell>
                <mxCell id="eYw1XoZOmiX6JKDAJUh6-89" value="" style="endArrow=classic;html=1;entryX=1.004;entryY=0.885;entryDx=0;entryDy=0;entryPerimeter=0;exitX=0;exitY=0.5;exitDx=0;exitDy=0;" parent="1" source="eYw1XoZOmiX6JKDAJUh6-44" target="eYw1XoZOmiX6JKDAJUh6-64" edge="1">
                    <mxGeometry width="50" height="50" relative="1" as="geometry">
                        <mxPoint x="1050" y="620" as="sourcePoint"/>
                        <mxPoint x="480" y="420" as="targetPoint"/>
                    </mxGeometry>
                </mxCell>
                <mxCell id="eYw1XoZOmiX6JKDAJUh6-90" value="" style="endArrow=classic;html=1;exitX=-0.01;exitY=0.149;exitDx=0;exitDy=0;exitPerimeter=0;" parent="1" source="eYw1XoZOmiX6JKDAJUh6-41" edge="1">
                    <mxGeometry width="50" height="50" relative="1" as="geometry">
                        <mxPoint x="1040" y="630" as="sourcePoint"/>
                        <mxPoint x="570" y="410" as="targetPoint"/>
                    </mxGeometry>
                </mxCell>
                <mxCell id="eYw1XoZOmiX6JKDAJUh6-91" value="・blenderでファイルの入出力をpythonで操作し、3Dモデルを表示" style="text;html=1;align=center;verticalAlign=middle;resizable=0;points=[];autosize=1;strokeColor=none;fillColor=none;" parent="1" vertex="1">
                    <mxGeometry x="420" y="368" width="380" height="30" as="geometry"/>
                </mxCell>
                <mxCell id="eYw1XoZOmiX6JKDAJUh6-92" value="・それ以外はchatgpt apiで英語に変換してshap-Eを通す。→しかし着色なし" style="text;html=1;align=center;verticalAlign=middle;resizable=0;points=[];autosize=1;strokeColor=none;fillColor=none;" parent="1" vertex="1">
                    <mxGeometry x="429" y="285" width="430" height="30" as="geometry"/>
                </mxCell>
                <mxCell id="eYw1XoZOmiX6JKDAJUh6-96" value="" style="endArrow=classic;html=1;exitX=0.36;exitY=1.105;exitDx=0;exitDy=0;exitPerimeter=0;" parent="1" source="eYw1XoZOmiX6JKDAJUh6-92" edge="1">
                    <mxGeometry width="50" height="50" relative="1" as="geometry">
                        <mxPoint x="610" y="440" as="sourcePoint"/>
                        <mxPoint x="250" y="450" as="targetPoint"/>
                    </mxGeometry>
                </mxCell>
                <mxCell id="i96RC3M-kfn0s_IjcbhT-1" value="" style="sketch=0;points=[[0,0,0],[0.25,0,0],[0.5,0,0],[0.75,0,0],[1,0,0],[0,1,0],[0.25,1,0],[0.5,1,0],[0.75,1,0],[1,1,0],[0,0.25,0],[0,0.5,0],[0,0.75,0],[1,0.25,0],[1,0.5,0],[1,0.75,0]];outlineConnect=0;fontColor=#232F3E;gradientColor=#F34482;gradientDirection=north;fillColor=#BC1356;strokeColor=#ffffff;dashed=0;verticalLabelPosition=bottom;verticalAlign=top;align=center;html=1;fontSize=12;fontStyle=0;aspect=fixed;shape=mxgraph.aws4.resourceIcon;resIcon=mxgraph.aws4.ar_vr;" vertex="1" parent="1">
                    <mxGeometry x="702" y="-138" width="78" height="78" as="geometry"/>
                </mxCell>
            </root>
        </mxGraphModel>
    </diagram>
    <diagram id="M2toeuCy8qMqOu05G_aE" name="ページ3">
        <mxGraphModel dx="1301" dy="423" grid="1" gridSize="10" guides="1" tooltips="1" connect="1" arrows="1" fold="1" page="1" pageScale="1" pageWidth="827" pageHeight="1169" math="0" shadow="0">
            <root>
                <mxCell id="0"/>
                <mxCell id="1" parent="0"/>
                <mxCell id="VC_4T_SuTCzVyqGMN9qu-1" value="" style="shape=image;verticalLabelPosition=bottom;labelBackgroundColor=default;verticalAlign=top;aspect=fixed;imageAspect=0;image=data:image/svg+xml,PHN2ZyB4bWxucz0iaHR0cDovL3d3dy53My5vcmcvMjAwMC9zdmciIHZpZXdCb3g9IjAgMCAxMjggMTI4Ij48ZyBmaWxsPSIjNjFEQUZCIj48Y2lyY2xlIHI9IjkuMyIgY3k9IjQ3LjUiIGN4PSI2NCIvPjxwYXRoIGQ9Ik02NCA4MS43QzcxLjMgODguOCA3OC41IDkzIDg0LjMgOTNjMS45IDAgMy43LS40IDUuMi0xLjMgNS4yLTMgNy4xLTEwLjUgNS4zLTIxLjItLjMtMS45LS43LTMuOC0xLjItNS44IDItLjYgMy44LTEuMiA1LjYtMS44IDEwLjEtMy45IDE1LjctOS4zIDE1LjctMTUuMiAwLTYtNS42LTExLjQtMTUuNy0xNS4yLTEuOC0uNy0zLjYtMS4zLTUuNi0xLjguNS0yIC45LTMuOSAxLjItNS44IDEuNy0xMC45LS4yLTE4LjUtNS40LTIxLjUtMS41LS45LTMuMy0xLjMtNS4yLTEuMy01LjcgMC0xMyA0LjItMjAuMyAxMS4zQzU2LjcgNi4zIDQ5LjUgMi4xIDQzLjcgMi4xYy0xLjkgMC0zLjcuNC01LjIgMS4zLTUuMiAzLTcuMSAxMC41LTUuMyAyMS4yLjMgMS45LjcgMy44IDEuMiA1LjgtMiAuNi0zLjggMS4yLTUuNiAxLjgtMTAuMSAzLjktMTUuNyA5LjMtMTUuNyAxNS4yIDAgNiA1LjYgMTEuNCAxNS43IDE1LjIgMS44LjcgMy42IDEuMyA1LjYgMS44LS41IDItLjkgMy45LTEuMiA1LjgtMS43IDEwLjcuMiAxOC4zIDUuMyAyMS4yIDEuNS45IDMuMyAxLjMgNS4yIDEuMyA1LjguMiAxMy00IDIwLjMtMTF6bS01LjYtMTMuNWMxLjguMSAzLjcuMSA1LjYuMSAxLjkgMCAzLjggMCA1LjYtLjEtMS44IDIuNC0zLjcgNC42LTUuNiA2LjctMS45LTIuMS0zLjgtNC4zLTUuNi02Ljd6TTQ2IDU3LjljMSAxLjcgMS45IDMuMyAzIDQuOS0zLjEtLjQtNi0uOS04LjgtMS41LjktMi43IDEuOS01LjUgMy4xLTguMy44IDEuNiAxLjcgMy4zIDIuNyA0Ljl6bS01LjgtMjQuMWMyLjgtLjYgNS43LTEuMSA4LjgtMS41LTEgMS42LTIgMy4yLTMgNC45LTEgMS43LTEuOSAzLjMtMi43IDUtMS4zLTIuOS0yLjMtNS43LTMuMS04LjR6bTUuNSAxMy43YzEuMy0yLjcgMi43LTUuNCA0LjMtOC4xIDEuNS0yLjYgMy4yLTUuMiA0LjktNy44IDMtLjIgNi0uMyA5LjEtLjMgMy4yIDAgNi4yLjEgOS4xLjMgMS44IDIuNiAzLjQgNS4yIDQuOSA3LjggMS42IDIuNyAzIDUuNCA0LjMgOC4xLTEuMyAyLjctMi43IDUuNC00LjMgOC4xLTEuNSAyLjYtMy4yIDUuMi00LjkgNy44LTMgLjItNiAuMy05LjEuMy0zLjIgMC02LjItLjEtOS4xLS4zLTEuOC0yLjYtMy40LTUuMi00LjktNy44LTEuNi0yLjctMy01LjQtNC4zLTguMXptMzkuMS01LjRsLTIuNy01Yy0xLTEuNy0xLjktMy4zLTMtNC45IDMuMS40IDYgLjkgOC44IDEuNS0uOSAyLjgtMS45IDUuNi0zLjEgOC40em0wIDEwLjhjMS4yIDIuOCAyLjIgNS42IDMuMSA4LjMtMi44LjYtNS43IDEuMS04LjggMS41IDEtMS42IDItMy4yIDMtNC45LjktMS41IDEuOC0zLjIgMi43LTQuOXptMi4zIDM0LjdjLS44LjUtMS44LjctMi45LjctNC45IDAtMTEtNC0xNy0xMCAyLjktMy4xIDUuNy02LjYgOC41LTEwLjUgNC43LS40IDkuMi0xLjEgMTMuNC0yLjEuNSAxLjguOCAzLjYgMS4xIDUuNCAxLjQgOC41LjMgMTQuNi0zLjEgMTYuNXptNS4yLTUyLjdjMTEuMiAzLjIgMTcuOSA4LjEgMTcuOSAxMi42IDAgMy45LTQuNiA3LjgtMTIuNyAxMC45LTEuNi42LTMuNCAxLjItNS4yIDEuNy0xLjMtNC4xLTIuOS04LjMtNC45LTEyLjYgMi00LjMgMy43LTguNSA0LjktMTIuNnptLTgtMjguMmMxLjEgMCAyIC4yIDIuOS43IDMuMyAxLjkgNC41IDcuOSAzLjEgMTYuNS0uMyAxLjctLjcgMy41LTEuMSA1LjQtNC4yLS45LTguNy0xLjYtMTMuNC0yLjEtMi43LTMuOS01LjYtNy40LTguNS0xMC41IDYtNS45IDEyLjEtMTAgMTctMTB6TTY5LjYgMjYuOGMtMS44LS4xLTMuNy0uMS01LjYtLjFzLTMuOCAwLTUuNi4xYzEuOC0yLjQgMy43LTQuNiA1LjYtNi43IDEuOSAyLjEgMy44IDQuNCA1LjYgNi43ek00MC45IDcuNGMuOC0uNSAxLjgtLjcgMi45LS43IDQuOSAwIDExIDQgMTcgMTAtMi45IDMuMS01LjcgNi42LTguNSAxMC41LTQuNy40LTkuMiAxLjEtMTMuNCAyLjEtLjUtMS44LS44LTMuNi0xLjEtNS40LTEuNC04LjUtLjMtMTQuNSAzLjEtMTYuNXptLTUuMiA1Mi43QzI0LjUgNTYuOSAxNy44IDUyIDE3LjggNDcuNWMwLTMuOSA0LjYtNy44IDEyLjctMTAuOSAxLjYtLjYgMy40LTEuMiA1LjItMS43IDEuMyA0LjEgMi45IDguMyA0LjkgMTIuNi0yIDQuMy0zLjcgOC42LTQuOSAxMi42em0yLjEgMTFjLjMtMS43LjctMy41IDEuMS01LjQgNC4yLjkgOC43IDEuNiAxMy40IDIuMSAyLjcgMy45IDUuNiA3LjQgOC41IDEwLjUtNiA1LjktMTIuMSAxMC0xNyAxMC0xLjEgMC0yLS4yLTIuOS0uNy0zLjQtMS45LTQuNS04LTMuMS0xNi41em0tNC4yIDQxLjJjMi4yLTIuNyAyLjMtNS43IDEuMS04LjctMS4yLTMtMy43LTQuNC02LjgtNC41LTMuNy0uMS03LjUgMC0xMS4yIDBIMTZWMTI1aDN2LTkuOGg0LjdjLjYgMCAxLjEuMiAxLjQuN2w2IDkuM2MuMS4yLjQuNS42LjVoMy45Yy0yLjQtMy43LTQuNy03LjItNy4xLTEwLjggMi4xLS4zIDMuOS0xIDUuMS0yLjZ6bS0xNC42LS4ydi05LjloMS4xYzIuMyAwIDQuNy0uMSA3IC4xIDIuNy4xIDQuNiAyLjIgNC42IDQuOXMtMi4yIDQuOC00LjkgNC45Yy0yLjQuMS00LjggMC03LjggMHptMzguNyAxLjNjLTEuNi03LTgtOC44LTEyLjktNi42LTMuOCAxLjctNS41IDUtNS42IDkuMS0uMSAzLjEuOCA1LjkgMy4yIDggMi43IDIuNCA2IDIuNyA5LjQgMi4xIDEuOS0uNCAzLjYtMS4zIDQuOS0yLjctLjUtLjctMS0xLjQtMS41LTItMi44IDIuNC01LjkgMy4yLTkuMyAxLjYtMi4yLTEuMS0zLjMtMy44LTMuNS01LjhoMTUuNXYtMS4zYy4xLS45IDAtMS43LS4yLTIuNHpNNDIuNiAxMTVjLS4zLTMgMi43LTYuMiA2LTYuMiAzLjgtLjEgNi4yIDIuMiA2LjMgNi4ySDQyLjZ6bTMwLjctOC43Yy0xLjUtLjMtMy4xLS40LTQuNi0uMy0yLjQuMi00LjUgMS4zLTYuMiAzLjEuNS43LjkgMS40IDEuNSAyLjIuMi0uMi40LS40LjYtLjUgMS42LTEuNSAzLjUtMi4zIDUuOC0yLjEgMS44LjEgMy41LjcgNCAyLjUuNCAxLjQuMyAyLjkuNCA0LjQtLjMgMC0uNC0uMS0uNS0uMi0yLjQtMi01LjEtMi40LTgtMS43LTIuNy43LTQuNCAyLjgtNC42IDUuNS0uMiAzLjEgMS4yIDUuNCAzLjkgNi41IDEuNy43IDMuNi43IDUuNC4zIDEuNC0uMyAyLTEuMSA0LTIuMnYxLjNoMi44YzAtNCAuMS04LjkgMC0xMy41IDAtMi45LTEuNy00LjctNC41LTUuM3ptMS40IDEyLjZjLS4xLjMgMCAuNiAwIC45IDAgMi4xLS41IDIuOC0yLjUgMy42LTEuNC41LTIuOS43LTQuNC4yLTEuNy0uNS0yLjktMi0yLjktMy43LS4xLTEuNyAxLTMuNCAyLjctMy45IDIuMy0uOCA0LjQtLjMgNi4zIDEuMS42LjUgMSAxIC44IDEuOHptMTUuNi05LjljMi42LS44IDUtLjMgNi44IDEuOWwuMy4yYy43LS42IDEuMy0xLjIgMi4xLTEuOS0uMy0uMy0uNC0uNS0uNi0uOC0yLjktMy4xLTguNi0zLjUtMTIuMS0xLTQuOSAzLjYtNC44IDEwLjYtMi40IDE0LjMgMi4zIDMuNSA1LjYgNC43IDkuNSA0LjIgMi4zLS4zIDQuMi0xLjQgNS43LTMuMy0uNy0uNi0xLjQtMS4yLTIuMS0xLjktLjIuMi0uMy4zLS40LjUtMi43IDMtNy4yIDIuNy05LjYtLjUtMS40LTEuOS0xLjctNC4xLTEuMy02LjMuMi0yLjUgMS41LTQuNSA0LjEtNS40em0yMC44IDEzLjZjLS4yLjEtLjMuMi0uMy4yLS44LjYtMS42LjctMi41LjQtLjktLjQtMS0xLjItMS4xLTJ2LTExLjRjMC0uMiAwIC4yLjEtLjhoMy44di0zaC00di01aC0zdjUuNGgtMi42Yy0uMiAwLS41LjItLjUuNC0uMS43IDAgMS4yIDAgMi4yaDMuMnYxMi44YzAgMS42LjQgMyAxLjggMy44IDEuNS45IDQuNC43IDUuNy0uNC4yLS4xLjMtLjUuMy0uNi0uMy0uNi0uNi0xLjMtLjktMnoiLz48L2c+PC9zdmc+;" parent="1" vertex="1">
                    <mxGeometry x="120" y="150" width="128" height="128" as="geometry"/>
                </mxCell>
                <mxCell id="BryzAdd_yz6yx9_wlE8t-1" value="" style="shape=image;verticalLabelPosition=bottom;labelBackgroundColor=default;verticalAlign=top;aspect=fixed;imageAspect=0;image=data:image/svg+xml,PHN2ZyB4bWxucz0iaHR0cDovL3d3dy53My5vcmcvMjAwMC9zdmciIHZpZXdCb3g9IjAgMCAxMjggMTI4Ij48cGF0aCBkPSJNMTguNzY3IDgyLjY4NWMtMi4wNDMtMS42MDYtNC4yMjQtMy4xNDYtNS43MTMtNS4zMTctMy4xMzUtMy44MjgtNS41NDgtOC4yNTgtNy4xOTgtMTIuOTE0LS45OTgtMy4wMjgtMS4zMzktNi4yNzUtMi42MjUtOS4xODUtMS4zNDQtMi4xMTQuMjMxLTQuNDI1IDIuNTQ3LTUuMDk3IDEuMDMtLjE5OCAyLjg0My0xLjE3MS42NTUtLjQ3Ni0xLjk2MiAxLjQ0LTIuMTUxLTEuMzA2LS4xMzktMS40ODEgMS4zNzItLjE4MSAxLjg3OC0xLjMwNSAxLjQwOC0yLjMxNi0xLjQ3NC0uOTYyIDMuNTc0LTIuMDE3IDEuMDM0LTMuNDUyLTIuNjQ1LTIuODU1IDMuNy0zLjQwNCAyLjEzNS0uMTYyLS4zNzUgMi40OTIgNC40MzUtLjQ1OCAzLjMxOCAyLjQyMSAxLjEzNSAxLjM4MyA0LjI0OC4zMTUgNC4xNyAyLjI1NCAxLjY1Mi4xMTQgMi4yMiAxLjUwMyAzLjc3IDEuNjEgMS42MDguNzI3IDQuNTIxIDEuMjk4IDUuMDY4IDMuMTEtMS41OTQgMS4yNjEtNS4yODYtMi42MDgtNS40NjQuODg2LjQ4MiA1LjE2My4zNTggMTAuNDggMi4yNDggMTUuMzk2Ljg5MyAyLjk3OCAzLjA1OSA1LjMyIDUuMDE1IDcuNjQgMS44NzIgMi4yNzEgNC40MDcgMy44NjkgNi45OTEgNS4yMTQgMi4yNjYgMS4wNjkgNC43MDkgMS43NzcgNy4xOCAyLjIyMyAxLjAwMS0uNzY2IDIuNzcxLTMuNjE0IDQuMzMzLTIuNDEzLjA3NSAxLjM1LTMuMTAxIDIuODIyLS4xNDkgMi42NzQgMS43MzQtLjUyNSAyLjkzNiAxLjM0IDQuMzY0LS4zNDMgMS4zMTUgMS41NTggNS40NjctLjk5NCA0LjUzMSAyLjE5LTEuMjY3LjgxNi0zLjExMi4zMjEtNC4zNzkgMS40NDctMi4wOS0xLjA0NS0zLjc1My45MzMtNi4wNjguNjg1LTIuNTY5LjQ1OC01LjE4NC42NDUtNy43ODkuNjQ4LTQuMjc0LS4zMzctOC42MzgtLjQ4LTEyLjcwMy0xLjk2Ny0yLjI5My0uNjY2LTQuNTI3LTEuOTcyLTYuNTQtMy4yNzV6bTMuNjA4IDEuNTY1YzIuMjM2Ljk2NiA0LjQyMyAxLjk4NSA2Ljg3NCAyLjI5MyAzLjg4OS41NCA3LjkwNSAxLjM3MyAxMS44MDguNjE1LTEuNzY3LS43OTgtMy41OTMuMzA4LTUuMzUzLS41NzEtMi4xMS40NTUtNC4zNzUtLjExNS02LjUyMS0uMzk2LTIuNDM5LTEuMDg2LTUuMDcyLTEuODM0LTcuMzU3LTMuMjQ1LTIuODU1LTEuMDQzIDEuNDc2IDEuMzM4IDIuMjQ4IDEuNTMxIDEuNzg0IDEuMDEzLTEuOTYyLS41Mi0yLjQ5MS0uOTQtMS40OTUtLjgzOS0xLjY4Ni0uNjY0LS4xNDguMTg4LjMxLjE3OS42MTYuMzcxLjk0LjUyNXptLTQuMjU2LTMuMDA4YzIuMTY4LjgwNC0uMDA5LTEuNTI0LTEuMDAxLTEuMzg5LS40NC0uNzY0LTEuNjgyLTEuMjQ2LS44MDYtMS42NTUtMS41NzQuNTQ3LTEuNjUtMi4wNzktMi4zODktMS43MDQtMS42NjctLjUyNi0uNjQ4LTIuMzktMi42MzQtMy41MzQtLjE4MS0xLjIwNi0xLjk3MS0yLjI1MS0yLjU0Mi00LjA3LS4yNTItLjkzMi0yLjAyNC0zLjYwNS0uOTM2LTEuMTE4LjkyNiAyLjM5NiAyLjU1NSA0LjQ0OSAzLjkxMyA2LjQ5OCAxLjA1MiAxLjk1IDIuMjk2IDMuOTkxIDQuMjEzIDUuMjA4LjY0Ni42MiAxLjI3IDEuNTcgMi4xODIgMS43NjR6bS02LjI0Mi02Ljg1NWMuMDc0LS4zMjcuMzk2LjcwOCAwIDB6bTguODM5IDcuODE4Yy40NzktLjIxNy0uNjkxLS4yNzIgMCAwem0xLjE3Ni40MjhjLS4xMjEtLjU5My0uNTM4LjMzMiAwIDB6bTEuNDczLjYxM2MuNy0uNjY3LTEuMDgxLS40MjEgMCAwem0yLjUyNCAxLjQwN2MuNDI2LS42MjgtMS4zNjQtLjIzNiAwIDB6bS00Ljg0Ny0zLjM3OGMxLjA4OC0uNzA1LTEuNDA3LS4wMDkgMCAwem0xLjEwNC41NTFjLS4wMzEtLjM3Mi0uMzkzLjE2NiAwIDB6bTUuNTIxIDMuNDQ2Yy44ODguNTYxIDUuMTg0IDEuMjI3IDIuNDk0LjIyOS0uNDUxLjA5Ni00Ljk4OC0xLjI4Mi0yLjQ5NC0uMjI5em0tOC43NjMtNi44MjdjLS4wODctLjM3Mi0xLjM4LS40MTIgMCAwem0yLjU2OCAxLjQ5OWMuNjctLjQ2Ni0xLjM4OC0uMzYgMCAwem0yLjE2MyAxLjMyNmMuOTYtLjM2My0xLjU1Ny0uMzY0IDAgMHptLTUuNzc5LTMuOTY0YzEuMDQyLjggNC4yMDIuMTA0IDEuNTk1LS40NzYtMS4xODYtLjYzMi0zLjg1OC0xLjA2NC0yLjAzNi4zODFsLjQ0MS4wOTV6bTcuMjQzIDQuNDIxYy40MzUtLjczOS0xLjgyLS40MjIgMCAwem0tMi4yMDEtMS43NDljMi41NDYuNzIxLTIuMTQxLTEuNjExLS42MjgtLjI2NWwuMzM1LjE1MS4yOTMuMTE0em00LjQxNCAyLjU1YzIuNDExLjAyNC0yLjE3OS0uMzMyIDAgMHptLTEwLjM4NC02LjYxN2MtLjA5NC0uNDQ5LS41OTQuMDM3IDAgMHptMTQuNDYyIDguOTA2Yy4wNjQtLjgxLS43ODYuNjA0IDAgMHptLTEwLjM0NS02LjM4NWMtLjE0Ny0uNDI4LS43NTQtLjAxOSAwIDB6bS0zLjg4Ny0yLjgwMmMxLjM4NC0uMDg1LTEuODk3LS42MDkgMCAwem0tNC42MDYtMi45NzdjLS4xNzMtLjY2NS0xLjUwNi0xLjE5MyAwIDB6bTEyLjA5IDcuNjczYy0uMjUzLS4yOS0uMTIuMDYzIDAgMHptNy41MjQgNC42MTdjLS4wMjMtLjQ0Mi0uNDEuMTY3IDAgMHptLTguMTktNS4zMDVjLjEzNi0uNTcxLTEuMTgxLS4xNzQgMCAwem0tNS42MDYtMy41NTNjMS4wMy0uMTEtMS42NTEtLjY5NyAwIDB6bTkuNDgzIDUuODkxYzEuNjA1LS42MzUtMS41NjUtLjMwOSAwIDB6bS00LjkzMy0zLjM0N2MxLjg1LjIzOC0yLjIwMS0xLjI1OS0uNDA3LS4xMzVsLjQwNy4xMzV6bTYuNDMgMy45NTRjMS43MjgtMS4wMzIgMS4xNTggMi40MTggMi45MzEuMjkxIDEuNzQ4LTEuMjc3LTEuNTEgMS41NzguNjQ0LjIyOCAxLjU1OS0xLjA0MiAzLjg2MS40OTQgNS4zMTUuOTk1IDEuMDQ1LS4wNTEgMi4wNjIuOTA0IDMuMTM1LjMyMiAyLjA2NC0uNTU2LTQuMDM3LS44MjQtMi40MzgtMS44MDktMS44ODguNTQ5LTMuMjgyLS42NTUtNC4yMTItMS44NjUtMi4xMTktLjQ4OS00LjU2Ni0xLjU3My01LjYyNS0zLjQ0OC0uNDMyLS43MDMuNjIyLjEwMS0uMzczLTEuMDUtMS4yNzYtMS4xMzYtMS45MTMtMi40MjYtMi43Ny0zLjgwNS0xLjAyMy0uNTQ1LTEuMTQ0LTIuMTUyLTEuMjQ3LS4wNTQuMDA4LTEuMzI0LTEuMjM2LTIuMjE2LTEuNTQxLTEuODQ3LS4wMDUtMS4yNzYgMS4zMzMtLjYzNi4zOTYtMS41OC0uMjAxLTEuMzIzLS44NjUtMi43LTEuMDY0LTQuMTkzLS4zMDktLjcyMS0uMDQzLTIuMjYyLTEuMDU4LS42MzMtLjM2OSAxLjcyMi0uMTIyLTIuMTE1LjQ1My0uODUxLjc1My0xLjI5Mi0uMjcxLTEuMTM5LS4zMTMtLjk2MS40OTEtMS4wODkuMzExLTIuNjM0LS4xMjktMi4wNDUuMjYxLTEuMTU1LjQxMy00LjI1MS0uMzkxLTMuNzAxLjQ4OC0xLjIwOC45MjYtNS41MjgtMS4xOTMtMy44ODEtLjg1OC4wMTMtMi4zNDUuMzEtMy4wNDYuNjYgMi4yMDEgMS4yMTQtLjIyMi40MzktMS4xMi4yNDUtLjExNiAxLjEyNS0xLjAwNC42NC0yLjExNC42NSAxLjc3Mi4yMTgtLjg2MyAxLjgxMy0xLjg3OCAxLjE5My0xLjMyMS42MyAxLjEzOSAyLjIwNy4wMjYgMi42OTQuMTM3LjczMy0yLjAyMy0uMjY2LTEuODU0IDEuNDMtMS4yODItLjU0MS0uMTc1IDIuMDEyLjQ2NiAxLjE0OCAyLjE4LjU5MSAxLjUzNCAxLjkzNSAxLjU4OSAzLjIxMi0uMzU1Ljc0NS0xLjc1NC0xLjc1LS4zMTItMS42MzQtMS4xMzgtMS44NDktMS4yNTgtLjY2OC0yLjIwNS4xOTEtLjIxOS4wNjEgMi40MTIgMS4yMjIuNzYxIDEuNzk1IDEuNDUyLjIyNSAxLjQ5NSAxLjQ5NSAxLjc5MiAyLjMuODcyLjkxLjY5My0xLjAwNCAxLjczOC4wOS0uNjYyLS45NzYtMy41MDMtMi43NDYtMS4yMTYtMi4xNzgtLjAxMi0uOTgtLjQxNC0xLjc3MS4yODgtMS43NTIuNjk1LTEuMjU2LS43MjggMy4xLjgzNyAxLjUwMy40MzQtLjE5LjU0MS0xLjI1OCAxLjMyLjEwMSAxLjEzIDEuMTEzLjQwOSAxLjkxOS0xLjE4Ny44OTcuMjg1Ljk3MSAyLjEzNCAxLjMxNSAxLjc4NiAyLjgyOS4zNjggMS4zMzMuODg0Ljg0MiAxLjMzMy43NjUuMzUyIDEuMjk0LjU1My4zNDMuNTY5LS4yNzIgMS42MTIuMzQ1IDEuMjM0IDEuMjk4IDEuNzQgMS45NjUgMS4xMTIuNS0xLjU5MS0zLjQuMzE3LTEuMTczIDIuMDA3IDEuODEyLjc1MyAyLjU2Ny0xLjA0OCAyLjI3OCAxLjE0LS4wOTMgMS41MDcgMS41NDEgMi45MzQgMS40ODQgMS4zMDEuNjE4IDIuMTgyIDIuOTk0LS4wNjEgMi4wMDUtLjc3Ny0uNzAyLTMuNTMtMS41NjYtMS4yOC0uMjMyIDIuMDc1Ljk2MSAzLjcyNCAxLjUzNSA1LjcyNiAyLjc0MyAxLjQzMiAxLjAyMSAyLjA1MSAyLjE5MiAyLjU5NCAyLjQyNy0xLjIwNC41NzItMy42MjgtLjQ2MS0xLjgyOC0uNzc3LTEuMTI0LS4yMDMtMi4zODctLjc3My0xLjMxMi42MjcuOTE2Ljc2NCAzLjI0MS42ODUgMy42NTkuNzctLjM1NC43NzctLjk2Ljg0LjAxMy45LTEuMDgzLjU4MS4zNTMuNjcyLjQ1MyAxLjAwM3ptLTIuMjIzLTYuMjc3Yy0uNjYyLS42OTItLjgzNC0xLjk4Ni0uMTE4LS44NjEuMzY3LjE0OCAxLjE3NSAyLjExNi4xMTguODYxem03LjIzOSA0LjU5N2MuNDEzLS4wMjcuMDEzLjMxNCAwIDB6bS04LjI4My02LjI5NWMtLjAyNi0xLjA0NS4yMzkuODA3IDAgMHptLS43MTktLjk2NmMtLjgzMy0xLjYwNyAxLjA0OS40NTQgMCAwem0tOC43Mi02LjAxOGMuNDg5LS4xMzEuMjQxLjgzNCAwIDB6bTYuOTQgMy43NmMuMy0xLjEyNy4zNTMuOTQ1IDAgMHptLTQuOTAzLTMuNDA5Yy0uMzQ1LS42MjEuNzIzLjU4NCAwIDB6bTQuMjA3IDEuMzQ5Yy0uNzg4LTEuNzY2LjU2LS45NjUuMTc1LjI4OWwtLjE3NS0uMjg5em0tNy4yNTYtNC44MzljLS4zNTItLjU3OS0uOTM1LTIuMjc4LS43NDYtMi43OTguMTY4Ljg0NiAxLjc5NiAzLjYzNy43OTcgMS4xNTYtMS4xMDMtMi4wNzkgMS4zMTkuNjczIDEuNTY4IDEuMTk0LjExNy41MTYtLjY4MS0uMTQxLS4xNDEgMS4wNjktLjk4NC0xLjM3Ny0uNTguNzYxLTEuNDc4LS42MjF6bS0yLjI0MS0xLjU0NmMuMDkyLTEuMzQ3LjUxMi45MjMgMCAwem0xLjAwOC4zNDljLjQ4MS0xLjAxNy44MTUgMS40MTcgMCAwem0tMi40MjctMS44NzhjLS44MzQtLjgzMS0xLjQzOC0xLjU5NC4wNDEtLjUxNC41NjguMDIxLTEuMjY3LTEuNzQxLjEzNi0uNTYxIDEuNDc1LjI3LjcyOCAyLjQxOS0uMTc3IDEuMDc1em0xLjI3NS0uMDMzYy40ODUtLjQ4MS4yNTcuNDczIDAgMHptLjc4NS4yNTFjLS43MzYtMS4zNzcuODkyLjU3OSAwIDB6bS0xLjU1OS0xLjQ4OWMtMi40MjYtMi4xNjEgMy4wNDkgMS4xMjguMzk2LjRsLS4zOTYtLjR6bTYuOTU0IDQuMDM5Yy0xLjA1MS0uNjI5LS4yOC00LjQzMi4wOC0xLjgzMiAxLjAyLS4zMy0uMDU3IDEuMzQ0LjcwNCAxLjMyOC0uMTIgMS4wNTctLjQ2MSAxLjQzNS0uNzg0LjUwNHptMi41NzIgMS41MjJjLjEwMy0xLjE0Ny4yMTYuNzgyIDAgMHptLS40NDctLjQ0NGMuMTE1LS40ODcuMDExLjU3OCAwIDB6bS04LjYwNC01LjgyN2MtMS41Ni0yLjE1IDQuNTMxIDIuMTc3Ljk5OS41NDYtLjM2OS0uMDk3LS44MTQtLjEzMy0uOTk5LS41NDZ6bTQuOTU0IDIuNjI1Yy0uMTQ4LTEuODExLjMyOC4zIDAgMHptMy43NTkgMi40MTNjLjI5MS0xLjAzMS4wMjMuNjgyIDAgMHptLTguNDczLTUuODU5Yy45MjctLjE5OCAzLjgzOSAxLjYyNiAxLjE2NS41MjEtLjI5Ny0uMzI5LS45MzItLjE4LTEuMTY1LS41MjF6bTcuOTU3IDMuOTY2Yy4wOTktMS44NTMuNTU0LTEuMTA1LjAwNC4yNjVsLS4wMDQtLjI2NXptLTcuMjY4LTQuNjExYy4zNzctLjU1NC0xLjAwMy0yLjUwMy4xOTktLjY5OC41MTkuNDEyIDEuNTAyLjY5LjYzNC44NjMgMS4zNjYgMS4yMDYtLjMzMi4zMjYtLjgzMy0uMTY1em02Ljg3NCA0LjAzM2MuMjYxLTIuMTEuMjMxIDEuMjM1IDAgMHptLTcuNjY0LTUuOTgyYy4yOS0uMTIzLjE1NC4zODUgMCAwem0xLjc5NSAxLjA2N2MuNDYxLS45NjkuODUgMS4wOCAwIDB6bTUuMDU2IDIuODE0Yy0uMDAzLS4zNzMuMDk3LjU0MSAwIDB6bS0uMjkyLS42NDljLS43MDEtMS43MzEuNjUzLjkxNyAwIDB6bS0uNDMxLTEuMTM2Yy0uMTE3LS43MTQuNDAxLjg5OSAwIDB6bS43MDMtMS4xNGMtLjQ4My0uODQ5LjYwNy0zLjc0LjczLTEuOTQ2LS41MDkgMS4zOTYtLjE0NiAyLjE3OS4yMDcuMzA1LjY1NS0xLjQ3Ni0uMTQyIDIuOTEtLjkzNyAxLjY0MXptLjcyLTQuMzAxYy4yMS0uMjU3LjA0Ny4zMTEgMCAwem0tMS4yMDQgMjMuNzI1Yy0uMjg2LS4yNS4wMzYuMTU3IDAgMHptMi40OCAxLjI1M2MxLjM4LjM1NCAxLjM3My0uMjE1LjEyNi0uMzg0LS42Ny0uNjI0LTIuNzg3LTEuMjg2LS44OTItLjA3OC4xMjQuMzE5LjUyLjMxMS43NjYuNDYyem0tNC44OTctMy4yNTNjLjc1OS41NjggMi44NjIgMS42MDUgMS4wODMuMjE2LjYtLjY5Ni0xLjE0OC0xLjA2OC0uNTY5LTEuNTM1LTEuNDc2LS45MDItMS4xNjUtLjgyMS0uMTMtLjc5My0xLjc3My0uNzk0LjI1Ni0uNzMzLjE2MS0xLjE0MS0uNjg0LS4xMzUtMy4zOTctMS4yMDYtMS44MDEuMDg4LTEuNjIyLS44MjYtLjM4Ny4zMDgtLjg3Ny4xODgtMS42Ni0uNDUxIDEuNDc3IDEuMjY0LS4yNjMuODM4Ljk1MS43NTMgMi41NjEgMS45MzMuNDAxLjc5Ny0uMjg0LjQxIDEuNTQ1IDEuMDMgMS45OTUgMS4zNDJ6bTIuNTkzIDEuNDljMy4xNTMgMS4wMTQtMS41NDctMS4yNDIgMCAwem0xMy4yNzggOC4wNDVjLjA0MS0uNjI2LS40My41MzMgMCAwem0xLjM2NS41NzNjLjcyOC0uNzAzLjAzIDEuMTI0IDEuMjA1LS4xNzIuMDEzLS45MjgtLjAzNS0xLjQ3Ny0xLjM1LS4zNS0uMzY0LjIwMy0uNTI1IDEuMDU1LjE0NS41MjJ6TTEyLjU4OSA3MC44OTZjLS4yMjMtLjg3Ni0xLjU2Ny0uODc0IDAgMHptMS40NTYuOTU2Yy0uNTQxLS44OTctMS45My0uODEzIDAgMHptOC4yOTIgNWMuODEuNzIgMy43MTguNTI4Ljk4My4wODktLjQwNC0uNTk5LTIuNTcxLS40NTctLjk4My0uMDg5em0xMS4zOTYgNy4wMzljMS4yNDYtMS4wNDYtMS4yMDcuNDY1IDAgMHptMi41OTIgMS43OGMuMDA4LS4zMzYtLjUzNy4xNDYgMCAwem0uMDA0LS40N2MxLjM3OS0xLjQ2Mi0xLjMzNi4wODYgMCAwek05LjAwNCA2Ny44OTZjLTEuMTc2LTEuNjc3LS43MzEtMi40MzEtMS44NjQtMy44MDEtLjIxNi0xLjA0OC0xLjk0Ni0zLjQyNS0uODk1LS45MDcuOTYyIDEuNDczIDEuMjQ3IDMuNzUzIDIuNzU5IDQuNzA4em0yNi44OTIgMTYuODQxYzIuNTM5LTEuNjQtMS4wNDItLjcxNiAwIDB6bTEuOTM3Ljc1OGMxLjI3Mi0xLjA5Mi0uODA0LS4yMjcgMCAwek0xMi4xNTggNjkuMDQyYy4zNjMtLjU0LS45NC0uMDcgMCAwem0yNS4yNzEgMTUuOTM1YzEuMjMxLS43OTItLjI4NC0uNjcxLS4yMjMuMDcybC4yMjMtLjA3MnpNMjAuNzI4IDc0LjQ1MWMtLjA0Mi0uNTM2LS42NS4wNDUgMCAwem0xLjAzMi41OTNjLS4zMjktLjY2My0uNTA0LjEwNSAwIDB6bTE3LjY0MyAxMC40NjljMS41NzctMS4xMzgtLjk1NS0uMjE3LS4zMy4yMTZsLjMzLS4yMTZ6bS0uNjA0LS4yOTFjMS4yODUtMS4wNzctMS4zNTUuNDc2IDAgMHptMy4wODYgMi4wNTRjLjg2My0uNTc4LTEuMDQ5LS4xODcgMCAwek0xMi45NDggNjguNjUyYzEuMTU1LjI1OSA0LjYxOSAyLjg0NyAyLjU3Ni4xOC0xLjA0Ny0uMzEtLjQxOS0yLjg2OC0xLjQ4Ny0yLjQxNi43MTcgMS4xOTguNTg5IDEuNzA2LS45MTUuOTUyLTEuODktLjkyNC0xLjA2My40NTctLjY5Mi44MzctLjUwNC4xMTQuNjY2LjQzOS41MTguNDQ3em0tNS4yNjUtNC4xNThjLjIwNy0uODU3LTEuOTA2LTQuNzA4LS45OTgtMS45MzEuMzI3LjU4Mi4yOTQgMS42ODQuOTk4IDEuOTMxem05LjY2NSA1Ljk1OWMtLjU5Ny0uNDk4LS4wMjktLjA3MiAwIDB6bTEuNDY1LjM0MWMwLS45MDYtMS42Mi0uMzY5IDAgMHpNMzEuNTE1IDc4LjhjLS4yNDMtLjYxOC0uOTU3LS4wMTQgMCAwem0uNjEuNDQ1Yy0uMDkxLS4zNDctLjM1Mi4wNjggMCAwem01LjAzNCAzLjE3MmMuNDg0LS4zNTYtLjYwNC0uMDQ2IDAgMHpNMTAuMzEyIDY1LjE2NWMxLjM4NS0uNTM2LTEuNDg1LS4zODIgMCAwem0yMC4wODQgMTIuNjUyYy0uMDE1LS44OTUtLjg4My4yMjQgMCAwek05Ljc2NSA2My44OWMuODg5LS4zMDEtLjgyNC0uMTk4IDAgMHptMi41ODEgMS4yNWMtLjAxNC0uMjk0LS4yNzIuMTEzIDAgMHptMzEuNDk2IDE5LjMxM2MxLjE0NC0uMjI5IDMuNzUxLjU4MiA0LjE3Mi0uMzAzLTEuMzktLjAzNC00LjgwNi0uOTc5LTQuOTY3LjIyNWwuMzA0LjA0OC40OTEuMDN6TTEzLjE2NyA2NS4zNDhjLjAyMS0uOTEtLjcwOC0uMDM1IDAgMHptLTYuNzg4LTQuNzFjLS4zMDgtMS43MzEtMS4xNzMtLjI2MyAwIDB6bTEuNjE4LjQwNmMuMDIxLS41NTYtMS40ODEtLjUgMCAwem0uOTI2LjQ1NWMtLjI2OC0uMjE2LS4yMDkuMjczIDAgMHptNS44MjEgMy43MzRjLjI3NS0uMjUzLS42NDktLjE4NiAwIDB6bS02LjQzNi00Ljc1OWMtLjE1OC0xLjMwNy0xLjg3Ny0uMTk1IDAgMHptLTMuMzIyLTIuMTUzYy0uMDQ2LS42MDQtLjMyMi4yMjcgMCAwem0uNDk1LS4zNzNjLS4wOC0uNzE3LS40MjQuMDkgMCAwem0yLjcyNyAxLjYyN2MxLjE1NC0uNDUyLTIuMS0uOTM3LS4yMzYtLjA4NWwuMjM2LjA4NXptMzYuNTA5IDIyLjU1MmMuNzM5LS42NzctLjkzNy0uMjA5IDAgMHptNC40MTEgMi4yODVjLjI5Ni0uODcyLS43NDYuMTE2IDAgMHpNOC40ODggNTguMTQ3Yy4xMjEtLjg0OC0uOTE2LjE2NyAwIDB6bS0zLjg4Mi0yLjYwMWMtLjIwOC0xLjE5NS0uMTc5LTMuMjkyIDEuODE0LTIuNTg0LTIuNjYxLjUyOSAxLjg0MyAzLjMwOSAxLjI3NSAxLjExMyAxLjExOS4wNTYgMi4xODgtLjY2MSAxLjYwMi40MjUgMi4yMDUtLjI0MiAzLjczMy0yLjE1NSA1Ljg2NC0xLjg4NyAxLjY1OS0uMjIgMy40NzQtLjM4NyA1LjI2MS0xLjA1NSAxLjQ3MS0uMTA1IDIuODg3LTEuNjg4IDIuMDgxLTIuNjI2LTIuMDA1LS4xNy00LjEwNC4wODItNi4zMi41MjItMi40NTUuNTEtNC42ODYgMS40NzktNy4xNjQgMS44OTYtMi40MTYuMzI1LjQ4NS44OTUtLjIwOCAxLjAyMS0xLjI1OS40MzggMS41MDQuNzMyLS4xNjMgMS4xOTMtMS4wMjktLjE5Ni0yLjEwMS0uNTQ5LTEuNjYxLTEuNjM0LTIuMzEzLjMwMS00LjM0NyAxLjI2LTIuNTE5IDMuNjE0bC4xMzguMDAyem01LjU3Ni0yLjgzOWMuNTQyLTEuOTk4IDIuOTA1IDEuNjQ0Ljg4OC4yNjUtLjI0LS4xODEtLjYzNy0uMzI4LS44ODgtLjI2NXptLjEwNS0uOTdjLjc4My0uNTgyLjQxNS4zMjggMCAwem0uOTkzLjAxN2MuMDcyLS45MTkgMi4yNzcuNDg3LjM2NC4zMzFsLS4zNjQtLjMzMXptMS4zNi0uNTQ2Yy40OTctLjU4Mi4xNDQuNTE0IDAgMHptLjM0OC0uMjMzYy44MjctLjk5NCA0LjY4MS0uNjM2IDEuODYtLjA5OC0uNzU2LS41NjktMS4zMzUuMzM2LTEuODYuMDk4em01LjAzMi0uNzc2Yy0uMTI1LTIuNzE1IDIuNS45NjMgMCAwem0xLjQyOC0uMDFjLjUyMS0xLjM2NSAyLjAyNi0uNTQ4LjI0Mi0uMjc0LjAzOC4xNDctLjA1My43MDgtLjI0Mi4yNzR6TTcuOTI1IDU3LjQ0NWMxLjU1OS0uOTU1LTEuNjU1LS44MyAwIDB6bTEuMTUzLjMxOWMuNTQ3LS41ODEtMS4xODktLjIzNSAwIDB6bS0zLjM5OC0yLjQxYy44OTEtLjY4Ni0xLjA1NS0uMjYxIDAgMHptNDYuMDUxIDI4LjgwOWMuMDI3LS43OTUtLjY4MS4zNTcgMCAwem0tNC42NzktMy4xOTNjLjEzNC0uOTE0LS42MDIuMDc5IDAgMHptNS45NjYgMy41MDFjMS4yNDYuMDA2IDMuNzc1LS4zODcgMS4wNjQtLjM4Ni0uNDI2LjA2NS0yLjQ3OC4wNTMtMS4wNjQuMzg2ek0xMC4wOTIgNTcuMjA0YzEuMDA5LS4wNjggMS41NzgtMS4xMTItLjE5Ni0xLjA1My0yLjc0Ny0uMjgyIDIuNDI0Ljk0Mi0uMzUzLjU5Mi0uMzcxLjI0Ni41MjguNTI5LjU0OS40NjF6bS44ODguNDQ5Yy0uMTA1LS42NDYtLjMxMi4zNDQgMCAwem0xLjA1NC0yLjgwOWMuNDM3LS41NDItLjYwNi0uMTQ1IDAgMHpNOC42OCA0OS4yMzljMS44LS42MTEgNC4yNjItMS4zIDUuMTExLjMwMS0uODY1LTEuMDQtLjM1LTIuMDY1LjQ2OC0uNTQzIDEuMTU1IDEuNTM5IDEuNzMyLS43Ljk4Mi0xLjIxNy44NTYgMS4wNjMgMS44MjkgMS41NjcuNTczLjA2NyAxLjM2Ni0xLjY0Mi0yLjczNC4yMTYtMy42NjUuMTk3LS40NDkuMi00LjYyOSAxLjA2NS0zLjQ2OSAxLjE5NXptMS4wNTUtMi4wMmMxLjAyNS0uNzc1IDMuNTUuNDYxIDEuOTMtLjc3MS0uMTU5LS4xMzktMy41NDUuOTM1LTEuOTMuNzcxem0zLjc0My4xNTVjMS4yLjAzLS41MTktMS42MTUuOTEyLS44Ny0uMjM0LS43NjctMS42NjYtLjkxLTIuMzY2LTEuMjE4LS4zOTcuNzAzLjgwNSAyLjA5NyAxLjQ1NCAyLjA4OHptLTMuMDg3LTMuMzk3Yy40MTYtLjU2NC0uNzI4LjI4NiAwIDB6bTEuNTMuMzY1YzEuOTM2LS4yNTYtLjQ5NC0uODMzLS4zOTEtLjAybC4zOTEuMDJ6bS0yLjg1Ni0yLjIzM2MtMS4zNjQtMS43ODEgMi41NjQuMjk5IDEuMTc4LTEuNTY1LTEuMTY2LS45MjgtMi4yODUgMS4wNDctMS4xNzggMS41NjV6bTE3LjQ5MSA5LjQyMWMuNjI1LTEuMTA4LTIuNTgtMS40OTQtLjQyLS4zOTIuMTk3LjA2NS4xNTMuNDY3LjQyLjM5MnptMCAwIi8+PHBhdGggZD0iTTU2LjA2MyA0My44ODZjLS4yMjMuODgzLS4zNjIgMi4zNjItLjQxNCA0LjQ0IDAgLjQwOS0uMTg0LjYxMy0uNTUzLjYxMy0uMzY4IDAtLjYyNS0uMTc4LS43NjktLjUzMy0uMzk1LS45NjEtLjc3LTEuNjMtMS4xMjUtMi4wMTMtLjQyLS40NDctLjk4LS43MTctMS42NzctLjgwOS0uNzUtLjExOC0yLjYxNy0uMTc4LTUuNjA0LS4xNzgtLjY4MyAwLTEuMTMyLjA3My0xLjM0MS4yMTctLjEzMi4wOTItLjE5Ny4yOS0uMTk3LjU5NHY4LjkzOGMwIC4zMDQuMTkuNDQ3LjU3MS40MzUgMS4xNzEtLjAxNCAyLjg2OC0uMDk0IDUuMDktLjIzOC40MzQtLjA1Mi43MjctLjE5NS44NzgtLjQyNC4xNTItLjIyOS4zLS44MjUuNDQ0LTEuNzg2LjA5Mi0uNTI2LjQwMS0uNzMuOTI3LS42MTEuNDQ4LjA5Mi42NC4yOTYuNTczLjYxMS0uMzY5IDEuNzktLjQ4OCA0LjExOC0uMzU2IDYuOTg2LjAxNC4zNDItLjIwMy41MjYtLjY1LjU1Mi0uMzY5LjA0LS41OTktLjE1OC0uNjkxLS41OTItLjM0MS0xLjY0NC0uOTc3LTIuNTIxLTEuOTAzLTIuNjM1LS45MjgtLjExLTIuNDM3LS4xNjYtNC41MjgtLjE2Ni0uMjM3IDAtLjM1NC4wODMtLjM1NC4yNTV2OC44ODJjMCAuNjU2LjI0MiAxLjEwNC43MjkgMS4zNDEuMzgzLjE5NiAxLjIwNC4zNzQgMi40NjcuNTMyLjY0Ni4wNjQuOTI3LjM1Ljg0OS44NDgtLjA4LjQzNS0uNjU4LjYwNS0xLjczNy41MTMtMy4xMTgtLjI0OS01LjY4OS0uMjM1LTcuNzE0LjA0MS0uNTY2LjA3Ny0uODQ4LS4xNTEtLjg0OC0uNjkgMC0uMzQyLjI4Mi0uNTM5Ljg0OC0uNTkyIDEuMjg5LS4xNDYgMS45MzMtMS4yNzcgMS45MzMtMy4zOTVWNDguMTI3YzAtLjg2Ni0uMTU0LTEuNTM0LS40NjMtMi0uMzEtLjQ2OC0uODg1LS44OTQtMS43MjctMS4yNzQtLjUyNi0uMjM3LS43MjItLjU2LS41OTEtLjk2OC4wNjUtLjI1LjE3MS0uMzg4LjMxNS0uNDE0LjEzMS0uMDQuNDgxLS4wMTMgMS4wNDUuMDc5LjgyOS4xMzIgMi43ODMuMTk4IDUuODYuMTk4IDMuNjMyIDAgNi43NjgtLjA4IDkuNDEzLS4yMzcuODgxLS4wNTMgMS4zMjIuMDE5IDEuMzIyLjIxNmEuNjkzLjY5MyAwIDAxLS4wMjIuMTU5em0wIDBNNjguODg5IDY4Ljk2N2MwIC41MjUtLjI5Ny43NTctLjg4OS42ODgtMS44MTMtLjE2OS00LjA2NC0uMTQ1LTYuNzQ3LjA3OS0uNTQuMDU0LS44NzEuMDM5LS45OTgtLjAzOC0uMTI1LS4wNzktLjE4Ny0uMjk2LS4xODctLjY1MyAwLS4zMTQuMzU4LS41OCAxLjA3NS0uNzk3LjcxOC0uMjE3IDEuMDc2LS44NjYgMS4wNzYtMS45NDRWNDguNDQ1YzAtMS4wNjctLjE1NS0xLjg0OS0uNDYzLTIuMzQ5LS4zMS0uNS0uODUyLS44ODgtMS42MjgtMS4xNjMtLjQwOC0uMTQ1LS42MTItLjM0OS0uNjEyLS42MTMgMC0uMzk0LjI5Ni0uNjkuODg3LS44ODcuODk2LS4yOSAxLjgyMy0uNzM1IDIuNzg0LTEuMzQyLjc4OS0uNDc0IDEuMjg5LS43MDggMS40OTktLjcwOC40ODcgMCAuNzMuMzM0LjczIDEuMDA2IDAtLjA1My0uMDI3LjYwNS0uMDc5IDEuOTcyLS4wMzggMS4zMDItLjA1MiAyLjU4NC0uMDM4IDMuODQ4bC4wNzcgMTcuNjE5YzAgLjgwNC4xOTggMS4zODcuNTkzIDEuNzQ4LjM5NS4zNjIgMS4wNzIuNjAyIDIuMDMxLjcyLjU5Mi4wNjMuODg5LjI4OC44ODkuNjcxem0wIDBNODYuODgzIDY3LjY0M2MwIC4yNzgtLjUwMy42OTUtMS41MDggMS4yNTMtMS4wMDcuNTYtMS44MTMuODM5LTIuNDE4LjgzOS0uNTE0IDAtLjk2Ni0uMjQ4LTEuMzYxLS43NS0uMzk1LS40OTktLjY3MS0uNzQ5LS44My0uNzQ5LS4xMTcgMC0uNzQxLjI3MS0xLjg3My44MDgtMS4xMy41NDEtMi4yNy44MTItMy40MTMuODEyLTEuMDc4IDAtMS45OC0uMzE3LTIuNzA0LS45NDctLjc4OC0uNjk3LTEuMTg0LTEuNjQ2LTEuMTg0LTIuODQzIDAtMi4yNzUgMi42MDQtMy45MDYgNy44MTQtNC44OTMuODk0LS4xNzEgMS4zNDgtLjUzMyAxLjM1OS0xLjA4NmwuMDQyLTEuMjYzYy4wNzctMi4xNTctLjg3Ni0zLjIzNS0yLjg2Mi0zLjIzNS0uNTY1IDAtMS4xMDMuNTA0LTEuNjA5IDEuNTE4LS41MDUgMS4wMTMtMS4yMzIgMS41NTktMi4xNzkgMS42MzktMS4wNzguMTA0LTEuNjE5LS4zNS0xLjYxOS0xLjM2MiAwLS42MzIuODA0LTEuMzY4IDIuNDA4LTIuMjExIDEuNjgzLS44OCAzLjMwMy0xLjMyMSA0Ljg1NC0xLjMyMSAyLjY3IDAgMy45OTMgMS4yNyAzLjk2NiAzLjgwOWwtLjA4IDguMTI4Yy0uMDExLjg1NS4zNTEgMS4yODMgMS4wODcgMS4yODMuMTQ1IDAgLjQyMS0uMDMzLjgyOC0uMDk5YTguMjUgOC4yNSAwIDAxLjcxMS0uMDk5Yy4zODEgMCAuNTcxLjI1OC41NzEuNzY5em0tNi4wNzUtNC40OThjLjAxMi0uMzI5LS4wNjQtLjU0Ny0uMjI5LS42NTEtLjE2My0uMTA1LS40MjMtLjEyNS0uNzc4LS4wNi0zLjE3MS41NjYtNC43NTUgMS41OTktNC43NTUgMy4wOTcgMCAxLjUxMy44MjIgMi4yNyAyLjQ2NiAyLjI3LjY1OCAwIDEuMzM2LS4xMjQgMi4wMzItLjM3My44MTYtLjI5MSAxLjIyMy0uNjQgMS4yMjMtMS4wNDdsLjA0MS0zLjIzNnptMCAwTTEwMS42MDQgNjUuMjk0YzAgMS4zOTYtLjUzNyAyLjUwNC0xLjYwOCAzLjMyNi0xLjA3MS44MjMtMi41MzUgMS4yMzQtNC4zOTIgMS4yMzQtMS4yMzQgMC0yLjQ3My0uMTMxLTMuNzA5LS4zOTYtMS4wNjUtLjIzNy0xLjY4NC0uNDUzLTEuODU0LS42NS0uMTA2LS4xODYtLjE1OC0xLjA4NS0uMTU4LTIuNzAzIDAtLjY5OS4xNTgtMS4wNi40NzYtMS4wODYuMzEzLS4wNC41ODMuMTMxLjgwOC41MTIuOTg2IDEuNzI0IDIuNTc4IDIuNTg3IDQuNzc0IDIuNTg3IDEuODU0IDAgMi43ODEtLjY0NiAyLjc4MS0xLjkzNSAwLS41NjQtLjIwOC0xLjAzOS0uNjMxLTEuNDItLjQ2MS0uNDM1LTEuMzU0LS45NDItMi42ODMtMS41Mi0xLjkyMS0uODU1LTMuMjA0LTEuNjA1LTMuODQ4LTIuMjUtLjY5Ny0uNjg0LTEuMDQ3LTEuNjA0LTEuMDQ3LTIuNzYzIDAtMS40Mi41NDYtMi41MjUgMS42MzktMy4zMTQgMS4wMTQtLjc2MiAyLjM2Ny0xLjE0NCA0LjA2My0xLjE0NCAxLjA2NiAwIDIuMDQuMDg1IDIuOTIxLjI1Ni45NDguMTcyIDEuNDQxLjM4MiAxLjQ4MS42MzIuMTA0LjczNi4zMjIgMS44MDIuNjQ5IDMuMTk4LjA0MS4xNy0uMTQ1LjMwOC0uNTUyLjQxMy0uNDM1LjA5Mi0uNzIzLjAxOS0uODY3LS4yMTYtMS4wNDEtMS42OTgtMi4zNTQtMi41NDctMy45NDctMi41NDctMS44MDIgMC0yLjcwNC41NzktMi43MDQgMS43MzcgMCAuNjQ2LjI0NSAxLjE1Ny43MyAxLjUzOC40MzUuMzI5IDEuNDU0Ljg0MiAzLjA1OSAxLjU0IDEuNjg0LjcyMyAyLjgyOCAxLjM3NSAzLjQzMyAxLjk1My43OTMuNzUgMS4xODYgMS43NTcgMS4xODYgMy4wMTh6bTAgME0xMjQuNDkzIDY4Ljg0N2MwIC40NjEtLjMxLjcwNS0uOTI4LjczLS45MjIuMDE0LTIuMTI1LjA3OC0zLjYxMS4xOTYtLjczNi4xNDYtMS4yNjMuMDU1LTEuNTc5LS4yNzQtMi4wNzgtMi4yMzctMy44NDEtNC41NzgtNS4yODgtNy4wMjUtLjExNy0uMjEtLjI3LS4zMTUtLjQ1My0uMzE1LS4yMjUgMC0uNjEyLjE5OC0xLjE2My41OTItLjYyLjM0MS0uOTI5LjgyOC0uOTI5IDEuNDU4IDAgLjQ0OS4wMTMgMS4wOTMuMDM5IDEuOTM2LjAyNi44NDEuMjM2IDEuMzk0LjYzMiAxLjY1Ni4yNzYuMTg2LjkxNC4zMyAxLjkxMy40MzUuNjE4LjA3OS45MjguMzEuOTI4LjY5IDAgLjMwNC0uMDUuNDkxLS4xNDcuNTYzLS4wOTguMDczLS4zNTkuMDg5LS43OC4wNDktMS4zMTUtLjExNy0zLjUzNy0uMDUxLTYuNjcuMTk3LS43ODguMDY1LTEuMjE2LS4wMzItMS4yOC0uMjk2YTEuNDcgMS40NyAwIDAxLS4wNDEtLjM5NmMwLS40MDYuNDAxLS43MTYgMS4yMDQtLjkyNS43MjUtLjE4NiAxLjA4NS0xLjAzMyAxLjA4NS0yLjU0NlY0OC4zMjZjMC0xLjA3OC0uMTA0LTEuODI4LS4zMTQtMi4yNDgtLjI4OS0uNTQxLS44OTYtLjk2Mi0xLjgxNi0xLjI2NS0uNDM0LS4xNDQtLjY1LS4zNDctLjY1LS42MTEgMC0uMzgyLjMxLS42NzguOTI3LS44ODdhMTIuMzYgMTIuMzYgMCAwMDIuODItMS4zNjJjLjcyNS0uNDc0IDEuMTcyLS43MTEgMS4zNDMtLjcxMS41MzkgMCAuODEuMzQyLjgxIDEuMDI3IDAtLjA5My0uMDA2LjU1OS0uMDIxIDEuOTUyLS4wMTMuOTYxLS4wMiAyLjI1LS4wMiAzLjg2OWwuMDQgMTIuMzVjMCAuMzQ0LjA5My41MTQuMjc1LjUxNC4xOTYgMCAuNS0uMTcuOTA4LS41MTRhMTAzLjU5IDEwMy41OSAwIDAwNC4wMjQtMy4zNTRjLjMxNy0uMzI5LjQ3NC0uNTkxLjQ3NC0uNzg5IDAtLjM1NS0uNTMyLS42MDUtMS41OTctLjc1LS40Ni0uMDU0LS42OC0uMzEtLjY1My0uNzcxLjA0MS0uNDU5LjI3MS0uNjU3LjY5Mi0uNTkxLjk0Ny4xMzIgMi4zMjkuMjA0IDQuMTQzLjIxNyAxLjI2NC4wMTIgMi41Mi4wMiAzLjc3LjAyLjQwNy4wMTQuNjExLjI1Ni42MTEuNzMgMCAuNDQ3LS4zMjIuNjktLjk2Ni43M2E3LjI1NSA3LjI1NSAwIDAwLTIuODYxLjY5Yy0xLjI1MS41NjYtMi41ODYgMS41NTktNC4wMDcgMi45NzlhLjM1OC4zNTggMCAwMC0uMTU3LjI5NWMwIC4xODUuMjIzLjYyNS42NzEgMS4zMjMgMS42NDUgMi41IDMuMTk3IDQuMzg3IDQuNjU2IDUuNjYzLjkzNS44MDIgMS44MDkgMS4yMDMgMi42MjUgMS4yMDMuNjA0IDAgLjk4LjA0MyAxLjEyNC4xMjkuMTQ0LjA4OC4yMTcuMzE1LjIxNy42ODN6bTAgMCIvPjwvc3ZnPg==;" parent="1" vertex="1">
                    <mxGeometry x="350" y="150" width="128" height="128" as="geometry"/>
                </mxCell>
                <mxCell id="1b-TEkIIw7o3AzUVDsbM-1" value="" style="shape=image;verticalLabelPosition=bottom;labelBackgroundColor=default;verticalAlign=top;aspect=fixed;imageAspect=0;image=data:image/svg+xml,PHN2ZyB4bWxucz0iaHR0cDovL3d3dy53My5vcmcvMjAwMC9zdmciIHhtbG5zOnhsaW5rPSJodHRwOi8vd3d3LnczLm9yZy8xOTk5L3hsaW5rIiB2aWV3Qm94PSIwIDAgMTI4IDEyOCI+PGRlZnM+PHN5bWJvbCBpZD0iYmxlbmRlci1vcmlnaW5hbC13b3JkbWFyay1hIiBvdmVyZmxvdz0idmlzaWJsZSI+PHBhdGggZD0iTTEuMjk3LTEuMzEzaC4xMjVjLjA4MiAwIC4xNDQtLjAxOS4xODctLjA2MmEuMjM3LjIzNyAwIDAwLjA2My0uMTcyYzAtLjA4Mi0uMDI0LS4xNC0uMDYzLS4xNzItLjA0My0uMDMxLS4xMDktLjA0Ny0uMjAzLS4wNDdoLS4xMXpNMi0xLjU0NmMwIC4xODgtLjA5LjMyLS4yNjYuMzlsLjQyMi42NzNoLS4zNzVsLS4zMjgtLjU3OWgtLjE1NnYuNTc5SC45Njl2LTEuNTMyaC40NTNjLjE5NSAwIC4zNDQuMDQzLjQzNy4xMjUuMDk0LjA3NS4xNDEuMTg4LjE0MS4zNDR6TS4xNzItMS4yNWExLjI4NCAxLjI4NCAwIDAxLjY0LTEuMTEgMS4zNSAxLjM1IDAgMDEuNjU3LS4xNzFjLjIzOCAwIC40NTcuMDU4LjY1Ni4xNzIuMTk1LjExNy4zNTIuMjczLjQ2OS40NjguMTI1LjIuMTg3LjQxNC4xODcuNjQxIDAgLjIzLS4wNTguNDQ1LS4xNzIuNjRhMS40MyAxLjQzIDAgMDEtLjQ4NC40N2MtLjIuMTE3LS40MTguMTcxLS42NTYuMTcxLS4yNDIgMC0uNDYxLS4wNTQtLjY1Ny0uMTcyQy42MTMtLjI1NC40NTgtLjQxLjM0NC0uNjA5YTEuMjIyIDEuMjIyIDAgMDEtLjE3Mi0uNjQxem0uMjE5IDBjMCAuMi4wNDYuMzgzLjE0LjU0Ny4wOTQuMTU2LjIyMy4yODkuMzkuMzkuMTc3LjA5NC4zNi4xNDEuNTQ4LjE0MWExLjEwNyAxLjEwNyAwIDAwLjk1My0uNTMxYy4wOTQtLjE2NC4xNC0uMzQ4LjE0LS41NDcgMC0uMTg4LS4wNTQtLjM2My0uMTU2LS41MzFhMS4wNDIgMS4wNDIgMCAwMC0uMzktLjM5IDEuMDQ1IDEuMDQ1IDAgMDAtMS4wNzktLjAxNyAxLjExMyAxLjExMyAwIDAwLS40MDYuMzkxYy0uMDk0LjE2OC0uMTQuMzUyLS4xNC41NDd6bTAgMCIvPjwvc3ltYm9sPjwvZGVmcz48cGF0aCBmaWxsPSIjMjM1Nzg1IiBkPSJNMjAuNzQgNjUuOTYyYy4wNzUtMS4yOTYuNzI3LTIuNDQxIDEuNzA3LTMuMjUuOTYtLjc5NiAyLjI1Ni0xLjI4NSAzLjY2Ny0xLjI4NSAxLjQxIDAgMi43MDYuNDg5IDMuNjY3IDEuMjg1Ljk4LjgwOSAxLjYzMSAxLjk1NCAxLjcwNyAzLjI1LjA3IDEuMzMyLS40NzUgMi41Ny0xLjQzOSAzLjQ4OS0uOTguOTMzLTIuMzc0IDEuNTItMy45MzUgMS41Mi0xLjU2IDAtMi45Ni0uNTg3LTMuOTQtMS41Mi0uOTYtLjkxOC0xLjUwOS0yLjE1Ny0xLjQzNC0zLjQ4OXptMCAwIi8+PHBhdGggZmlsbD0iI2U4NzUwMCIgZD0iTTEyLjE4NiA2OC41OTFjLjAxMi41MDguMTc4IDEuNDkyLjQyMyAyLjI2NmExMS45MzUgMTEuOTM1IDAgMDAyLjY0MyA0LjQ2OWMxLjI2NCAxLjM2NyAyLjgyMSAyLjQ2NSA0LjYxOSAzLjI0NmExNS4xNzMgMTUuMTczIDAgMDA2LjA2NSAxLjIzIDE1LjE3OCAxNS4xNzggMCAwMDYuMDY1LTEuMjU0IDEzLjc0NCAxMy43NDQgMCAwMDQuNjItMy4yNTdjMS4yMjgtMS4zMzYgMi4xMTMtMi44NDggMi42MzktNC40NzcuMjYtLjgyNC40MjYtMS42Ni40OTMtMi41YTExLjMxMyAxMS4zMTMgMCAwMC0xLjc2Ni02Ljk4OCAxMi42NTUgMTIuNjU1IDAgMDAtMy4wNy0zLjMxM2guMDA0bC0xMi40My05LjMzMmMtLjAxMi0uMDA4LS4wMi0uMDItLjAzMi0uMDIzLS44MTgtLjYxNC0yLjE4OS0uNjE0LTMuMDg2IDAtLjkwNS42Mi0xLjAwNyAxLjY0OC0uMjAxIDIuMjk3aC0uMDA0bDUuMTg0IDQuMTI1LTE1LjgwMS4wMTVoLS4wMmMtMS4zMDggMC0yLjU2NC44NC0yLjgxIDEuODk5LS4yNTYgMS4wNzguNjI5IDEuOTcyIDEuOTg4IDEuOTc2di4wMDhsOC4wMS0uMDE2TDEuNDI2IDY5LjY5YS4yOC4yOCAwIDAwLS4wNTYuMDM5Yy0xLjM0NyAxLjAwOC0xLjc4NiAyLjY4Ny0uOTM2IDMuNzUuODYxIDEuMDc4IDIuNjk1IDEuMDgyIDQuMDU4LjAwNGw3LjgtNi4yMzhzLS4xMTUuODQtLjEwNyAxLjM0N3ptMjAuMDQ0IDIuODJjLTEuNjA4IDEuNjAyLTMuODU2IDIuNTA4LTYuMjk0IDIuNTE2LTIuNDM4LjAwNC00LjY4Ni0uODk4LTYuMjk0LTIuNDk2YTcuMzg4IDcuMzg4IDAgMDEtMS43MTktMi42MjkgNi42ODMgNi42ODMgMCAwMS0uMzkxLTIuOTM3IDYuNzcgNi43NyAwIDAxLjg2MS0yLjc2NiA3LjYyNSA3LjYyNSAwIDAxMS45MDktMi4yMjNjMS41NjQtMS4yNDYgMy41NTItMS45MjEgNS42MzQtMS45MjEgMi4wODItLjAwNCA0LjA3LjY2NCA1LjYzIDEuOTA2YTcuNjEyIDcuNjEyIDAgMDExLjkxMyAyLjIxNWMuNDc4Ljg0Ny43NzQgMS43OC44NjEgMi43NjVhNi42MiA2LjYyIDAgMDEtLjM5NSAyLjkzNCA3LjMgNy4zIDAgMDEtMS43MTUgMi42Mzd6bTAgMCIvPjxwYXRoIGZpbGw9IiMyMzU3ODUiIGQ9Ik0xMDUuODk3IDY1Ljk0M2MuMTIyLTEuMzEzIDEuMTU4LTIuMTQgMi43MzgtMi4xNHMyLjYxNi44MjcgMi43MzggMi4xNHptNS4zMTQgMy4yM2MtLjQwNy45NzMtMS4zNTkgMS41NDctMi42NTkgMS41NDctMS42MiAwLTIuNzE0LS45OTItMi43NTgtMi41NThoOS4zMzNWNjcuN2MwLTMuOTE4LTIuMzU1LTYuMTI1LTYuNTc1LTYuMTI1LTQuMDkzIDAtNi41NyAyLjIyNi02LjU3IDUuNzE1IDAgMy41MDcgMi41MTYgNS43MyA2LjU3IDUuNzMgMi40MzggMCA0LjMyMy0uODE2IDUuNDg4LTIuMjV6bTAgME02NC40OTIgNjUuOTQ3Yy4xMjMtMS4zMDkgMS4xNTgtMi4xMzcgMi43NDItMi4xMzcgMS41OCAwIDIuNjEyLjgyOCAyLjczNCAyLjEzN3ptNS4zMTQgMy4yMzRjLS40MDMuOTczLTEuMzU5IDEuNTQ3LTIuNjU5IDEuNTQ3LTEuNjIgMC0yLjcxNC0uOTkyLTIuNzU4LTIuNTU5aDkuMzN2LS40NTdjMC0zLjkyNS0yLjM1Mi02LjEyOS02LjU3Mi02LjEyOS00LjA5NyAwLTYuNTY3IDIuMjI3LTYuNTY3IDUuNzE1IDAgMy41MDggMi41MTMgNS43MjcgNi41NjcgNS43MjcgMi40MzQgMCA0LjMyMy0uODEzIDUuNDkyLTIuMjQ2em0wIDBNNTYuMzggNTkuMjA4aDMuMzYzVjcyLjY3SDU2LjM4em0wIDBNNzQuNTU2IDYyLjc4N2gzLjM4MnYuOGMxLjIwMS0xLjI1IDIuNjQtMS44ODIgNC4yNi0xLjg4MiAxLjg2OCAwIDMuMjgzLjYzMiA0LjAxNCAxLjcwNy42MTIuODkuNjUyIDEuOTYuNjUyIDMuMzd2NS44ODdoLTMuMzl2LTUuMTcxYzAtMi4xNDktLjQ0My0zLjEzNy0yLjM2Ny0zLjEzNy0xLjk0OCAwLTMuMTY5IDEuMTMzLTMuMTY5IDMuMDM5djUuMjdoLTMuMzgyem0wIDBNOTcuNzY1IDY3LjQ1OGMwIDEuODQ0LTEuMjYgMy4wNTEtMy4yMDggMy4wNTEtMS45NDggMC0zLjIwOS0xLjE2OC0zLjIwOS0zLjAzMSAwLTEuODkgMS4yNDEtMy4wNTUgMy4yMDktMy4wNTUgMS45NDggMCAzLjIwOCAxLjE4OCAzLjIwOCAzLjAzNXptMC00LjIyNmMtLjg1Ny0uODk1LTIuMDk0LTEuMzg3LTMuODE3LTEuMzg3LTMuNzEgMC02LjI0NiAyLjIzOC02LjI0NiA1LjU5NCAwIDMuMjg5IDIuNTE2IDUuNTkgNi4xODcgNS41OSAxLjY4MyAwIDIuOTE2LS40MTggMy44NzYtMS4zNTJ2Ljk5MmgzLjM4NlY1OC4zNTNsLTMuMzg2Ljg1NXptMCAwTTQ4LjY4NyA2NC40MjNjMS45NjggMCAzLjIwNSAxLjE2OCAzLjIwNSAzLjA1OSAwIDEuODYzLTEuMjU3IDMuMDI3LTMuMjA1IDMuMDI3LTEuOTQ4IDAtMy4yMDQtMS4yMDctMy4yMDQtMy4wNSAwLTEuODQ4IDEuMjU2LTMuMDM2IDMuMjA0LTMuMDM2em0tMy4yMDQtNS4yMTVsLTMuMzg2LS44NTF2MTQuMzE2aDMuMzg2di0uOTkyYy45NTIuOTM0IDIuMTg5IDEuMzQ4IDMuODc2IDEuMzQ4IDMuNjcgMCA2LjE4NC0yLjMwMSA2LjE4NC01LjU5IDAtMy4zNTYtMi41MzctNS41OTQtNi4yNDctNS41OTQtMS43MjMgMC0yLjk2LjQ5Mi0zLjgxMyAxLjM5em0wIDBNMTE1Ljk2IDcyLjY3M3YtOS44ODZoMy4zODd2LjYxM2MxLjAxNS0xLjE5NSAyLjA4Ni0xLjc5IDMuMzA3LTEuNzkuMjQ1IDAgLjU1LjA0Ljk1Mi4wNzl2Mi44MTZjLS4zMjQtLjAzOS0uNjg3LS4wMzktMS4wNzQtLjAzOS0xLjk2OCAwLTMuMTg1IDEuMjctMy4xODUgMy40MjZ2NC43ODF6bTAgMCIvPjx1c2UgdHJhbnNmb3JtPSJtYXRyaXgoMS4wMTE1MSAwIDAgMSAtLjc0MyA0Ny4xMzgpIiBmaWxsPSIjMjE2MTkxIiBoZWlnaHQ9IjEwMCUiIHdpZHRoPSIxMDAlIiB5PSIxNS4wMDIiIHg9IjEyNC40OTYiIHhsaW5rOmhyZWY9IiNibGVuZGVyLW9yaWdpbmFsLXdvcmRtYXJrLWEiLz48L3N2Zz4=;" parent="1" vertex="1">
                    <mxGeometry x="560" y="150" width="128" height="128" as="geometry"/>
                </mxCell>
                <mxCell id="1b-TEkIIw7o3AzUVDsbM-2" value="" style="endArrow=classic;startArrow=classic;html=1;" parent="1" source="VC_4T_SuTCzVyqGMN9qu-1" edge="1">
                    <mxGeometry width="50" height="50" relative="1" as="geometry">
                        <mxPoint x="390" y="250" as="sourcePoint"/>
                        <mxPoint x="330" y="214" as="targetPoint"/>
                    </mxGeometry>
                </mxCell>
                <mxCell id="1b-TEkIIw7o3AzUVDsbM-3" value="" style="endArrow=classic;html=1;entryX=0;entryY=0.5;entryDx=0;entryDy=0;" parent="1" target="1b-TEkIIw7o3AzUVDsbM-1" edge="1">
                    <mxGeometry width="50" height="50" relative="1" as="geometry">
                        <mxPoint x="480" y="214" as="sourcePoint"/>
                        <mxPoint x="440" y="200" as="targetPoint"/>
                    </mxGeometry>
                </mxCell>
                <mxCell id="1b-TEkIIw7o3AzUVDsbM-4" value="成功" style="text;html=1;align=center;verticalAlign=middle;resizable=0;points=[];autosize=1;strokeColor=none;fillColor=none;" parent="1" vertex="1">
                    <mxGeometry x="265" y="235" width="50" height="30" as="geometry"/>
                </mxCell>
                <mxCell id="U63fWnS5q4b76bbsPGMs-9" value="" style="edgeStyle=none;html=1;" parent="1" source="1b-TEkIIw7o3AzUVDsbM-5" target="U63fWnS5q4b76bbsPGMs-8" edge="1">
                    <mxGeometry relative="1" as="geometry"/>
                </mxCell>
                <mxCell id="1b-TEkIIw7o3AzUVDsbM-5" value="手動でやるしかないのか？&lt;br&gt;ファイルの中身が更新されたら自動で読み込む設定にできないか" style="text;html=1;align=center;verticalAlign=middle;resizable=0;points=[];autosize=1;strokeColor=none;fillColor=none;" parent="1" vertex="1">
                    <mxGeometry x="335" y="278" width="370" height="40" as="geometry"/>
                </mxCell>
                <mxCell id="1b-TEkIIw7o3AzUVDsbM-6" value="&lt;br&gt;&lt;span style=&quot;color: rgb(55, 65, 81); font-family: Söhne, ui-sans-serif, system-ui, -apple-system, &amp;quot;Segoe UI&amp;quot;, Roboto, Ubuntu, Cantarell, &amp;quot;Noto Sans&amp;quot;, sans-serif, &amp;quot;Helvetica Neue&amp;quot;, Arial, &amp;quot;Apple Color Emoji&amp;quot;, &amp;quot;Segoe UI Emoji&amp;quot;, &amp;quot;Segoe UI Symbol&amp;quot;, &amp;quot;Noto Color Emoji&amp;quot;; font-size: 16px; text-align: left; background-color: rgb(247, 247, 248);&quot;&gt;ファイルに保存して渡す&lt;br&gt;&lt;br&gt;&lt;/span&gt;" style="text;html=1;align=center;verticalAlign=middle;resizable=0;points=[];autosize=1;strokeColor=none;fillColor=none;" parent="1" vertex="1">
                    <mxGeometry x="450" y="120" width="170" height="70" as="geometry"/>
                </mxCell>
                <mxCell id="1b-TEkIIw7o3AzUVDsbM-7" value="" style="sketch=0;points=[[0,0,0],[0.25,0,0],[0.5,0,0],[0.75,0,0],[1,0,0],[0,1,0],[0.25,1,0],[0.5,1,0],[0.75,1,0],[1,1,0],[0,0.25,0],[0,0.5,0],[0,0.75,0],[1,0.25,0],[1,0.5,0],[1,0.75,0]];outlineConnect=0;fontColor=#232F3E;gradientColor=#F34482;gradientDirection=north;fillColor=#BC1356;strokeColor=#ffffff;dashed=0;verticalLabelPosition=bottom;verticalAlign=top;align=center;html=1;fontSize=12;fontStyle=0;aspect=fixed;shape=mxgraph.aws4.resourceIcon;resIcon=mxgraph.aws4.ar_vr;" parent="1" vertex="1">
                    <mxGeometry x="600" y="30" width="78" height="78" as="geometry"/>
                </mxCell>
                <mxCell id="1b-TEkIIw7o3AzUVDsbM-8" value="" style="endArrow=classic;startArrow=classic;html=1;entryX=0.5;entryY=1;entryDx=0;entryDy=0;entryPerimeter=0;" parent="1" source="1b-TEkIIw7o3AzUVDsbM-1" target="1b-TEkIIw7o3AzUVDsbM-7" edge="1">
                    <mxGeometry width="50" height="50" relative="1" as="geometry">
                        <mxPoint x="614" y="170" as="sourcePoint"/>
                        <mxPoint x="664" y="120" as="targetPoint"/>
                    </mxGeometry>
                </mxCell>
                <mxCell id="1b-TEkIIw7o3AzUVDsbM-9" value="VRと連携(Virtual desktop試す)" style="text;html=1;align=center;verticalAlign=middle;resizable=0;points=[];autosize=1;strokeColor=none;fillColor=none;" parent="1" vertex="1">
                    <mxGeometry x="630" y="115" width="190" height="30" as="geometry"/>
                </mxCell>
                <mxCell id="U63fWnS5q4b76bbsPGMs-5" value="音声認識の導入&lt;br&gt;Figmaの導入&lt;br&gt;3D表示" style="text;html=1;align=center;verticalAlign=middle;resizable=0;points=[];autosize=1;strokeColor=none;fillColor=none;" parent="1" vertex="1">
                    <mxGeometry x="85" y="280" width="110" height="60" as="geometry"/>
                </mxCell>
                <mxCell id="U63fWnS5q4b76bbsPGMs-6" value="chatgpt apiの導入" style="text;html=1;align=center;verticalAlign=middle;resizable=0;points=[];autosize=1;strokeColor=none;fillColor=none;" parent="1" vertex="1">
                    <mxGeometry x="310" y="140" width="120" height="30" as="geometry"/>
                </mxCell>
                <mxCell id="U63fWnS5q4b76bbsPGMs-11" value="" style="edgeStyle=none;html=1;" parent="1" source="U63fWnS5q4b76bbsPGMs-8" target="U63fWnS5q4b76bbsPGMs-10" edge="1">
                    <mxGeometry relative="1" as="geometry"/>
                </mxCell>
                <mxCell id="U63fWnS5q4b76bbsPGMs-13" value="" style="edgeStyle=none;html=1;" parent="1" source="U63fWnS5q4b76bbsPGMs-8" target="U63fWnS5q4b76bbsPGMs-12" edge="1">
                    <mxGeometry relative="1" as="geometry"/>
                </mxCell>
                <mxCell id="dq8kfdewmBxz57I7uZtL-2" value="" style="edgeStyle=none;html=1;" parent="1" source="U63fWnS5q4b76bbsPGMs-8" target="dq8kfdewmBxz57I7uZtL-1" edge="1">
                    <mxGeometry relative="1" as="geometry"/>
                </mxCell>
                <mxCell id="U63fWnS5q4b76bbsPGMs-8" value="音声認識ならUIいらないし、フロントエンドもflaskもいらないのでは" style="whiteSpace=wrap;html=1;" parent="1" vertex="1">
                    <mxGeometry x="460" y="388" width="120" height="60" as="geometry"/>
                </mxCell>
                <mxCell id="U63fWnS5q4b76bbsPGMs-10" value="flask→blender問題も解決される" style="whiteSpace=wrap;html=1;" parent="1" vertex="1">
                    <mxGeometry x="660" y="388" width="120" height="60" as="geometry"/>
                </mxCell>
                <mxCell id="U63fWnS5q4b76bbsPGMs-12" value="音声認識もVRに任せるべき？" style="whiteSpace=wrap;html=1;" parent="1" vertex="1">
                    <mxGeometry x="460" y="528" width="120" height="60" as="geometry"/>
                </mxCell>
                <mxCell id="WSwa-flnGd7Rtjm3u9cv-2" value="" style="edgeStyle=none;html=1;" parent="1" source="dq8kfdewmBxz57I7uZtL-1" target="WSwa-flnGd7Rtjm3u9cv-1" edge="1">
                    <mxGeometry relative="1" as="geometry"/>
                </mxCell>
                <mxCell id="dq8kfdewmBxz57I7uZtL-1" value="とりあえずreactでの音声認識と&lt;br&gt;pythonでの音声認識どっちも試す" style="whiteSpace=wrap;html=1;" parent="1" vertex="1">
                    <mxGeometry x="260" y="388" width="120" height="60" as="geometry"/>
                </mxCell>
                <mxCell id="WSwa-flnGd7Rtjm3u9cv-1" value="blenderで音声認識、chatgpt-api変換するのは難しいのでは？" style="whiteSpace=wrap;html=1;" parent="1" vertex="1">
                    <mxGeometry x="60" y="388" width="120" height="60" as="geometry"/>
                </mxCell>
            </root>
        </mxGraphModel>
    </diagram>
    <diagram id="JZyEN8owDHNHYKOebnx5" name="ページ4">
        <mxGraphModel dx="1301" dy="423" grid="1" gridSize="10" guides="1" tooltips="1" connect="1" arrows="1" fold="1" page="1" pageScale="1" pageWidth="827" pageHeight="1169" math="0" shadow="0">
            <root>
                <mxCell id="0"/>
                <mxCell id="1" parent="0"/>
                <mxCell id="zKRI6zt-270tKDpFXWkv-1" value="やることリスト" style="text;html=1;align=center;verticalAlign=middle;resizable=0;points=[];autosize=1;strokeColor=none;fillColor=none;" parent="1" vertex="1">
                    <mxGeometry x="145" y="65" width="110" height="30" as="geometry"/>
                </mxCell>
                <mxCell id="zKRI6zt-270tKDpFXWkv-2" value="Text" style="text;html=1;align=center;verticalAlign=middle;resizable=0;points=[];autosize=1;strokeColor=none;fillColor=none;" parent="1" vertex="1">
                    <mxGeometry x="145" y="105" width="50" height="30" as="geometry"/>
                </mxCell>
            </root>
        </mxGraphModel>
    </diagram>
</mxfile>